<mxfile host="65bd71144e">
    <diagram id="zzgOo8SKxXYSupuCkMlp" name="第 1 页">
        <mxGraphModel dx="2064" dy="1736" grid="1" gridSize="10" guides="1" tooltips="1" connect="1" arrows="1" fold="1" page="1" pageScale="1" pageWidth="827" pageHeight="1169" background="none" math="0" shadow="0">
            <root>
                <mxCell id="0"/>
                <mxCell id="1" parent="0"/>
                <mxCell id="403" value="" style="strokeWidth=2;html=1;shape=mxgraph.flowchart.document2;whiteSpace=wrap;size=0.25;shadow=1;fontSize=19;fontColor=#000000;fillColor=#CCFFE6;gradientColor=#CCCCFF;gradientDirection=north;" parent="1" vertex="1">
                    <mxGeometry x="-150" y="900" width="1620" height="870" as="geometry"/>
                </mxCell>
                <mxCell id="389" value="" style="group" parent="1" vertex="1" connectable="0">
                    <mxGeometry x="-150" y="-80" width="1090" height="980" as="geometry"/>
                </mxCell>
                <mxCell id="385" value="" style="strokeWidth=2;html=1;shape=mxgraph.flowchart.document2;whiteSpace=wrap;size=0.25;fillColor=#d5e8d4;gradientDirection=north;strokeColor=#82b366;" parent="389" vertex="1">
                    <mxGeometry width="1090" height="980" as="geometry"/>
                </mxCell>
                <mxCell id="20" value="&lt;font&gt;GENERATED_BODY()&lt;/font&gt;" style="rounded=1;whiteSpace=wrap;html=1;strokeColor=default;glass=1;shadow=1;sketch=0;gradientColor=#F20000;gradientDirection=north;fillColor=default;fontColor=#000000;fontStyle=1" parent="389" vertex="1">
                    <mxGeometry x="170" y="120" width="150" height="60" as="geometry"/>
                </mxCell>
                <mxCell id="362" value="#define BODY_MACRO_COMBINE_INNER(A,B,C,D) A##B##C##D" style="rounded=0;whiteSpace=wrap;html=1;strokeColor=#2D7600;fillColor=#000000;fontColor=#ffffff;gradientDirection=east;gradientColor=#B3B3B3;" parent="389" vertex="1">
                    <mxGeometry x="400" y="664" width="400" height="60" as="geometry"/>
                </mxCell>
                <mxCell id="363" value="#define BODY_MACRO_COMBINE(A,B,C,D) BODY_MACRO_COMBINE_INNER(A,B,C,D)" style="rounded=0;whiteSpace=wrap;html=1;strokeColor=#2D7600;fillColor=#000000;fontColor=#ffffff;gradientDirection=east;gradientColor=#B3B3B3;" parent="389" vertex="1">
                    <mxGeometry x="400" y="420" width="520" height="60" as="geometry"/>
                </mxCell>
                <mxCell id="364" value="#define GENERATED_BODY(...) BODY_MACRO_COMBINE(CURRENT_FILE_ID,_,__LINE__,_GENERATED_BODY);" style="rounded=0;whiteSpace=wrap;html=1;fillColor=#000000;fontColor=#ffffff;strokeColor=#2D7600;gradientDirection=east;gradientColor=#B3B3B3;" parent="389" vertex="1">
                    <mxGeometry x="400" y="200" width="660" height="60" as="geometry"/>
                </mxCell>
                <mxCell id="373" style="edgeStyle=orthogonalEdgeStyle;html=1;entryX=0.075;entryY=0.022;entryDx=0;entryDy=0;entryPerimeter=0;" parent="389" source="20" target="364" edge="1">
                    <mxGeometry relative="1" as="geometry"/>
                </mxCell>
                <mxCell id="378" style="edgeStyle=orthogonalEdgeStyle;html=1;entryX=0.534;entryY=-0.057;entryDx=0;entryDy=0;entryPerimeter=0;exitX=1;exitY=0.5;exitDx=0;exitDy=0;" parent="389" source="375" target="363" edge="1">
                    <mxGeometry relative="1" as="geometry"/>
                </mxCell>
                <mxCell id="375" value="&lt;span style=&quot;color: rgb(255 , 255 , 255)&quot;&gt;BODY_MACRO_COMBINE(CURRENT_FILE_ID,_,__LINE__,_GENERATED_BODY)&lt;/span&gt;" style="rounded=1;whiteSpace=wrap;html=1;strokeColor=default;glass=1;shadow=1;sketch=0;gradientColor=#F20000;gradientDirection=north;fontColor=#000000;fontStyle=1;" parent="389" vertex="1">
                    <mxGeometry x="170" y="300" width="490" height="60" as="geometry"/>
                </mxCell>
                <mxCell id="376" style="edgeStyle=orthogonalEdgeStyle;html=1;exitX=0;exitY=0.5;exitDx=0;exitDy=0;entryX=0.25;entryY=0;entryDx=0;entryDy=0;" parent="389" source="364" target="375" edge="1">
                    <mxGeometry relative="1" as="geometry"/>
                </mxCell>
                <mxCell id="381" style="edgeStyle=orthogonalEdgeStyle;html=1;exitX=1;exitY=0.5;exitDx=0;exitDy=0;entryX=0.837;entryY=-0.003;entryDx=0;entryDy=0;entryPerimeter=0;" parent="389" source="379" target="362" edge="1">
                    <mxGeometry relative="1" as="geometry">
                        <mxPoint x="760" y="640" as="targetPoint"/>
                    </mxGeometry>
                </mxCell>
                <mxCell id="379" value="&lt;span style=&quot;color: rgb(255 , 255 , 255)&quot;&gt;BODY_MACRO_COMBINE_INNER&lt;/span&gt;&lt;span style=&quot;color: rgb(255 , 255 , 255)&quot;&gt;(CURRENT_FILE_ID,_,__LINE__,_GENERATED_BODY)&lt;/span&gt;" style="rounded=1;whiteSpace=wrap;html=1;strokeColor=default;glass=1;shadow=1;sketch=0;gradientColor=#F20000;gradientDirection=north;fontColor=#000000;fontStyle=1;" parent="389" vertex="1">
                    <mxGeometry x="170" y="540" width="550" height="60" as="geometry"/>
                </mxCell>
                <mxCell id="380" style="edgeStyle=orthogonalEdgeStyle;html=1;exitX=0;exitY=0.5;exitDx=0;exitDy=0;entryX=0.221;entryY=0.019;entryDx=0;entryDy=0;entryPerimeter=0;" parent="389" source="363" target="379" edge="1">
                    <mxGeometry relative="1" as="geometry">
                        <mxPoint x="290" y="530" as="targetPoint"/>
                    </mxGeometry>
                </mxCell>
                <mxCell id="382" value="&lt;span&gt;CURRENT_FILE_ID##_##__LINE__##_GENERATED_BODY&lt;/span&gt;" style="rounded=1;whiteSpace=wrap;html=1;strokeColor=default;glass=1;shadow=1;sketch=0;gradientColor=#F20000;gradientDirection=north;fontColor=#000000;fontStyle=1;" parent="389" vertex="1">
                    <mxGeometry x="170" y="800" width="360" height="60" as="geometry"/>
                </mxCell>
                <mxCell id="384" style="edgeStyle=elbowEdgeStyle;html=1;entryX=0;entryY=0.25;entryDx=0;entryDy=0;exitX=0;exitY=0.5;exitDx=0;exitDy=0;strokeWidth=5;strokeColor=default;startArrow=none;startFill=0;fontSize=12;fillColor=default;glass=1;shadow=0;sketch=0;" parent="389" source="20" target="382" edge="1">
                    <mxGeometry relative="1" as="geometry">
                        <Array as="points">
                            <mxPoint x="110" y="480"/>
                            <mxPoint x="110" y="200"/>
                        </Array>
                    </mxGeometry>
                </mxCell>
                <mxCell id="383" style="edgeStyle=orthogonalEdgeStyle;html=1;entryX=0.357;entryY=-0.035;entryDx=0;entryDy=0;entryPerimeter=0;exitX=0;exitY=0.5;exitDx=0;exitDy=0;" parent="389" source="362" target="382" edge="1">
                    <mxGeometry relative="1" as="geometry"/>
                </mxCell>
                <mxCell id="388" value="" style="group" parent="389" vertex="1" connectable="0">
                    <mxGeometry x="30" y="30" width="170" height="60" as="geometry"/>
                </mxCell>
                <mxCell id="386" value="" style="verticalLabelPosition=bottom;verticalAlign=top;html=1;shape=card;whiteSpace=wrap;size=20;arcSize=12;shadow=1;fontColor=#000000;fillColor=#CCFFE6;gradientColor=none;gradientDirection=north;" parent="388" vertex="1">
                    <mxGeometry width="170" height="60" as="geometry"/>
                </mxCell>
                <mxCell id="387" value="ObjectMacros.h" style="text;html=1;strokeColor=none;fillColor=none;align=center;verticalAlign=middle;whiteSpace=wrap;rounded=0;shadow=1;fontColor=#000000;fontSize=19;fontStyle=1" parent="388" vertex="1">
                    <mxGeometry x="20" y="5" width="130" height="50" as="geometry"/>
                </mxCell>
                <mxCell id="393" style="edgeStyle=orthogonalEdgeStyle;html=1;fontSize=19;fontColor=#FF0000;entryX=0.155;entryY=0;entryDx=0;entryDy=0;entryPerimeter=0;exitX=0;exitY=0.5;exitDx=0;exitDy=0;" parent="1" source="391" target="394" edge="1">
                    <mxGeometry relative="1" as="geometry">
                        <mxPoint x="180" y="1040" as="targetPoint"/>
                    </mxGeometry>
                </mxCell>
                <mxCell id="391" value="&lt;span style=&quot;font-size: 19px ; text-align: left&quot;&gt;#define &lt;font color=&quot;#ff0000&quot;&gt;CURRENT_FILE_ID&lt;/font&gt; Engine_Source_Runtime_Engine_Classes_GameFramework_Actor_h&lt;/span&gt;" style="rounded=1;whiteSpace=wrap;html=1;strokeColor=default;glass=1;shadow=1;sketch=0;gradientColor=#17FF5D;gradientDirection=north;fontColor=#000000;fontStyle=0;" parent="1" vertex="1">
                    <mxGeometry x="250" y="930" width="880" height="60" as="geometry"/>
                </mxCell>
                <mxCell id="392" style="edgeStyle=orthogonalEdgeStyle;html=1;fontSize=19;fontColor=#FF0000;exitX=1;exitY=0.5;exitDx=0;exitDy=0;" parent="1" source="382" target="391" edge="1">
                    <mxGeometry relative="1" as="geometry">
                        <Array as="points">
                            <mxPoint x="420" y="750"/>
                        </Array>
                    </mxGeometry>
                </mxCell>
                <mxCell id="400" style="edgeStyle=orthogonalEdgeStyle;html=1;entryX=0.566;entryY=-0.005;entryDx=0;entryDy=0;entryPerimeter=0;fontSize=19;fontColor=#000000;exitX=1;exitY=0.5;exitDx=0;exitDy=0;" parent="1" source="394" target="399" edge="1">
                    <mxGeometry relative="1" as="geometry"/>
                </mxCell>
                <mxCell id="401" style="edgeStyle=orthogonalEdgeStyle;html=1;entryX=0;entryY=0.5;entryDx=0;entryDy=0;fontSize=12;fontColor=default;exitX=0;exitY=0.75;exitDx=0;exitDy=0;strokeWidth=5;startArrow=none;startFill=0;fillColor=default;glass=1;shadow=0;sketch=0;" parent="1" source="394" target="399" edge="1">
                    <mxGeometry relative="1" as="geometry">
                        <Array as="points">
                            <mxPoint x="-40" y="1085"/>
                            <mxPoint x="-40" y="1359"/>
                        </Array>
                    </mxGeometry>
                </mxCell>
                <mxCell id="394" value="&lt;span style=&quot;font-size: 19px; font-weight: 400; text-align: left;&quot;&gt;Engine_Source_Runtime_Engine_Classes_GameFramework_Actor_h_136_GENERATED_BODY&lt;/span&gt;" style="rounded=1;whiteSpace=wrap;html=1;strokeColor=default;glass=1;shadow=1;sketch=0;gradientColor=#0800FF;gradientDirection=north;fontColor=#000000;fontStyle=1;" parent="1" vertex="1">
                    <mxGeometry x="20" y="1040" width="840" height="60" as="geometry"/>
                </mxCell>
                <mxCell id="397" style="edgeStyle=orthogonalEdgeStyle;html=1;fontSize=12;fontColor=default;exitX=0;exitY=0.75;exitDx=0;exitDy=0;strokeWidth=5;startArrow=none;startFill=0;fillColor=default;glass=1;shadow=0;sketch=0;" parent="1" source="382" edge="1">
                    <mxGeometry relative="1" as="geometry">
                        <mxPoint x="20" y="1060" as="targetPoint"/>
                        <Array as="points">
                            <mxPoint x="-40" y="765"/>
                            <mxPoint x="-40" y="1060"/>
                            <mxPoint x="20" y="1060"/>
                        </Array>
                    </mxGeometry>
                </mxCell>
                <mxCell id="399" value="&lt;span style=&quot;font-size: 19px;&quot;&gt;#define Engine_Source_Runtime_Engine_Classes_GameFramework_Actor_h_136_GENERATED_BODY \&lt;/span&gt;&lt;br style=&quot;font-size: 19px;&quot;&gt;&lt;span style=&quot;font-size: 19px;&quot;&gt;PRAGMA_DISABLE_DEPRECATION_WARNINGS \&lt;/span&gt;&lt;br style=&quot;font-size: 19px;&quot;&gt;&lt;span style=&quot;font-size: 19px;&quot;&gt;public: \&lt;/span&gt;&lt;br style=&quot;font-size: 19px;&quot;&gt;&lt;span style=&quot;font-size: 19px;&quot;&gt;Engine_Source_Runtime_Engine_Classes_GameFramework_Actor_h_136_PRIVATE_PROPERTY_OFFSET \&lt;/span&gt;&lt;br style=&quot;font-size: 19px;&quot;&gt;&lt;span style=&quot;font-size: 19px;&quot;&gt;Engine_Source_Runtime_Engine_Classes_GameFramework_Actor_h_136_SPARSE_DATA \&lt;/span&gt;&lt;br style=&quot;font-size: 19px;&quot;&gt;&lt;span style=&quot;font-size: 19px;&quot;&gt;Engine_Source_Runtime_Engine_Classes_GameFramework_Actor_h_136_RPC_WRAPPERS_NO_PURE_DECLS \&lt;/span&gt;&lt;br style=&quot;font-size: 19px;&quot;&gt;&lt;span style=&quot;font-size: 19px;&quot;&gt;Engine_Source_Runtime_Engine_Classes_GameFramework_Actor_h_136_EDITOR_ONLY_RPC_WRAPPERS_NO_PURE_DECLS \&lt;/span&gt;&lt;br style=&quot;font-size: 19px;&quot;&gt;&lt;span style=&quot;font-size: 19px;&quot;&gt;Engine_Source_Runtime_Engine_Classes_GameFramework_Actor_h_136_CALLBACK_WRAPPERS \&lt;/span&gt;&lt;br style=&quot;font-size: 19px;&quot;&gt;&lt;span style=&quot;font-size: 19px;&quot;&gt;Engine_Source_Runtime_Engine_Classes_GameFramework_Actor_h_136_INCLASS_NO_PURE_DECLS \&lt;/span&gt;&lt;br style=&quot;font-size: 19px;&quot;&gt;&lt;span style=&quot;font-size: 19px;&quot;&gt;Engine_Source_Runtime_Engine_Classes_GameFramework_Actor_h_136_ENHANCED_CONSTRUCTORS \&lt;/span&gt;&lt;br style=&quot;font-size: 19px;&quot;&gt;&lt;span style=&quot;font-size: 19px;&quot;&gt;private: \&lt;/span&gt;&lt;br style=&quot;font-size: 19px;&quot;&gt;&lt;span style=&quot;font-size: 19px;&quot;&gt;PRAGMA_ENABLE_DEPRECATION_WARNINGS&lt;/span&gt;" style="rounded=1;whiteSpace=wrap;html=1;strokeColor=default;glass=1;shadow=1;sketch=0;gradientColor=#17FF5D;gradientDirection=north;fontColor=#000000;fontStyle=0;align=left;spacingLeft=13;" parent="1" vertex="1">
                    <mxGeometry x="250" y="1169" width="1170" height="380" as="geometry"/>
                </mxCell>
                <mxCell id="406" value="" style="group;rotation=20;" parent="1" vertex="1" connectable="0">
                    <mxGeometry x="-100" y="1620" width="240" height="60" as="geometry"/>
                </mxCell>
                <mxCell id="404" value="" style="verticalLabelPosition=bottom;verticalAlign=top;html=1;shape=card;whiteSpace=wrap;size=20;arcSize=12;shadow=1;fontSize=19;fontColor=#000000;fillColor=#CCFFE6;gradientColor=#17FFB9;gradientDirection=north;rotation=20;" parent="406" vertex="1">
                    <mxGeometry width="240" height="60" as="geometry"/>
                </mxCell>
                <mxCell id="405" value="actor.generated.h" style="text;html=1;strokeColor=none;fillColor=none;align=center;verticalAlign=middle;whiteSpace=wrap;rounded=0;shadow=1;fontSize=19;fontColor=#000000;fontStyle=1;rotation=20;" parent="406" vertex="1">
                    <mxGeometry x="21" y="8" width="190" height="45" as="geometry"/>
                </mxCell>
                <mxCell id="407" value="" style="shape=image;imageAspect=0;aspect=fixed;verticalLabelPosition=bottom;verticalAlign=top;shadow=1;fontSize=19;fontColor=#000000;fillColor=#CCFFE6;gradientColor=#17FFB9;gradientDirection=north;image=data:image/jpeg,/9j/4AAQSkZJRgABAQAAAQABAAD/2wBDAAgGBgcGBQgHBwcJCQgKDBQNDAsLDBkSEw8UHRofHh0aHBwgJC4nICIsIxwcKDcpLDAxNDQ0Hyc5PTgyPC4zNDL/2wBDAQkJCQwLDBgNDRgyIRwhMjIyMjIyMjIyMjIyMjIyMjIyMjIyMjIyMjIyMjIyMjIyMjIyMjIyMjIyMjIyMjIyMjL/wAARCAWgBDgDASIAAhEBAxEB/8QAHwAAAQUBAQEBAQEAAAAAAAAAAAECAwQFBgcICQoL/8QAtRAAAgEDAwIEAwUFBAQAAAF9AQIDAAQRBRIhMUEGE1FhByJxFDKBkaEII0KxwRVS0fAkM2JyggkKFhcYGRolJicoKSo0NTY3ODk6Q0RFRkdISUpTVFVWV1hZWmNkZWZnaGlqc3R1dnd4eXqDhIWGh4iJipKTlJWWl5iZmqKjpKWmp6ipqrKztLW2t7i5usLDxMXGx8jJytLT1NXW19jZ2uHi4+Tl5ufo6erx8vP09fb3+Pn6/8QAHwEAAwEBAQEBAQEBAQAAAAAAAAECAwQFBgcICQoL/8QAtREAAgECBAQDBAcFBAQAAQJ3AAECAxEEBSExBhJBUQdhcRMiMoEIFEKRobHBCSMzUvAVYnLRChYkNOEl8RcYGRomJygpKjU2Nzg5OkNERUZHSElKU1RVVldYWVpjZGVmZ2hpanN0dXZ3eHl6goOEhYaHiImKkpOUlZaXmJmaoqOkpaanqKmqsrO0tba3uLm6wsPExcbHyMnK0tPU1dbX2Nna4uPk5ebn6Onq8vP09fb3+Pn6/9oADAMBAAIRAxEAPwDxlFxjir8EPTimR2xKg9a1LK2LOB0rnN7FUQEOcCj7OV5rc+y4UnFRmyZgOKBpGj4avGtpMdj1rv7wpe6UxHda8/02zeJ9xGK7jTpVFmUY5AFNDMqwlE2n3FqxwANorn0haKUoB8q5FalsNt7MQcIzGq0jbZZ27A1SIZXnIGKQn5ABUEj7nFTL6GrRlMcq85q9CMLVaMc1dijzgCqMi7Ft2A47VYQYQGmRqvl4xU+35ABTKHH7uajVQRmpGHy4oUDGKABVzzUirSIualAxxQUNI4oIwM0/FMY9qAI2GaiZM9qlpyIT2oAiC4WmlateXTDH7UAVtmaNnarKxmrEVt3YUAVIrXIzVpICEwatRxDt0pxAHFAFcxDjimmM56VZKjFJgUARJFluRUvlqSBipQAFpoCjmgBwUAVG/rT2bC1Ez8YpkjCec0ZHXNNBzTDjOM0AWQ/FLvqvuo3UWESl6iL00tTCadgHb+aUPUOaN1MCYvTd3NM3UlAEhNITSE5pjUxDmORSKc0m7jFID2oAkopm6lDUhD6KQGgnigY0H5qUnnNMzxTv4aBjT97NOX71JjjNOUcZoAlDU7dTAKcFp3AQtTSaeVpu2i4DaKdigLUgAFPAoVakVaQABUUoqyFqKVaYFTFGKeRSEUANHWpO1M71J2oAFqRaYvSpF60AI3SoTVhhULDmgCMimEc1KRTSKABKVqVRSsKCRi9akpqin4oAQ0004000ARmm0803vQA8dKKWiqASilooAZSGn4ppFACGkpaMUAFFO20u2gBlFP20baAGUlOIpKkBpopaMUALThTRTwKoBRS0CloAZRS0UAJRS0UANzS02lFADqWm0tABSE0lFSAlJS0YoAWlFJilAoAWlpKWgBKKXFGKAEoPSlxRigCPFKcUpWkwaAExS4p22mkGgAHJpdvOaUA8cUEHOMU7iEbpTBjGfSpuOOKYy84AouA0HApO9P8AL70L6GkMUDiiiigDyxLYbskVejQRrlRSmH5zn1qRThNuO9ch3WLcCrJtD465rUtraN3wBxWQqEYx1q9Hdm0XJ9KQWLd4Y4AE4WrSSfZ7dip+UrXMy3h1PU0jQ/KG5ror5SllGo/jG2qQiHT4S8TSnpWTeuY3kx/FXRQhbXTm/KuYuW8yVj6niqREiCMFn3dqsopZs02NQTir1vBnHFaIyCOMntWrawkYyKfBZgY4rRjhC44pisMSMYPFOVRUpCikGKYEezIpVTrUypmpVjG2gCJEwKdsqbaKYTzQUREdqYyelTY5pwTnJoAjWLjpUixgVMqjFNcgUCIiFBoKg0hNOGCKAHRxgnNWNlQqdo4qQPkYpiFzjpULPl8UrHa3FRn72aAJC1Ck7qhZuKcr807CuTb8n2o3io9wxUZIzRYLj3kNRF6GIx1qMmqJuODjNN3fNUZak30AT5ozUQY04GgY8mmE0ZphoAM0maDTaQDt1LmmCnUwHKc0jc0Dikf2oEAOaQ0qUEc0ANBpRQFpwWkIUU49KULTtvFAEIp4GVxTQPmqUDmgoaF4xUirxSquTUqrzigCPbTgKk8ul2UgIiKbipylMKUAR4oAp+2lCmgBFFSqtIq1Iq0wFC8VFKOKsgcVDKKQFQrzTSKkI5pNtAEQHNS44oCc1Js4oAYo4p6DmlVKeq0AIw4qAirLCoSKAIitNIqXFMIoARRSsKVRQwoJGqKkxxTVHNP7UAMIphqQimEUARsKaOtPamgc0APopcUYqgEopcUYoAbSU7FIaAGEUY5p2M0mDQA6ikozQAtFJmjNACGkp1IRUgNopaSgBwFOFIKcKoBRS0AUvagBlFFGKACiiigBmOaUCnYpcUANxS4p2KMUAR4pcUtFSAmBRgU7FLigBuKXFOApQvtQA3FGKk20u32oAj20bal2mjbQBFtoxUu2jbQBERSYqyIs0vkUAV+KQirHkn0pRB7UAVwh601h3q15LelNMBJxikFisB707HFWfs+eacLf2oCxTpce1XPs9L5ApgVFiJ7UVowwCigDyYEE5IqWEBjz+AqIAnABqxCg3iuM9DoWVTaN2OlUNRuV8tlH3j2rSd/JhYt07ZrFgjN3qSjGUzzTRL2NbwxpZj/0mYYJ5Gf7tbVy3mThB8yio5WFvaLGh5IpsOUUMx96slk1/KqWu3OMCuYwWkyPWrup3ZlOF6d6gtkOMkfStEjFsswpjblRmtqzhAUccVnQRB+cdK2IFPl4ximSXYwABg1KX+TAIqFFwtJu5NAEjcnOakRM1XyTirMRIp2GSogFOPqKap5pSflosBGzGmZoJpobmqAmWpBUSNUm7ikA7dharu2WxTy1VWP7w+lOxJNuyfalDfNx0qEEAdaA1OwFvPy9aQMcdahD8UA8dadiR5Ykf1qPLA0FjimZPrxSsFx+/wCWgPxxUWRigGiwE+7ignios8UuaLBcc2cU3FLzTTnGaYhpFMYYpxY9KY2aBj1pxNNFONIYmTTSeacBSEc0ANppzUu3ik20ARjNOpwSniOgCPmlAzUwi4pwipgQhadt5qYR09Y6AIAlPWOrCxe1SpD7UXAriKlMXFXRDxSGPHalcCgsXzdKf5VWVj5pxSkBBHHz0qcRj0pyLzU4XigCAoPSk2CrBWmlaoCm6800LVh1OaaF4oAi20u2n4ooAYBzUqikAqRRQAmKrzd6tsMCqsvJNICADmlYUoHNKaAGqOamC8VGKlzxSAbinAUlPHSgBjLxULLU7nioGbmqAAtBSgNS5oAZto20+lpCGBaXbTqWgCPbTGWpTTGoAgIoA5pT1pRQIUjikxT+1JTuUNxSgUtKKLgNI4phFSGmHrQIbilxSgU7GaAI8UYp+2k21LY7DcUmKfikxSuFhuKMU/FGKAGbaTbUmKXbQAwCnhaULUgWgBm2grUmKCtAEPel7U/y+aXZxQBDinBafsp6pmgBmyk2VY8vilEdAEAjOKGjq0I+KayUAU9lOCCp/LPpThEfSiwyAIPSnbB6VOITUiwHPSiwyqI6eI/ar6WhIHFTLZn0p2JM3y/ajyvatUWZ9KX7HRYWhl+V7UCEmtP7NjtSi3HpTsF0Zwg9qUW/PStMQD0oMYFFguUFt/apRbVZCc1KqUrBcp/ZR6Uv2cDtV3aKQgUWFcpeSPSo3hHpV8gVC+KLBcrJEPSn+UPSngilLCiwXIhCD2FBiA7CptwC0wOCaLBcfFENnSinK4CUUBc8lvdIlspMKp2e9RWqFX+fpmvQtQiS5hcSIAR0Ncm9jtjYp1BrkmrHpwhoYesT7gI0NWtEsvJh85xz2qstk9zegEZwa6OWEW1qqDuKEZSK6L9oJY9BUF5dBV2r1qKe9WCIhDzWP57yzE5yvetYoylKxIzGSTr3rRtkGPTHWqdsm5+BWnBH1yM1qkZNly1iBbAzWmi42jFV7SI9e1XUTPXtQA5RtHSkKZOelSEc4oABHJPFIBiirC8JUKjmrAAxVWFcTd0pHbtSNw1Nduc0WC41jUeaeelMPWmMkVqdvqGlzSAk3dTUDn5qfnH0qByS9UIfyDTlPOKj5pwOCKAJgRijjNICKXIzTIDNMbrTzTSRSGMpBT+DTaAFDetLu9KbS4NAEoBprChScUrUCGjB60YAFKOlFACAc0/bQo5qTbSKGBaay1MFoKUAQc0oWpRHUiRZ7UARKmalWL2qwkNWFhFAFYRcUnlVcKAUwgUgIFiqVYvalBFSBhQALFUioBTN1OBoAexAFVnfmpXPFVnPNIB6mlJqENQz07ATK1ShqpCTmpVkp2AtbqQmoPMpDJxTsArmmg8VFJJTVkp2AlZqTdUbNTQc0gLKmnhqgVsU4NzQBNI2BVVm5qWVvlqpu5oAeTTSaCeKYWpAPBqTdUANOzQBMGqUHiqqmp1PFACNUDVI7VAzGmA8UUwNS7uaAJAaXNIOaWkIXNGaMUuKAGmmNUmKawNAEB60oFBHNKooCw7tTSKfik20hjQKdRtpcUAMNNxTzRigBoFPC0AU8CmAzbSbalIzSFTUjIttJipcUgHNADNhpNp9KsbeKTbQBEqmpAh9KeqVOqUAVhGfSniM+lWRHUixe1AFTyz6UeWfSrvle1J5XtQBS2H0oKH0q8IacLfPagDOEbelSpC3pWglrk9Ktx2g9KAMkQt6U9YGPatkWYpy2oFAGULY46U1rY+lbJhAFQvGKAMxbapFtRVsKBTwBV2FcrLbD0qVLcZ6VLkU4NzRYVyRIhjoKkEYpoNODU7E3AoKaQKdnNIelAFdgAabT361HQAuaiJ5qTIqM0ASLingDFRLUg6UgGtUJJzUrsKgLc0gF5xUEpNSlxiqsslACbzSGQ1D5lNMlAE7S/JjNRCQ4/zzULyCk3igC2HJHU0VXWSigDHh1ZbhMEnk1dXTwyeYmSrdRimWmixHkDHNdHZxpbxCMcj3rGtGMkejGcoHHnSPs9wZVU4rK1mYwxlsHI6V6a1rFKOQMVi6t4chvoGwBu9qxguVkzdzx2aczcA9atWcJHXkVtXvhCe2kYxqcDtUcVi0PDDkVtEwkhkMYVwccVpwR81BHESOnStK2h+deOKu5CLMCkYq3jHNNRAKexASmgI2bmgHNNpRxTQEqUrEikSleqJFTmhxQlD0AQNTO9SMKZjmgBy0uKUClxQBHimOO9TbaY4oGRClPWnAUEUAPRQRSlRTo14pxUZpiG7RimFRU4UYphWgCICkC9aft+bFBHWkMNuQtO2809V4FKF5pCI8UuKkK0m2mMZijFPC04JQMai81MqZp6Qmp1ipCIRH7UhSrO3FMYCgREE5q1CoHUVGgBNTj5RQAr47UIcCmFs00tgUAOZ6jLUwvTC9MCQmjdUO+jfSAl3mpEkqpuNOVqALEklVzJnvTZGqvu5oAs7hSM1RBuKUmmSO3U4NUWaXNAE2/ik31Duo3Uxj2OaQGmFqUGgY8tQpqMmlU0gJS2KVWqImlU0ASzNxVXPNSyNmoM80APJOKjJ5p2eKYTzSAeDTs1GDS5oAlVqnVuKqqalDcUwB25pmRSOaaDQArUKKQmnKeKAHqadmmLTqQEinmnE1GlOoEG7mkJpMc0uKkojNAFP209UoAjxS4qUJTglAEOKbirBSm7KAIitIFqcrxTQvNADQmaXZzU6JmpRF7UAQBeKTbVnyjR5RosBW2UmyrXlGlERzRYCrsOKBHk1d8jjpSpBz0osSQRwZNWUg9qtRQe1WFixTsBTW1J7VYS1AHIq2qcdKdtwKqwFF4AKaIl9KtSDmosCgCMRjPSpAg9KWlBpCHKo9KsoMCoVNSq1ACM1N3GpMA0mwUARljioWarBUVEyg0ARCg1KEFBQUwIcHNSKKdsqRUpgNphY5qz5VRtFQA1GpWbinLHimstAER5NNIqXaKNooEQFTTdpzVnaKAgoAhWM05kOKuLGKcYxjpQBkvG1RmI1qtADSfZ6AMhkNV5Ij6VtNbCoHt8HpSAx/KPpSGI+lav2ekMFAGQ8B9KFtye1arW4NPS3GOlIDLW2NFahhx2ooAiW2xnFPML4461LaXcVzHuQgirK4PpXKz0WuX4jODyxvjORU6z4qd4gTuUVDJGH4PBqLkkMoSZ/nAINZmo6FFIheHAark2+Hiq6XbJk8kVvEHTObbT3g4K1YSNQFBreAiu4zuxmqFzbiFuF4qjJxKoWklGEqQAduaa+MVaMmVhxxTqQj56CeaoRNHTnpsXSnPQIVKHoSh6AIyKbinmm0AOApcUKKdigBuKY4qUDNMcYoGRAUEU8DNBU0ALGDTipzSxqaeUOaYhAvFN2c1OEOKaVNAEWyk284qULShOakYir0FPApypTtvNADCtN21MVpAvNA0MVKlWLkVIkdTqmKABYwAKDgU5jgVXkegBWcVCz0xnqMt70CLUbVIz8VURqeWoESB6RmzUW6lJ4oAjLU0tTCeaaTTAfuo3VETSZNAEu73qRGqpuOamQnFAEjmq/epXNRUAPBpSaYDS0Ejs04Himc0ooADSU7FIaYxuaAaQ0negB7Uq0hFKtIYppRSGlFADXPFR09qZg0ALUbdafTD1oYCilpAOKWgBy9alHSo161IKAEYUwCnNmkWgBCKVRT9uacqUAIozTitSKtLt9qAGqtOI5pyqfSnbeaQEeKQg1Pso8upGVwDmplU1KsOT0qwkHHSgCsEpwQ1bEIpwh9qAKRQ03ZzV8wj0pvkigCmUoWHJq35fNSRw89KAIY4DVhYKtRwipRGBQBU+z0eRVo4FMJFXYCv5NHlVKSKYTRYCPaKkjQZqPkmpE607ElyMKBTzioEbFSZyKLAKGpHekFRyGkOw1nphamEmkpgKWpVbmmnpQvWpJLKninBsGmqOKD1oAlD5FG6ogaUtxQArPTN1MZqTNAEoenBqrhjUgamBMpyanSqyHmrCHigCcEYpjUA0GmAVE9S1G45oAixRinUhoEJSjrTaWgC2tSYFQqalBoAQqKNopaBQBGy1C0easMaZQBX8mkaHjirNFICoIc1KsNTBakC0AV/Joq1tooA4/RtPNj5gLkhzWzkx9eRToUQfSpHUFSO1cEneJ6M5uT1BZF8vIqhPexgk5GRUikhZFJ4xxXI312RO6g8g06aujWhT52a9xqUcqlWYVmxXpE7KeV7VnxRPNcA/wmtmDTN+GIxit0dUoRgOin2kkDrU1w4ktS2OVpEsOSM07yHUFDyDTuYe6VFjyBIg+U1BMgV8960bJwga3lGCOlQXsGMkdKIzV7HFWpWl7uxmnrQaDwaQmtEYMni+7T8ZFMj+7Ui1RIKMCmNktU2OKjxgmgBlJ3pT1pO9AEqU4impTzQAIvFRzDmpwOKgk+9QMai07AoUcUv8VAE0YqbaMUyNeKnC8VIERGKZipytM20CIitCrTj1pyjmmA4JxS4ANOyAKjZsmgY5ulIvWjqKVRzQK5OmMU4tiowcCmluaAuPd+Kqu3NSO3FV3NArjGNQsakY1C1Ark0ZyKUmmxHihjzTAcp5qRulQqealJ4oAiIpCKfSYpjuMxTTTyKbigBg61Kp4pm2nqKQxGplTFeKYV5oEMp4pQlLtoEHFLShacFoAZijFP20YplDNtJtp+KUDNADMUmKl2UeXz0oAiAp4WpRHTxF7UAVmXNN21bMXtSeTntUjKLHtTClaH2X2pwsi3QUAUAtO28VpLp7f3alXTmP8ADTAyUTJ6VLsrVGm7aDZY7UwMoxk9qBE3pWutoPSnfZV9KQjKSI+lTLbse1aSWoz0FWkt1AoAyhbmpBB61qeQtHlKKkZneTR5NXyi00qtAFHyqBDzVtlWlRVz0piI44MnpVlIMDpU0agDpT8gDpQBX8nnpTxHgdKfuFNeQCiwyF19KjxxTy+aiZsGiwxVTJqzGgxUMZzVgEAUyR2Kd2qPfSF6AELc1E70MaiY0AODUjNTM01jQA8Gng1ADUimmBYVqkDVXDYpwegCwGqtK/NP38VWkf5qQDweKCaYrcU1moEOZsUiyc1E7VGHwaANJJBilZ6pJLxT/MoAs7xTWeod9Rs9AExk96VXFVC/NKsnNAF3eDTS2ag8zik82gC7F2qdXNU4pRUwcetAFoOaXfVYSCl8zNMRZ300vzUG+kLUATlqTrUG8+tSKcigQMKVBTWpyc0ASiTFPEtNCijAFAEokp3mCocgUFxjrQA4mm5qIvz1pN49aAJwaWoRIKf5goAmU1IDVcOKeHoAmoqLdRSAoKpQYzSu/wAhBqJ5cpuz0qvLMRAzZ7V59/e5T0FEgurgQo3NchegSzl0HJNaOoXLN8oNULRgJ1DgnJraMbHpU04R5jc0u0WOASuO3etKDMj8D5aqXMnlxRRp0NalkoSJcirRyVal/eHpbNnO3ih7Yj+GrSyrjrxTmmT+8KDm9rqYslsC5yo3DpVZ4j0ccVvOiP6bqqTwc4IzWc6dylO5zF1AUJIHFUiCMZro5IVYsp5FZV3aNEcjla2hfqY1YWZFCflqXNV4zgVKpzWpgTpyDTH6mlBwKaTk0ARnrSd6U9aTvQBKlPNMSnmgB2/ioWbLVIE45ppiyaBiBgBSqcml8o1LHCaAHo1S7uKFip+wYqQIi9MLZqRlHrTNtACKMmpQoApAMUpagBjGjHejrS84pgA61Kq1EgOasoOKCBpGBULDmrLDioWXmgRC3SoWFWGFQkUCISKiYVZK1Ey0DEjHFDA5qWNeKGXmmMiQc1KRSqvNSlRigCDFGKk20oWgCLbRsqwEPpS+XTGVCtKqGrYhyaf5PtSGVNvFMK81cMdAhz2oEVQpqRYye1WUt/arMdv7UAUBEacIz6VpfZxTTEAaAKHknFJ5BrREYAo2CmMoLbEnpUq2hParyIPSp1UelAygtgTUq2A9KvZxRuxQBVFioFBgRe1TPNULNmgCPy1zT1hWmbualRuRUjHrADU6wqopocAU4SUAP8pe1Hl470qtTXkpgNbgVCetPJzTMUCENABJpyjJqVUFIQItSgUg4pwoAXHFRtUhPHWoXb3pjGE0w0pNNzQAoGalRMVFGTuqyOBTEKOKCahd8UgfNADicVCzZpZGwKrl+aQyXNRsQTUbSYqPzM0AX4qlNVYXqZn4oEPprHFND01myaAGyPioS+TT5TxVfPNAEhemGSkY8dajbpQA9ZOamV6pA81MpoAs76BJzVcsaaH560AXS/FVXf5qcX+XrVZn+agC0rcUjNTEYbaY70CHM9RluaiMnPWk3UAWFkxTxLVLfSiSgC95lRvJUHmcdajd6AJGl96BN71VZ6QMaALnn+9IZveqZY0m9qANKOb3qdZ/es6EmrC9aALwk96f5lVlPHWguB3oEWxLS+b71RM3vTTPx1pgXhOoPWpluFx1rFMpzThMfWgDYadfWnJMKxfNNTRyn1oEaxuKQzn1qmJVPel8wUAWTMaaZTUHmik80UASmU5603zT61EWFN3j1oAtLKakEtUg9OEnvQFi8snvUyv71npJVhHoAuB80VW8z3ooAxob+NgV7VFc3aiBhnis+4iaGQjBArIuLmRNynO2uZQR70KabFludzEirEF3BDGGkxuHNZJLyuDD0PWn6zYzRaYsq5Geta0Ypzsy8Y+Sl7pdu/EUeV+YAKeDmpD4v8tNiZc4qvpPheK9tY5du7I6muktfC8CY4UFfvZFdUo049D591Js53/hJrxvuQSfWm/2/qZP/Hs+fT1rtU0e0jPRc1L/AGfZgcgZo54fyk3kcSPEmor8xt2GP9qp4PGJ3fv0ePHfBrrf7Msn52ioJ9B0+Rdox+VF4PoO8l1Me21+yuJzslXmtSJ4LobMqc1lXnhS16xHBPfNZ66LeafJmKd8emal04y+EpVn1Nu507y8lBkVnFHjJBGK0bC5uSgE681cntY5ULdDWbjYOYxl6UbfmzUrII8q1IozzSAiKU5ISTU2wGp4kApFDI4CKcYealzikZwKAIJBjikUcUrcmipAFHNWFAAqGMc1MaAHZpjnApQcVFI9MBpYk0AU1OTU4XAoAaAaa1SUxqoAWnEU0UpNAEirU6iq6tzVhDQSP200pTwaWgCrJHVcxnNX5AKi2igCqUwKiMeTVtxg0Rpk0ANit8ipPsue1W4lAqbAoAz1tcdqU29X8Co3xmgCmYKQQ1bPSmAc0FDFhFPFuKmQVJkCgCEQKBSmNcUskoHeq5lyetQgFaNc9KljiXFQF6kWTAq0BOAgFODKKptJ70vmcdaALTtgVVaQ7qRpfl61XaX5qQFnzD60qvzVTzPeno/NMC+jVKGqoj1KGoAn3UhbimA5prGgBjtzUTMac2TTGFACK/NTI1V1HNTIKgCcPTlfmoqUHmgCyX4qFpPekZuKgZ+aYE4kpDJUG6kLUAWo3zUu4+tU4mxUxkANMCxvp6yYFUzKAKcsoINMRM8nPWo9/vVdpeetNElICyWqMtzTN/vTS/NAFlGqbfx1qmrVKH4oAezUzdTGbNNzTAHeoWakZuaZuFFwEdqRW5pjtzQtO4FuN+lSF896qI3vUm/3pAWA1O3c1ArU7fQAspOKr80kspqEyGgCUE5obpUHmHNDSnFAEi1KKrLLUok4oAkY8VFnmkaWo/MoAnZuKh70jycUxX5oAs84qNs08Himt0oEVXPNPB+WmMuWqdICVFAyDmg5q0Lf1p4hWgCoEf1NBRq0vKXFMZFoEZpjalVDmrjItMIAoAh2cUoUZpWamb6ALCYAp28A1W3mmmTmgCzv96aX96h38U0vQBIW96YXphakzQIfvPrS+YajzSZpgWFk9qkEvHeqoNPDUATic56mpRcH1qqAOuacBSEWDcH1pvn571CRio2bFAFoTe5ppn96q+ZRvzQBaFyaQXRz1qsMU0jnNAGhHcGrcc/FYyPg1ZSXHekSaglzRVBbjmigZVF1DqelxzxA7gPmH92sx4PNjI2ZJoWNtG1p7Z2xBP0x0rYhtxGDIx4rI+hk+R3WzM+y0qO2Xe/THStSa0j1HTXgK8nIFRjN1JhfuCte2tvLjHbinF8rOXESclqcBoWvSaK8un3vRW+Sr934zVZAsb5qHxn4beZ/t1sPmHWsHw9psU04W5/1melelH2c4854rUkzVbxVeTkLDE59DU0d9rdweEYZrqrXRrWNV+UKO3FaKwW0Pp71jKcVtEtRORiGsBcYpxj1jHy7s/WuwaWBRwo/CoftK5I2ACsvbG0aJxskuuxdFDVENQ1lcl4c/jXYtIMn92MU6KS2fh41FONfyK+rvoceviGWBAZrYgitCy8V2Mw2y5Q+9dBcaRp1zHnC81hah4Lt50zDhTWqnTe5hKnNGsiWd8gMLqc+9VrjT5ITlRxWANF1HRm8y3lbaO3atLTfFBnuPskyHf0zjg1ModUO/cen38Zx65qznaBTLnTJ7icSxHaM8irRtXjiAwdw61gUQ5qKQ81IwK9eKic5NQUNWlPWmggU5eTTEPXipM5pp+7QhoARzgVATk1JIaai5oAegxUm6oycUq800A7PNMY0pzmo3NUAoalLVEDRnmgCZTzVhGqslTrQSTBqXfUeaQmgB7vmm76jY0zdQA9jk1PCKhQbjVqNcUATIKeeKB0pjtQAuajY800timFsmgB1PFMJ4pN+KCifOBUTSYphc1E70AI8hJpoNRlqTdUICUtTg3FVdxzU6fdq0AM3vQG96iY80bjSAlZvlqsSd1PkJxUJzQA8NUsbc1VB5qaM80AXozwKnU1VjYVOrCgCyp4pkjUxW4qKV6AHg5prmo0eh2oAUNzUitUAqQGpAl30b6iJoyKAHvJxVdpKHNV2PNMCcS0GWq+73o3e9AFyOSnmSqaNinF/emgLBkpVk4NVi3vSq/FAiRpOaQSVAz89ab5nvSAt+bxTDLz1qsZPeo/N560wNNZKlElUEk4FTCSgCwXpN1Q+ZS7xigBjtzUZekc5NMNK4wLc09Gquzc05G4ouBOrU/fVcNTt1UIsB6d5lVN9KJKALDsDTMjFRmQUbxigB2RmkYjFM3jNIzCgCWOMEirIgGKrQseKuqeKAIWt6QW1WOTTgOKAKMkOKjSPmrEzdahRuaAJwgxTHUCn7+KiZ8mgCLI31aVwAKqMo3ZzTi+MUCJ3lApnnCoGbNMzzQBd87io2lNRbuKaWoAc0hNMLnNNLUm7mgBT0puOacTxTc0AOxxTStLuppagBaQ0ZpCaAENJmlJppNAg3Um6mk0lMCUNTw1QCnZ4oAmD9qkD1VDHNSBhSETlwe9MbB71GWFMLH1oANvzUp4700t703J9aAJC2KC3FRZ96DyOtAEitzUoaq4qQHikSTb/AJcdKKizRQMs+ItPNzaGeMfvIuRWfbaj9q0+KJG/efdbNdRIokhZG7iuL0yy8jXbiInco+6K5z3KD5qbi+h12m2oSJSetanbFQQqI41UelOeQKCSeAKbOSWshWRJFKuMqeK5zUfD0G8zWp8t+vFXZr2SRsQnvURNy4+YmrhJx2F7BPc5W/1nUNK+VwxPSpdMv9R1Ngx3Kn1rR1HS5dQyJI8FehxTdPZ9KASVDtHetXUui44VLY6KztnEIyTn3rJ1fWIdO+TOWHWugtrmO6gDRsvTp6VyWoeHZbzVGMhYx56VEbdTKacdCOx8U/aGAjhJH+7W7g3SbkUoSKl0zw/b26KojUYrcjtI4wMKMUSkug4T5Tibn+1bR/kPmJTYPE1xbuFuYmA9a71reJlwY1I+lZeoaBBcIfLA3HuKFJJlznGqrMpC6fUYx5Y+VhU+n6ZbI5cIAx+9xVe0J0t/JljwueDVyfzI/wB/bnI6kVTqEfVtTXS2QAEChrdW7VVsdSS5TBOGHUVcEq8elQ5XMpQ5HZmFqNmyZIFY7jbjPWuvuQkqletcpcAeY6j+E0DUOaOhDnipo1+Wq5POKsxH5KZmtB+cdaiduOKWV8VDnNABk96lU8VDT1NUiRzHmnKeKjY0BqYiRmqFmzSswqJmpkjs0tRAmngmgCZWxVhX4qkCanjBJpDLGc0Y4pVTilPAoAhNIBk05iM1JGAakokiGBVgGocgUokHrQBOWwKjLVG0g9aYZKYXHM1MDc0xnpgagCxu4pjNzTN9ML80BcmDcUxzSBqY5oAYW5pc8VCW5pd3FMBwPzVKGwKrqfmqXPFABnJpRTO9OFSApqJqexqImgBpqSM1GTT0NAFgNUqNVbdUitigC5u4qCR6aZOKhkk5oAmV6cWqoJKd5lAFgNTt1V1enBqAJS1MLmkLU00ADvxVdnqR6rOeaAHeZRv5qOjNAFlX4oL1XDUbqAJ99OV+Kr5p6txQArNzSBqax5pAaQA7UwNk0OeKjB5oAto1ShuKqqalDcUwJN9KHqAvRvoAnD0jvxUIakZuKAFL80BqhzzThmmBYDU7NRAU7FMQpPNOFR5pwNAC4JpcGgEU7NADCD6005zTyRUbNzQBaibFWA9ZyuRUyyGgk0EcU8sAKoLKacZSR1oAJW5NRBsGmuxzUYbmgZYL8VGzU0tTC1ADt1G6o80ZoAfuozTM0ZoAdmkJpM0maCRSaM03NJnmgCTNJRQaBhmikoFADqQ0tIaBDTTaUmm0ANPWig9aKYhRS0gpaAFNJQaSgB9NalFNagBhNJuoIpMUALuo3U2igCQGng1EKeKkQ+ik7H1ooC50pauV1QNp2qpeJkIx+aulBzUN3ax3UDRyKCCKxPXo1OSWpJaX8N1bq6uOlQ6pdlVWFT8z965Wa1u9NmLWzbo8/cpttqkl1qEccyncK541oydkdP1ZX547HYadZqsYLHJrS2RjjFV7dgIRSyXMcMZZziuiJ5852ZY8tQfu8VDc2MN0uHjBzVM65ah8eaDV6C8iniLI2afK0Zqr2OVnE/h6+Drue3PUeldZZzQ3UEcyHIZc1X1OyW/smjwPmFYPhO7eGSbT5iQ0Z+XPpQdraq0ubqjtI9o6U/NQKRjinA0jhJs0ZAqLcRS76AGXVvFcoVdc+/pXPTST6TdfOS8B7+lb8lwEXpXM67frJDs4NNM1pTs7PYh1C7SyvYbyB8rK2GA6VtxXpnwQeted3cty1sgXlQa6nQ7+P7FGznkDFDNMQtFI6V5NkLMx6CuZDs7yvj5Sav32pwNAERuT1qBTA9kWU/dpk0ZRSKpHzZqVOBUO4HFSBqoyqKw2RsnFNzikPLUhPNBjccTQGqMtQGqiWSk0wtijOaYTzTEOJNMp27ik60xCrUoqNVJqdEORQA5Y8mrUcWKVI8AVLkAUhiEYFQSNxTpJPeq7PQAoBJqZBgVAj81N5gAqShzE1HuINIZM1G0lAD2k96aH96gaSkD0ybkzPSBqiL0BqAJt9IX5qLNGaALCtTXamKaRjSGMJ5pc8Uw9acOlUAq/eqYdKhXrUwoAAKdilApakZE1RHrUz1CRQA00qmkNCmgB+acrVETSg0ATF6hdqUnioWagBwbmnB6hzk04GgCdWqVWqqrc1KrUAT5ozUYalzkUARyNVdmqw44quy0AM3UFqNuKTFADwc0tIBilpgAqVaiFSrSAQ0gpxpBUiI3qMdakc0wdaBkiipMcUiCn9qoCI0CnEc0lADlFNelBpjmgBoHNSqKhU1KG4pgTDGKGIxUW40hY0xClqN9RE0meKAJhJzTw/FVA3NSg0ASM9QmTnrQ5NQMTmgC0JKkSQVSycVIjGgkvBxTg4Peqe405WNAEzNzTM0wtzSbqAJd1NzTN1JuGaBj80ZplFAD80ZplFAD80maTOaQ0Ei5ozzSUlAEtFNzS5oAWikpaBi0hopGoENNJmg0lADe9LSd6WmIUUtIKWgANNpTSUAOFIaM0hNACUlJupM0ALgUuKbmgHmgCQUUg6UtSQB+6aKWigo3VfcainuDGR7nFRRS88dKdIqyYzzg5rA9TlM7UJNis2eK5ZJdmrwzdia6HVjvQQxnms+7sGWxifH3DXDToclVyPUoyUafKztLeVfIB7Vxvi7XmtpHhQ4x6V0+nSB7KNuuRXmvjeJ01gt/C3SvXwsVKWp4GJTWhgyapdST584nHSuk8M+KbmzukgmYvC5xyelcc3ymliLbh3r0pU4tWOGMrM+ioJVlhVgcgiuWvc6f4ojdeEmNa3hyQyaPb+ZySgqj4njAntZe6uBXjta2Pawkunc6qA/IPen5w1VrVt1vG3qop85IXikzmkrNoleUVTlu1jzk1nQ3riMrPw4qjPdrK5BbC0iStr3iBrdMJmsFNaW5XLY/Kt690lL61ZhyQK4VALa7eJugOOaaDU6WO6hZCuODVOe8aONvJyPpUthbiXLY4PFaa6OjoeKA5jhH1W4lupFkl79PStqx1aWCMruJUjpVHW/DUsM7TxKSDzVOxuPKnWOdWHOKoSOts9T38Oa20IZAynINcVco1vcAocoec10+lymSyXJpo6Ki5qdy73zSE02gmtEcVxrU3ODTs5NLtzSAVWpduaQLg1KgzQA0LTwtSBO9KFxQUKiVYRRxUSnFPEmKALLHC1Wkc+tK8vFVnkoEDNTC1ML0wtSAlVuafvqqG5p++gCfdSMciog1KW4oEMbrSZpD1ooELmjNJQaAHqeKeKiHSnr0qgJkxTX60JSN96kMaaSnYpMUMYoNPDVHS1DAmElBkqHNKTTGDPSbs0w9aUDigBCeaaTSHOaWiwCA08GmjrTwOaYA3Sq7HmrDjioGXmkAi0/HFMAwakAyKAEFSJ1oVKeq80AKOtPpNvNP28UARv0qEip3FQkUARN0poFPakAoAWgUGgUAOp6GozTlpAPbpTM0MabmgBrnimA80r0wUAThhinBuOtRCnc07AOL00tmkIpPwpiHqwPemvRj0ppU+tADaUZzTehp4yT0pgTbuKaTmhUdjwppxifoRildDsQsccUyri2u7HzCrkelIUyXFLmQcrMdCO4qZeTxU8sMdu3zVes/ssi9BmjmDlMeQNUflux4XNal7PDCThRWadViToKXMPlHCCQfw1KlvL/c4qs2rr2ApP7YO3GaOZj5C+LVzQLUg8tWa2tEDBNRHWgeKV2LkNj7Jj+PmrMGkPPjmucGrHcMvW9p2tfKBupcxXKXX0CVRnetUpdOeJuSKuvqzt0bism+vZWJwf1quYnlJfsmTneKBaMTjdmsCXU5Y3++adDrEhYfN3pcwch00Oi3EoyDSyaLdLxjNT6bq7PDyeavjUzntRzMOQwzptyn/ACzNRPbTKfmjb8q6M6ivcjFTxXdtIMPtouHIcgwYdVIpFGa7Y2NlOOgqtLoNs33DinzC5Tk88cilAyK3J/D7gZRqz5dNnhHKk1SZPKU8DHWk3H0p+3HakxjvTEC+tIx5p30pDzQSM700n2p/TimtQAylpKUUxCiigUUALmkJoppNAwLU0nNIaSgBaKKKQBRRRQA9aeKYoqTtTASilOMUUDI4r5QR82AKW41ZB+7hPzHvXO3G+4s0mjYrjg4qxY27SBS/X1rmsfRyoJGnaoZH3yGtOWAXFq0XbFZzSJBHtzzT9Nvj9oaNz8pFFjJprVEegag8Mz2FydpU/JR4q0IalatLCP3qe1T6xphlQXdtxOnNM0zXN+ILn5ZRwc96unNwd0YYmgqq5oHltxp9xbsY5I2yPar2i6JcXl7FlWWLvXqc+mWV6oby0ye4qax0yC0xsXpXY8XeJ5f1f3tS9pduLe0jTONq4rK8T/MLZM9XrfUgJ7VzWoSpeaoqYJWOuPzO7CxtK/Y6W0f/AESP2WluJxHHuJqCOTyoVBHasXUdVUt5NJmEtZDLy8VgSTgVyGteIFi/dwtlh3pNe1xbaFokPznvXJacDfXrNJllzSIO60nxHLLCI++MVV1WwabzZlHJTdx61Pp1nDAFxgMa23iQ27k4xtrRFSmrWMjQ7pfs6q33hwa66zcPj0rzKwumgvmjzxurutOusRjmmzM6T7DDNjcv51x3i7wttZbu1UY/iArr7a7jO3LfhVi4Mc0LI4DIRWZSPKZY5PIjLk5FdDpC/wCiHtzUV9bxiTZ0wa0LJEjh2jimjdvlp2JSOKjNSt0qM1sjiEAxTgabmnKMmkMeOamVcU1Fp+cUAOLYFND5pjmmgnNBRZBpCaYCcU1mNADmaoWNDNURagi4pNMY8UuaYxpWC4gPNPBqIGng0BckBp2eKYDTxQAmKMU/FGKAGYoxT8Uu2gBFXinBeKeq8U8LxVAIi8U1l5qdF4pGQ56UhlY02pzH7UeUT2oYyEUuKnEXtT/IJHSoYFUU7FTi1Oehp/2amMqYpwXirP2WpFtqAM/yST0qQW7ela0VumOlS+UoPAqwMhbUk8ipBacdK1REMdKRouOlJgY0kWO1QGKtSaPk8VWZKkDPZcGpI1zTpVwafCM0AOEfFOVOasBOOlAXmgCHZzTtnFSleaUigCrInFQFavOBiq7KKAKrLSBamIpVWgCEx0BKsFRigLQBAUpVWpilIBSAgZabtqcrSbaAK7LTQlTutCJk4xQA0AUEirTwrEuWxVV7iFT2ouVYaeegpQp9Kie/hTniqkmtIpwBRcfIaez14prLGOrisSTVd3Ic1Vk1B271Nx8h0fmQL95hTGvLZT1rmDduf4qYbk9zRcrlR3lrqEAh+UCse+1QpKcHisa0vmHy5pt4S3zdaQWLh1SQnIbFXLbXWXCs3H1rlvMzwTimb+etAWR2E99HdD5WyaitZpUc4PFczBcvE3U4rVtdQB60DsiXVbtx35rHFw7jmrN87TtnFUfImHPagZP53vSGY9c1EIXPJp62xPelcRG8xY9aFk96smyULkvViz06KVvmOaYFENnpzVmzupIpOhxW5HpVuPurUyaZGpzsFAxbScyoKfPgKc0+KEJkIMCkmiZlI70COZvSokOarwsPMGK159HknfPSnW+hGMgscmkI0NPk2RitDzvQ1SWDyUwKAxzzQBdeYBetQLdsrcVG74FQk0CN6z1FlxlvzrRXVCRXIRysrdeKux3PFAWOkTVQHAYcVeS6gnwOK4/zfepI70xv96quKx1Eul2s2WVRk1l3GguMsn6VDFrIiGZH4qKbxnDEdiDcaOYnkK8tnNAfmQ4qDFWf+Ekius+ZjmlDQzcjGDVpkuJU2g0xl561ce1I5TkVVZSDginclxIcGgA0+lxTIGAGlwaeKCOKLiI8U0ipCKaRTGRkU2pCKaaAEoozRmkAUo603IpQRSAmBozUe73o31IElFM82iquBzmmOfIdevc1LHqIjyAe9Z+mXHlvg9+DUV9Ebe9OPuPytZn1s1c1Xui/IOc0sUpU5zhhVCBskVY3AN160jJo6bTdUV08qU89s03UNKhuwZIjslHO4VgK+GGDir8eptDhXbcB+dKxhyOLvEbFdahprbXUlF71p2/iNSfmHPvUkNxDeQfOAVPrXO3k8RuDFAgwDxxVxjc56lan9tam9c+Iw58qM7S1T6fb4cTSEkt3ri1srqWbcoPy810mn61GLYwyZWVOOaGrFNxlR/dmtqOoqgEecVwHiPUXiuleJs54NS+INYJmwr81zQuPtDEyNkZpHBew2WR71zvGQavadb/Z3+RetTwpbJBnjNLLeQRL8vWtIwuZylE3YHC4aRuBUWq+IFS2MMbe3Fczc66WQRoDmqiCSUGWXO33reNNIwbuye3uMXu7gE12NjdssSn9a87+0+XcA4711Njds0QHtXNU3NEzutPussCWrdhm3wtzXC2N3tTJNdNY3BMJI9KzuUVL2386X0anwwtBHsNZq3zzapwflBrZmlAYD2qk9TSb92xETTSQVprNzmkDgmtbmAoOKmiqFQTVuNdq5pXGOLbRzURk3GiR81DmgQ4sfU05T71CzUqk0WJJyfc0oPFQk05TRYB56VCanA+WoivNUIYvWmtipQlIVBpaAQDJ7VMqEjpSJHjpVuOPjpSGQCM1KkeanEee1PWHHaiwEPl8UBKtiL2qRYAe1O4WKSxZPSpkgz2q6sAFSiIAUXHZlNbWnG2xV0AAVG5plFdYcUrRAU7eajeQ0XATYpNTxwIarLyaspnFFwHGFBTkVRTTmlH1pAK22ozilYj1qIsPWmBJgUYGaZuHrSbxnrQBZSpVI9KriZcU4TqKQi1ml7dKrfaRQbnigQkibiahMIJ6UpuBmmmcDigZVuYuOlRQLhsGrNxKpXrVRZlU5zUtAX+1NPFVjeACozfDPvQhlwEUMAR1qn9sU0huqYiz9aYQpNQNdVEbnFSImbANKgA61TNwTSfaGIoKLx200uo71RMzGk3Nnk0Byl8yLim+Ypqi90sY5NVJdUVQcUcxfIazSY74qJr2NOCRWBJqLuDzxVJ7s55apuVyHRy6lGM88U+DUBFGZn/Cubt2e4cYOQOtLqF9geSnQUFWLV9rLzzNtc4rPN5Jk/MTVHvnNIZTnHWgZca4dupNQF9z5zTd5IoKNtqR3HlsUwu3rxThHx14pdgoAjLE09ASPu0Ngfw1JG4HFMQRo4kB6VqrF5qAZrOLj8K0LGYKCNpNAFGWzVJPmbik8qIYwK0Zle5kOyHFMNhKByKCChJsBAVKkifyxwAKs/2bMfQ0HSZe4NAXK7HdySKYWBGN1aSaQp27qnj0eIfwikFzFyc9yKnSKVhlFJroI9Nt0+/ip1NtCMKKNQuc00UyjlDSRyTRH5VNdBJIjZ+Wq7Ro3O3mmFykmqToSDHUw1mXGNhpHiAPWoTECetArluPWHz8y/pVuPVoSuGUVkCMZ60mwelAXNxdRt89KlGowN3rBCj0p23HagLs3PtVu/VhQZbY/wAQrEAoKE0BdmuzQueHWmGMH7uKyRC+c7qk8ySMfeoC5ckjKc4FRrc7OCVrOubmfb1rMklmJ++aCrnUG9jA+dgKzrrWEjPyHNYIaZj87E01x70BctzanNOSNxAqs0xHfJqPYRzTSvfFAFqG6cH2rSt9UaEj5iB9axUODz0pWOKB2R2dnr+4APxWpFeW8/cE150krL3q5BevH/ERTuS4JndmBOqHrUDRlT0rGsdcOVDnIrobe7gukHIppmcoFWjtVyS0PVORVdoipIqrmbRDupjMBTyhFNKZoAiLA0xmxUpjAppjzQBXL03eQTxU/lD0pTGPSgRW3NSFmzjtVnyfammE5wBSYEG96UM2atCMDtTxGPSmIrhXPrRVoLRSuFjzuKUo4PrWwxF5p/8A00j5H0rAB6VsaWx3/UYIqT7KRXinCr15qQO79M88VSkjMN2yDoDxWnGFWMH2pGLJ4icDNSnaWGaz2utmantp/NGetBlI6DmPSJGjPO3g1H4c0+O5jMz8kmpox52klQMZFN8IyqIZIy33HIreHwnjYi/PqdCtlbxEtt4xXEeIgBdM9uuCK7S/uSkZCDk1yWpW87qW29awlIhNw0R57dpdTzE5P4mo47a5XoFroZreRCS8Lj8Ki5A/1X51n7SxjJmSkV2xKjJPtU6adeSja69a07OYC8A2jBroEaLIOzpSeM5ehDMC08OuCrsuah1W1uF+SOLAHFdnFdIuAFqcC3l+/GGqXj2w5TyufTLvfGfJNdDptvMiLmMjiu4NpbMqkoMCkMVvGBtQVjLF3ZSRz0Uc0ePkOM11OjTNgB161Eqws46Vfg8uP7oApfW0Mrtp8cV8zKBhuelR3ORMOOBxWjJOnGeopoaCTqBzV/W4lGcT7U5Y8npWoIoPQVOqQKo4Gav63ALGZEoU8ins2DWj5MR5xTTbxd6pYmAGO5+akPStOS1i6gilSyideCKtYmHcVjJJpymtM6emeopy6cnqKPrMO4rGYTTlNaZ05PUUo05MdRR9Zh3CxQHSm8ZrR+xL604WC9Sar20O4rGeEzTvszN0FaS2qJU6qi4FV7aAWMqGwfOT0q/HabR1qeRlgTc7DFRJcxSfcancQ1lA7CnKuRT8b+gzSbSOxqrliYqVEqPYc1YjQgdKVxCEYpego5zTWJp3AcCKjcimbsdaY70XADio3AxRlvSo3JwaLgKh5qcShRVJAzHinNG5ouBZa4HrULXHvUQgf3oaBvei4CPcH1qI3Bz1pzQNTfszZ6Gi4CeefWk89s9alW1PpTxZMT0NAFc3LetNNw5PU1pLpD8VJ/ZBxVXJM1Zmx1NBmf1NaY0kimNpZFFyTMMzdc0xp2Izmr72BB6VE1gfSi4FAzOepqJnYng1ofYcU+PT9xzU3Ay8vRhyehrdTTVxzU66cmOlK5Rz6IxNTrCT1zW6unovOKRrVF5xTuUYvkEnpSPat3rSuLm3iz0zWcb8SybVpXBQGizJG4ngVXlkiiJyelO1TUxbw+Uh+YiuXlvHkyC1Tc0UDZl1SOMkKRVOfUiR8jVkNIM0wvnpSL5SzJeuT941E9wcdarNknAoMTYoGSecTx2pjBnkC9c0JE4O162LK2iiQyv97HGaYIauLO14HzsPyrMljeSTc54NWZppJJCffikaJ2Ge/pQBXMCLzvyfSlCKP4akWBs5K1chsHk5zgUE3KQwei4p20staqabjqM1cjsolXlKAuc/5Mh6A09bSVu1dELeMdAKeI0A7UC5jnl06V+TyKsR6RggufpWtmNTxx7UvmJ+PamHMVY9MhA+YVdgsos8Co/PYHHFTiYrHu70iSdkihTC4zUeQxqhLcOx5ojnYkAmgDVjjQLkqKjluUDkcYFN84eWBmq7ANmkBKZ4+DxUbXuOF4qMxjFRNEeTQIe1wx/ipnmscc0wLS4I70DJwQe9P25xjpUCZBq1GQByKYiFoznmojGM1cbBqFk4oAqNHimhOasFaZjAoGR7QKXgdqeVPpTSrHtRYQgx6U7b7UBT6U45FFgFowKKKAIJkB7VRkhyelabLmmGLPagZkmCozB7VqtEPSojFikMzWjlGeOKgwR94cVslPUcVHJbIe1AGT8hPSkIIORnFXmsyCTioGVkQ5WgfMVm7U7PFOxuHIpCvtSLuLHIyc9q0bPUHiYYNZe1h06ULxyOtJKwHoGna2kiqjkZrYURXC5GM+1eXW9w0b5BNdNpmsSREAnI96q5nKB0U1qV5HIqsY6vW17FcqMsAa0E0+KUA5H4U7mbic75VNaL0rqTo0JXg1C2lRIetFx8qOb8sDoaBCxrpFsIv7maHt441/1VZOoybHOJExyu05qRLSX/AJ5mtuF034EQrViUMn3APwqfbvsSce0J/u0qW7n+H9K6K7eFP4VqKGeM9AKiWJuOxirZy8/KfyorZlmUUVH1iXYDxJau2b7ZBVJTxUkbEMK7T65mnqNuVmWfHyEVHGwaPGetWYpRd2pgbkqOKpBxFmM8EGgxkQMhUkPUttMIQyL3qSQK4qhNmKQEUhM7DQbzzkkhJHSqVvO+j688bDEUvSs3R5jBdLJnAaujuraLUZIpM8oc5pqfKeXi6XvXRvIPPCnqDzVxbKHZ8yg/Ws6GVYIFG4ZFTf2oix9RWDnE42LPpdow5QflVd9AsnT7oFRTawmfvCmHWYtoyajnRNkNk8KWxXfGFBHTFZzaX5bFCelb0OsROo5UCobrZNlkbmsKlnsQ0Y6ac2c5q3DaMoqF7p4X209b4ou7NczQiYo5O09KcIDkDFQDUQRnbzVmG9U43VLAb5Owk4qSJ+cEVZWaFj2qaNYNwyBUjRVZOM1HH97mtMpC3AIqNreJehFFhkfG0c04EH+Lj607yNwwDS/Y3x1pDJolDEc1M9uSOvFRwwupBq3tYigozTAwc88VLFA2OtTsjjtSoSp6UXYEZiZO9IGOeTU0pJ6CqjlgTxVIC2rZHWkI96qJKRTnmOKLiLYHQZp8ifu+DWctw1WRcZTrWhJGzP61FI7jufzqKSZgajabcM5pgLcyyXdk0W7muRg1K7stS2OTszj3roRcGNwazNe07zoxdQjkcmuhVG0RY7PTbkTwK45DAc1fkAVQMVwPh3xB5ZS1mODn9a7Jr2OVOtQ6klsXFlxSvep1KYrKjuBnrVuOZfWmqsjTlLoiQjoKjaFAelORxiqt3chASDVe2kieUbceUOOhqqXiN1HDnrWJc6k8lyUU557Uy7EyG3vQfunaapYmXUHGx1JtlwQGFAsQx61kPLdBA4bIPNPi1O5UY9Kv60ibGwLNEThRQtvHnpUFvqC3EBDna1QrcyRzdcrVfWuwWNBbYZPApHtBjoKmil3Ln1qct8lV7UdjMa19hR9mOelWpHUVWkvUU9aXt0gsKttg8iplVV4xVObU0CcCs19bVXwar6yg5TflnSGPcxqo2qwquQ1Zt1ex3EGAay9u5Ce1Y1MU/skM0bjxhY22Q55qhJ45tP4a5XW7NGclTWObIqmc1CxDZB2Fz43Vc7FzVA+NZ3JwMVx9wrrmqySlWyav2kgOzfxTdy8KTk1taXqN60e+YEfWud8N2qXlwruAVFdhcBBiNAAo9KLTZUEOGryiQbjhatDV3kj+Tp61jTmEIquear/a1RdqHC0KnLqbRgdBLrRijxu5rLuNellO1TgVlvL9pl2ITmq92v2Y4JrpimiuUnuLyRySXqewYwwPPJ+FZUbG4dVUcdzU19dFVEEfTFA7FW9vGnnZiapqwbJ71L5DbNzChI1A5oGQ4J6CnrCcZY4qdQvRRml8stxkmqEQqq59aeN/QcirCWjMflWrcenv1xQRcz0jLuCw6GtCX54gijFWUswOoqWO2APIzTFczI7UBueatJAverv2UDkDFIYsDpTC5U8kA1YjAXFDDAqPJzSEXQ4oLZFVgxqVDQArSH0qF3JqxjdUbxcUAVWc5pASKkZMVHzmgB6ElxTp5TjANLEvBNQPlpDQA0Nnk05JACKQoQtM8o0AaCyJgc1ICp71mjINShiKYGgFzR5eaqrK1PWZqAJWte9RtCRUolbFNMhpDIgjDtUirJ6U5Zfap1mXGMUhEOCOtFTgqTyKkCxn0oApEA9qYUU1omGM9KjNsO1AFUR5pfKAqfyytJimBAVA7UwpVjZSFcUAVtlIy1YxTWFAEAWhhUgWkYUAQlaaUHpUuKTFAEJjFMMdWMUhFA7kIWmGFXPQVYI44pApHakCZnS6f1waqNZutbuw96VEXfhhUso5tt68baiKEnJ4rq5bCGVcgc1mXOlPzsBoLMfDCpY5nU8E057eSE/MDUZ259KANO11J4eNxFdNpviEqFVn4rhiOSQc0+ORkYEN+FMix6/Y6vHMoy1aamOUV5HaatJCRh8V1ek+IdxAdxQJo7QQ9wBUE8YotL+KZBhxU0oV+Q1MzKdvCvmfdrXW3Bj64rPiASWtSNvkoJuZN3p8TE1HDYRr0FaFx161AtxFH95xWcoQJK01hGy420U641O2T+Kiofshnz6gOKmjSSVCFHNRxMpQ1paWysrA9a6D62pKwlgHE6jOGH3q0b/S/nWQg4bpTUjVbzeCOeuK3BOLq3MLD5l+7Qck5s5h7aSJPmHFU/J+fnpXTKEfKSAVnX9psyyDis7kKqU4+oUdulb1rK1vCDuOT71g2ikzBj0FapfdxWNSoc2Jqp6E8t67P14prTNs6mozGNoqUKrJt71yOR5rZSZiDUTuxq3LGMVCIwakQkcrCPAJGKsRXsy/xGoVi4x6UijBNAF83CvH8w+aqrSEHnoabklsY60kikDoaBD1l44qdJW4qlggVZiyVwOtQ0JGhFLnnOKsG5wOtZQEiHnpTmduBS5Skasc7E53Uktw+Rhqoxy44NSiUMwFJoZoW93IOCat/bnXvWOsgVqn8wMvWpGaq6njHNWE1NcZNc+xHUHmozcfLjvTGdQNRQjqKd9sjY9q5cT4A5qRbkjvSsB063SE84prSRMO1c8k8jP1rTtoZJMVaptisTtJCpxVeeRUTdnirTWXHzCuP8YamLWD7KOpraNDuTcddeJYI3xuHBqeHxVaMgDOK82Mofl25qGXOMqTWvs0Rc9Tg1eC7uAiSAk9OauwwSSziNeR3ryrSrmW3uY3LHg16t4ZuDPK8xbgCl7NAmOn0uZf4aTbttWSTHpU2ua8todikE+1cdeatc3BYo5X2o5VHYoi1Wwktbnz4OnXjtWhpevkKEmJB6Vix63Io8q5XcvqaelxbPjAFZyA7a21GKQcNWnFNkjHeuCs7gCZAD1Nd9YxK8KetJI0TuaEUpKcVlaxI0Nsx/ibpWzFCo4FUtT0qa9wF+6K29mrFHMadCwZpHGc1r3q79McD+EZqZNHmhG3FOa1lKPGw4PFY8rEM0+fzoV3HOBipZUWqNja3UELLtPBxViUThcbTmpcWBWmUx5dT0qOz1ISTbHPSi4SZoSdhrmZJJUvg3T2qoRdxHpdrJkDmrjSfIaxdHkMlujHuBVfxLqrWNssUJxLLwMdq7eXQQzUtcVLg28HzydD7VWjWWXlycms7S7Yg75jukc5YmukSFAnpXHJ6lxRVkj/AHQ+lY9/GQmRW9cELHWNduGjNQIxbe5f7UU3cVtqW2DmuaVSl8WzXR2p3xg0WkzPlM+9tHuMlBzWBdRz27bXQ4rt49sT5IBFV9QS3uR9wV0Qosr2ZxItzc/djJqSPQQz5kIVa6CQpCNqIFqjPcnGK6FSsCgWbPydPTZDj6ipXviTnJrG845oNwx4q7WNFGxbuLo7sjmqhnLyKB1NRF95we9aOlWJeTzWX5V9apFlq2hNtC0z8MOlZsvm305Cg+9auozAYiHJ71LYWoghMzjlhxQguUjAtom3viqLKWkyB+NaUkT3E3CnrVy20ZnI3cUxGJ5LyHBzipVsXPRCRXVxaXFH/Dmrgs4hH90A0hXOPi05z1GBVqOwVBnFbcsAXJIxVYrVEMqxxhe1TKKXYDRjBxigkCnFOVcClBG0VJgYBqhCAZ4oKDpUigUgHOTQBTkhPWqrqVNarLmoHgBpDM8k0BiO9WHhx2qu6Fe1AE8cueDU3UVTXrVhHyMUANdRUewE9KnIpoX5hQA/y9sNVNhD9K0mXMYHtVYx96AIGHNLtx2qUofSpBHntQBU2CneX7Va8tfSnBBTArCM0ojarQUUuKAIVQ08RVJtpRSAZ5Qo2AHpT80ZHpQAzbijpS0mKAHKxHeplfNQBacOKALBG6o2joD4p27NAEJ4ph5qwUzzURUg0ARhaay1LimsKAIsU1hUu2msKAISKTFS7aTbQBFikxUpWmkcUALFGGPWrgtVxVOJ9rVdjmyKQIja1UVA1uQ2a0RzyaCikc1mzQrQrjgipWUEVIFA9KSQDFO4zGvrYEGsWayyCQa6K59Kp+UD2pgc6yujYxwOtJ3rf+wrJniqdzpjoMotIDNyy9eKsQ3BiIOTUBikVyHU4oZR2OaAOo0rW2iYbnyPrXZ2GsRXCDLZryWNthyBWrZak8BHzY9qdyXA9U+2RLz196rz69tJWMge9c3ZavHcIFc4NayafbXS7u5pSTexk42CTVmk6zioftYPWQH8asjQrVedlO/seADgEVlKm2QZssyOWXcDRVttNiizsWis/YMZ4nDgbRVuGZoJd3Y1UtiCoJq3FEJZwM8V2H1c9UakV0GTcK0NNu1aYYOSKzRa7YzipNHiIu8+9I5JImv7h7fUGUDjrTjdiWDJ60eMCtrcwTqOHGDWGjrKFKmueo2jib6GrEgX7tXVjyg9aqWgzx7VpW5AGG7VyTZyVGVizJxjNPEh4qaRQx+XpURQVkc4kpJTIFVgSpq6hBO2lkgVhwKYyoG70u4YzTni2io9vNAClgee9SbwyZxzUBTPFSRpkbaAHgKwyaFZo2yKXy9hxTgR0oA0baSKQBHA5q42lRuoKNWCrMsnB5rVsNS2yBJK1i49QHyaU3GDTP7LkHOTWyJQ3enhhsrb2UGM5w2MwY4BqVbabH3a3eP7tPWNT/DUuhFlGB9lmbtTRZSs3SumES46Ck8pFPShYeIzCTTZWHNWI9NGcMK1gdooDqDzVqjECKCwjXHy1rW0aKAMVRWQ+tTpNt5J4rVQSEyxeKFt2fNeIeKLx7nVZTnIVsCvTPE/iOKCxeCNxvYbeO1eUyvFLKxc5YmplroZyMf5mJOa3xp2zRxcHqaih0wsu7HB6V0P2ffoRhPY0GbONXcH69K9D0K4e10HOf3j+9cUlg4fBHOa7ezh/wBFhj4wBWM9EXCJQaGa6mLSMaBZsHxW4LdRzTlhTb05rm5jblOYudOBVjjmsmSFoH+XNdzJbhlPHNYF9agOeKFIVijos8jX6Ajha9KsXOwHNcDpESpcMQK7WzchFqovUqCN6KcgYzV+G4HrWKjADir9u1b8+hfKWZ5uarrMN9E5JNVzlWoHY0AVYdKY4TuKbGxK0yXOKVwsQ3DQhenArkFtH1C+luVXMKP0x1rc1MTGFlT7xqxoliLW0jizuY8t71tTJaLemzQG2Cqu0jtTrvTbe8kWV1DEetU9Qt5LKZZY/uE8j0q7b3eYwwrexPKVbyC2sYQcAYHpWS2vWyZXd0rS1e6hnhMRILGuWfT4ky7fNWE6NwsaP9qpc5AU1DKN/TgVQS4SLjaBTZNQQ8URorqOxOkNut0rTdK17hrdYA0I4xXMT3YbAAqez1Nf9U/StlTSGkTyahsyMGoP7STafWor5dw3J0rHcnf6VSKL8t5vc+lUnlLOeeKiVJWbA709ICXwx5FUAzzNxx3p4icnJPFTCMA/dqVQo4akwJrCzE8oG3NdJJHFZ23GAcVmabL5Mf7pPm9annhmujlyQKRNyhCpnutzDdzXQLYvOi5JCjtSadpqphsc1txxADFAFG3sYogMgE1cEQA9BTtoU0tSMQDHApwQmlFPFAFWWHOaoTQ7T0rb2g1VuYuDQiTHK4NNK1YdMGmMlaokiC08LTlSpAMUyGRgYp1KaYaAFppGabuo30DEKZpphBHSpN1LuFAFRrUdhTRCQats4plAxoXAoIAPSn4pCKAHYylQ8cg1YVcx1XYYY0gHLjFFMzTsZoAWlopaYBS0UUAFFGaM0AFFGaM0ANxRTqKQCc0c0tFACgUdDTgOKDQA9DSsuaYhqZeRQBXYYplTuvNRGgBKYRT6aaAG4o2inUYoAjYUwipWFRmgBgUUKzJT+1MYc1IkSx3JU9fzqcXSntzWe3FNBI70mi0zWDh+hpHX5aowTbSM1eSQOKloq5UkgLEmhbQnFXjigVI7ldYVQdKUxhv4RU2M0YNMZlXeniUEoBn0rAurJ4mOK7EpVS5tFkBJHzUAcgUKqc8UwueMGr9/YuhLAH6VnmM+tNAXrO7aPgn8a6jTNe8vCueK4kHacZqeKcpjmrTE1c9astRjuEHzCrvytXmNhrDQOBu4rs9N1hJ1CsaVjJxN3YlFRBwR1opk8p8+Wi/u8VegYRzKaoWm4oTVtV3EEGmfWWujVW435weKt2UqJPjpWfYx5FPmYLP1xig53C5N44bz9Ot3TsawtEiOwB66CWH7fp0kchyFGVqtZW6xR7SOa56/wnm4mPLoXrZCJCBWisXORVS2TbJxzxWoijyxxzXns4HsVmjJ5qJo2FXSu2mnBXpSsSZ4+VstUwZj06UksRPSiE7eKYhJIz1pEQN2qdsEZpY4+9ICs8Qx0xSLEQd1XZITjPambfl5oAgxk0jLipgAD0pxCntTEVdmWBp4XPSpDxnijOCKQFyyuTHIqyHgdDW6u148r9a5c/fHoa0bK/8AL+Rzx0B9K2p1baMaNgD2qRCBTEO5c0qqS1diKJt2elNKk04U8DPamURFM0wxVY2UEYoGVSCorntd8SLYRmJDmStjV70WNk8mRntXkWr37X1w8h7niiSM5MTUdXlvJmLkmmaVZvf3qqOg61Sgt2nkwoJrpPCq/ZrqUuOAKhsxNy6gECxQIM7RkipZY9mmEfxNzT4EN1LJIejHg1oy2YkiAHAQc+9QByKRt9ut4vU8118cQRQFFY2n2ouvEMgH3UHFdG0PlSFTWNU1pkZX5QKAuDVgJlfek8o4rnOgiZAVz3rH1CEbCa3DCdpIrM1CFhCe5NOxLRz9pIBdbV45rr7FxsGTmuJbda3G5hW/pt9vQc0MEdSr+lW7WdlNZFtcBgN1X45UHei5qX2l3NTHaq/mjPWhpQTVc4+Vsuo5C0rycVWEoC9ajnuVVODTVRXH7KQk8gzVi3uo4kyTzXP3V8AcZ5qmb5uueK7qWiM2jotQ1eN4ymOKzBd7oSqNWHeXysNoPNRQXowUDc1qSWnuCsp+Y9fWpUuVPDGsGe5JnOD3qRJzkVQye9K5+Ws9tw71bkLSMMjihrPKfeoAqB224xTSr+Zx96r0UCjbxk05oxnI4oJCKVwoWXpVtdPt5xu6mqJIY+tSwtP/AMswRQO46fTjCpGeKpiMjhRzWpsmm++eKnhtUQgkc0ybmWlnLJ7Vbg03B+fmtTywo6U5FyeKCRbe2SNRgc1o29pvKn+GltLZZDz0rXSNUjVVFJsdiOKEIvFLsINWAgApGXioKK5xSYpSDmlAoGCrTwtAp4OKAGjg0yZdy09iM004IoQjLmXBqLFWbrAJqrux1rREsU4FITTd2aOtMkM5oIzRijNMRGUpu2paaaAI8GkwakpMUAM2mnBKdmlzQA3GKDigsKQnigZIn3cVXmGDUkZ5pZ1yuaQFMtT1fjrUbCkTrQBZzS5qMGlBpgSZpc0yjNADs0ZpKKAFzRmkooAdRTc0ZpAOozTc0ZoAeWxSbs1EzUitzQBMDg1Mj1WzSqxyKALcnTNV2PNTMwKjFV2oAM0mabmgmgB1GabmloARjUZp7VGaADpTW60oOTR2pEojIzUeMcVNnjFMZeaCxinmrEU21gKq52mlU5OaloLmsrhhnNPzzWYsxXAzVmOcZOTSaHctdKKYsikdacGU1JoLTcZNLmkzQBXuLdJAeOawL7TGB3R10rEVGyqwxihAcS0LRkhhzURyO+a6a8slcthawp7RoT7etUgIFY561sWGoNARk1j+VjkNS7sDr0pgeg6drYZQrv7UVw9tdshHNFMzcTm7M/IRVteBiqNm+Uq+oxg0z6joWYJzHxTZHMjc0keCaeQAKBWNDTJ8OV59KfIjJckY4qtYgiZfc1oXPF0Aawr/AAnBj4e5zEsIZGzjrWjEzEdKpKNwBBq3ExFeczxmTu3FRBscVK4DLxTFjoIK5PJpiR7jkCrghB4pY4gDQBD5fHShV5q0cHik2AUDIuelOUClYGkC45pANdB2FQEYNWgDnmmSR0CISARUMi45qwEOcUhjzxQBUzRuNWfIFNMIFAGrpV6ZB5bnkVre4rko2MMwZTyK6m1lE0CsPSuyjUvoNE2acHPrTCKBXQMm3GhmxzSDpUNw2yMmgZxHjTUN0ht0boOa4HaWmwB1rotbc3E7zd2PFR6FpUt5qMbFf3adeKkybL1lovkab5xX5sVLa2htbYy4+Z662eJVjEWBtxWasPnvs/hWsZElrR4UFrgjmpb+VILVlBwR3p6vFawcdqzJt1/P5Scgnk0wHeHIsSPdMD854roLhA0gb0FFjYx2sKxKOlWmgDE1Uqd0bwRTAANOI4xTzAV60u3FcTjY1RX6KRVSZA9WnP3qzp5/KBNZvUZh6pAgLZxmsywleCfG35Sat3M7XU7KQcCr9ppDzhCy7Vx1qZSsTClKWxoW02Yshs1oJISgyKLTTI7dOTmrJ2oPlUVjKodtPDtfEMUtxk8VIZFQdarSSnHFVGkbPWp52zpVJLYtvdnPWq8lwSDk1TllIPWojKD3pxT3HYo3twyzEnpUMt6WjGzip7y2eYbkGfWq0VkcfOeBXt4efPE8+tCxXLFgeCTSwxyscqMVd2RRqQoy1IsoXnge1dDMLD4bNZI9z9akjswrZC/Sp7UtNxGhJq9Dpd3K/wA/C+lUkJySKhiQJucjPaoHlQYC5NdCnh4tzI34U8aBHH82M07IjnOchhlk+6vBqU6ZcOeeldTBZovATpVk2vtxTsibs5aPRgvPWraWSpxit77MvpUbwhe1S0K5kmzAGRUbRba1GA6VWkj9qLFXKJbbxUluDJIBRJH3qSD90Q2KTKijWiKxrjNWY5lHcGsWS9ROSQPrUSazbh8MwrJsux1SurCkciuafxHaQj/WVVk8WWx6PRcfKdNIwXvSI6muLm8WxE/KWJqE+L3T7opBZne5pSwrhP8AhN2A5QZqJvHL/wDPMUh8rO8YjPWoTMB3rhm8ayGP7vJqFvF8hXGOTRcXKzuJZFYdKovtzwBXHnxPKRzimp4lkLfdP51aZLiddkLzTkkBI5rlhrpdeWGaI9adWHORV3JsdfuBHGDTGPHpWHDr8R4brVxNSjlHBp3Cxczz1pDg96qm6TpuFOScHuKCbFigmmhwe9LkZpiHCnEU0GnEikMjI5o2mlzTwRigRGBzUjcpioyKenIplFKUYNRZIq1cAjkCqbMfSgCYNxT1aq+acrUxFoHikJ5pitQTQBIGo3Cos0uaAJc0ZqPNLk0ABbmlBpnenLQA+lxQKWgCEjmjpUhphoAA1LuqM0nNICyjE0SdKbFTpBxQBCOtOJpo60tADhS5pvamk0AOJFNNJmloAZRSmkpANNIadSEUAQEc0lSFaaRQMbRkjvRSd6AJQ5A6ml89h0JphximUBcmF3IPSl+2N3FQGm0rILsnN256Cmm5kPfFRZpKdguwkd2/iNUpkLKc81bao2oC5jNEyZphTPNa0sQde1Z00DIeKQ0yqODRUmMUUFXOesjxWooyBWPYcitqFcrTPo4bCQ5DmpypOKaFC1YjXdgUFEtqCjCtS7Qt5UuO3NVIY1Xk9a1/JE+n8dUqKsbwOXFLmgV4dxAI6VfjjbaCMVVhHyVfi+YLivMaPCYOCBinBMpTnTKg0gOPlpEEeSr4pVzzmn7T1p4UNxSAiAPWnINxp4UYxQE2nNACkDpimmMU40uTigCPbxTSNwqQjNAGKLCKxWkKmlncRvmpY8SJkUWAjCZFRywnGRSuWSTHapGJMVAGfIMY5rT0a72SeUx+U1QmXHOKgikMVyrAcZqoS5ZXA7Yjiom4pbaUTW6sPTmhhzXoJ3RQB+KqajJ/objvVnb0qnqK/wCiv9KAOBuIvMvNuOldnoVkltaJ8vzNyax9KsDcSmaQd66YFYE44x0qUQ1djL2NCPSsh3ERIQVqvHLcH2pRpY2/MKThcVjGVJbr5BnFbmmaWtsAxGSasW9okS8CrMZK9qtRSLjEkCjd0pwAzRnmloZohrIGqCSDauas5qC7uAF2g81hW5VG7NYRctjOmQEZBrLuYDIMVeZiCc1XkmAry3UOqFDuQQadbw4Z8bqurNGgx2qg1wuOaqyTnPXis22zqjGMdjZ+2IG61E96MnFYxnNJ5mRnNTYo0TcD1qJrhcVn+aScClCMW5quXsMnkbf0pyQblphdY+tMN+uNqda1VOT2Jcorcu7FSBuR0rKMwDsOatQRTXGSTgVYjsF38rmvUwsHBHn4iqnsZbLJKSUXFLDpzSuC5OM1vLAkY2gCgxhDmuw5UyzpcaQ4BFdBEy4xXPQvt5xWpBcZUetMhmmmCeakdRsNVEm5qZpPlqibkYXDVKKiBqRDk4pgLtU1DNGcGnSsI/mJ4rNutZggBDPSYrDZNwfpUMssa8scVzupeKVIIiUg+1c7NqV3dkndJiok7G0aTex2z6raRZ+Zcis+58QxEEIQa5ZIJZurNmpPsMi+9ZcxtGk0WLjWWlckElTWbNdTTOdmcVoQ6Zu5I4qytlFH/DSNFE58icnufelWGQjvmugaCLoB+FLHZjg7cCpuPlOeNrMTxmniymI4zmul+zxqOgzTSUX+Gi5XszmzZzjqM0CxlPQEV0BZj91M0m1z1TFFw5DBOnS0w2E+etdIsBfjFSiwU9aLi5DlWspQO9NFtN0AP5V1ws4wPu0jQIo4UCjmFyHLC2lUcA00+enUHFdR5Qx90VE9qHPIAp3E4M5pZ2Vs8j61bj1KSMDFacmmI38NU5tKwOKd2TyD49WLcucVZj1YAcHNZDaZLnjNRNbzRetPmZnyHV2+qq2Mtg1pRXyv6VwAlkTrmrkGqNHgE1SmQ4HepMrdDUu6uVtNZR8AnBrXivww+8DTUiXE0s0oNVFuVbvU6OD3qiSRqch4oPK0gIpjHyIGWqMiYrURQyVVniAJoAziKBUjLio6YiRWpd1Rg06gB2admowRTxQA6lFIKWgB1KKbmnDNADhRSgUuKAGGm4qTFJigBm2k21LikNIBYhUsi8U2Ec1M44oAqbeaRhzUpGKa1ADO1NIp9LigCLFLTiBTTQAlJS0UgG0lOpKAIzTSKdRQMjIpAOal20m3FADSAR0pm2pKaRQSMIxTc08gc0w4oAaTRS0lACEcUw0+k460ARlKikhDD3qwTTCaAMy4gPPy4orRZQUwRmigq5wdoADkVqQHDVQtAOK1I1A5qj6gsIu41Oq44qKAc1dRMgmgAQng1qWFztDIe9ZbEIKs2Q3TqKGuhnUV4l+EjzGHvVpJFjOKp7Ck5PrVvywRk9a8uasz5+pHllYso+6nFO9VVJQ1ZjkDDBrIyG05TtNOZD1FMHXmgLFgw5Gaj2n7tSpJuWgg9aYEaxjODT/KHSmkEHNPVs0AV2UqcdqQDIqxIVpgCkn0qQKdzAJFINUI5ntZdpPy+tbDgZ9aw7mFkvfm5jk/8dpoRtx7LlMr1qBvkbYaqWdwbWcQsfofWtG9h82LfF96tbXEU5Y9wyO3aqci9wKfFc7HMc/DU+VSAGHQ1DjbYRs6JNuh2elazDJrmNLufLuNvQE10qkk8V10neJSGMKqagP9Df6VfIzVPU8LZufatBmVbzxWNpudgD1qtZag2p3xROYgetcZqeqT3l4LeNjjO3iu/wDC+k/YbFWfln5p2EbsUW0CpsUDPpSngZNMqwBM1IsYqsbuJONw/OoJdXhiB+YUyrGgVzUbOsZyWGK5e+8SMCQhrKbWJpskuRSsWkdPe6rgOIu1UPt3mICTzXPvqLNn5sVDb3h8wo7cHpXJiqXNG5vh3yuxvyXPvVOSck9areaD0NITnpXmWsegOeQ0wvxSEGlAGKaiA1Az5xUqgIPnNLEjuDspklpM33s100sO2ZTrxQomjU9Ka7SSnKA1Zt7DIBIzV+KzHRVNdkcLFHHPENmSlnJMfnJNatnpCdSK07exC4LCrojAGFGK6I00jnlUkyktmqDAFKbdQMgVcKmmkcVoQZ7xc0zZzzVp15qPZQBCSBU0T8jmomTmpIl5pgacJq2WHHaqURwuKqXusxWpK5DN/Ki4WNfeF78Cs3UNetbMcSbn9K5LUdfmuGKRvj2rKRWdi87Ek1EqvY1hQctWbt/4oluoz5Y2D+7XPSXFzdzZcZFSFVZs9qnjTcP3S1k6h0xoqJUW1TO5+T6VZSIHoMCphAAfnPNSbVAwn51Llc2jAYiBBhetSpGc5PJpUjAHqalUBetK47DHLAYUY96h8uV2xnNWyQwwKVCsVAco2K2Cjkc0rkJ3pskjycJ0pEgkY/MOKA5RhZP4VNCBmP3MVeWFF5wKep4xgClcLFXycYNSRxx5GakdN3ShIhTuFh22Af6sU4An+ClEWDUqq56cUCK0kcg6YApi27P97OKu7Ej5kOaeJAfuDimBTSzQc8mkeBOgXJq63mHhMYoS3bOT1oAz/s0nXAFVZrTJyz8+lbzx8be9QfZYmPJ+YUEMxvschXt+VRPYsR8y5/Cug+zHPHSgwN0xVEWOak0dZEJ281j3WlvEcKprvfIwORVeSKLPKbj9KBcp5/te3cAqatwXpBwzEV0Vzppm5EWKx7nSZFY4XFUmQ4XLFtqeGC7srWol6MAhuK5J4pIGNSwXrKdrmrTMpQO7trkSADNWBiuQtNSKOOeK3ob0SRgg1VzNxNiF/mxT5Y8gmqMMu4g5rRDBo6BGbJGTVV0INaEmckCqzrntQMrDINSAFuKds9qlRAKAIwgB6U8Lmpdoo2mmIYFxSkUEEGnrjFADB1p4pMc04CgBaKXbRtoAbRS4pDSEIaY1PNNI4oAlgGTUz8Co7cVJMcCgogY1HmnZplACE0maKBTJCkxTwtLtoAZSEVKVpu2gCLBpCDUu2m7aQDcUuDTgtPC0CI9tJipsUhFAFYrzTCKslKYVoArFaYVqyUphWgCsc00k1OUphSgCE0lSFabigBtFFFACYopaKAOLtkA5rQjFU4R0q/EAao+qJ4htq3kiMYqFRwKlBycUARuxK81NbzeXIPQ01kBGKiIKYpCOhkOHR+2KnSQGqcJ86yVs8jinxAjivOrK0zw8XC1Rl3AanLHjkU1VyowamjUnisTkJEcbcGmFQTUnlUx0K0APRAMVMQOKhTIApzbuKBCsF6UwDB4obPFPUGgCJwenamBWHFW2TOOKjKc80hjCoIqtPAHTDD8avheKikHHNUhGZPYG4h6/vV5Q+tTaTctcRGKTiVDtYVYVtrDnFZt+r6dqUN5D/qpOJAK2grCLt5pyXPB4cdDWQryJO1rNw6+vet57qJvLYEDd71U1m086BbpB+9j54/iFOUbkFeFPLnVvSurh+aJSPSuSgl8+BZB+NdTpb+ZaAHqKqjo7FImIrG8TSm30eQ9M1vFcZNYXiiL7VpLRAc1uyjgvCelm/wBW851yinNerhEjQdlA4FcV4aRdJhbcfnNaV1rBY/fxVjjG5uz38UI6isW91okEIcfSsma+Mh61WklBSg0SsPk1KQsTk1A92z/ePNVGfD57Uwtk0DFl5Y81AZSvFSGgQg/MfyoAi3Fj0NGxz8w49KnXAGAPrTtobrRYd7E1rmUcmrRVY161TjjlV8qDg1ZjtZG+90NcUsJeR0xxKURjTbuFFSwRsSC/SrcVkBztq9DaA9RW8cPGCMJ4hyC0t0GMdKutCh4xRFb7QKsBVxW3IYOTZHHDEi81Km0H5RUchXpUkQAGRVWETrnvT80wNThTAGNMJ4pXIpmaQEL/AHqaRxTn+9RgY5oAiPFQzXMVsm92wKh1G/jtEIJGe1cjeX0t3IWJO30qHOxtThc1tQ8SSSZit+B0zWMXkc5Zic9SagVfmq1GrH5cVi5HXGkkKgUtkdacSzcAcVIEVThRzUkcBzuJ4qLmyjYZFbeZy/A9KtDbGuxOtMMmW2r0qRAE5b8qB2ESPHL04ZY4UcUp+fk8CgyqBtQc0hjh8tJuDnrjFNCMfvGpVjGM4pkjd6rwozTG3seelSHj0pAxzjFSOxJEGXoMirADN1bAqsA/Y4FBJH8VGoWLR2r3zSKrufaoo2f+7UwEn97FFxEvk4Xk4oCpn71N8snG96njjgHvTuABkXgUbieh4qUpH0xxSBFB+UZqkQRggHoWqVQSfu4FPXP90VIFb8KYDQCD8oxSkyEc0EZPDU4ZA9aYEbqWAp6R47UgVmY8U7Yw6tiggeCgHangqR8opqhB71YXbt+QUwZAYdw75qPykTtzVkhiKQQgnJ5NAFYqpX7vNVJbdG/h5rVkRVH3arFP3nSgRz91pIdSwUA/SsG40gxsWxz9K71o91VLi2DHt+VNMlxTPPWgmiy3arlpeOkWCT1rfubBS5G3ArGmsGUkrwKtSIlTNaz1DcyjNb0E25eK4FTLbyqSDjNdHZ6iAq+tNMxlA6BhjmoiAe1Ks6yKD60p9qszIiKTFSYzSFaAHwhSeamePj5ar52nirETE0xFYqQeaTFWZQMVUY4NAEgqQVAGqRWoAlpKbupQaAEIpp61IelRnrSENpcZpKcKAJI/lFNkfNK3C1ACS1BQ/FJt4qTHFJjigCAjmlApxHNLimSAFOpMUtAARSYp1FADcUm2n0EUAMAp2KTvS5pCENJSk03mgBcUwgU/FMNADCKYRUhFNxQBGUppSpsUhFAFYpTGSrRUUxloAplKbirDLzUZFAEVFOooA5SFMEVdjAFQotTopqz6wkDVKrr61WpOaBMtBxk5NNLgtioOeop8S7yKkDZsGLxsidBUykqcGm2Ef2dzu6MKnljBkytcVde8eLjP4lyZH+QVYSXGDVaOP5BzVhY+BXOcRbSTdTn5qOJKmXHQ0AIpyKlC0xQN+BUqnrTENZKWNBQzVGZCr0AW/LGOKrSrz0qRLgUjyAmpsA1Rnio5ojjNTrtPNOfBWiwGXNHiPd0IqGeNdS0xkHOR+tXW27Sh5Fc/Y3otNUksmOAx3JzW9Myk7HPTaxJFPFC5OY3213tjILm0HfctedeIrJovESBF+VjuFeg6R+4tU3DnFaKJMTMVDbXstvjC53KPaum0+WOKz3bgMmsS+2NeLKp5xg1BLdGKMqhq4xszZROgudWhVcA4rHu9R82Nh1Fc6147uecipFnOMdq1saJE8k3pVQuT1NJJKKiDg96LDRI7FR+FRb2bjNSJF5uRuqVIljbDDPFAFby2aneR6mrpj3DgUxrdz0oArlQq4pmMjAFXFtD/ABVYjtl6YpmdyhHbM3bFXobMDqKuRwgdqsLGOwqhXK8VsCemKvR2mQOKkig6Zq6iBVpiKyW2KlWLbUwpCaAGscCot/NPc8VXyM0APzT0YCoSwxSCSkMuBs1IG4qmslSh6AJCSTSZozRQBG/GM1najqsVnHyefSmazq6WkZVDlq4q5upbyfe5PsKzlOxvSp8xPdXkl3KXcnHaowMgBe9EUWetThMn0ArnlK52wp2Fjiq0pVBjvUYOBgdakjiOdzVFzTlHKO4p4jZuaU4Wjcx4FMYhXHTrTc5PXJ96nWAkZJpRAvrzSEMCEj5mpyhF6c1KtuSKekap1FIYwEnotLtlI4HFTFhngUoJxzQIqlGzzUiYHapCw7CkHNAxCw7UbS3TFP8ALTuaeqIOhoAVIj61MsQPehR7VMi0yRnkLU0dsAKULT1LelAC+WBShCT0pQsh7U8LLVIgYRs7VEZieMGrYR2+8Ka0agdKpAVRI2OlOG8sPSphCDxVlbbgUwIs4Ap2zcetStCKQIA2KYhuxV6CnDPann0xQFpEjTuBpd2eO9OYYpFQA5NMYjAkc1Djc2Kndu1NVMHNAhVhFRTQAVZUE80jgMcUAZbRA54qhPYggnr9a3zEBUbwArQK5x95Zg9F5rKaOWBwecV21xaKQeKxru1wCMVSYnFMq2epEBVkJ/wrbW6Q7fm6iuUmgePBT161Na3TrKFyfcVSkc8oWOsVsilOao290HAHf1q+PujNWZMAOKmjwBUVLTEEzZ6VXOamPNGBigCAU9aXbzSgUhDhTxjFMFOzxQAhbnim5wacuOppDwaBjTT0BNKq7jTnYJwKAGGkA5o60opgSgcUhWgMKdmgCPbRtqXFGBTERYpKkK0m2gCOkqTbSbaBDOaSnkYppoASg0UGpAQ0lKaSgB2eKY1ITSdaZIlGKdilAoAaVppWpTTTQBHSYp5ptAyFlqu45q2/Sq7igCviin0UAc1GKtpjvVWIH0q3EpJ6VZ9YIVFMZRVwW5YU02jUCZT+6PY1JDknC/hVhLF24HPtWtptnBG258bh2qZaGdSooK5IYjFbRHHzU9WDJ71ZuXRsAVVEZBrz6suZngVp80rj4S2cGrka8VVjU5zVmNiKyMy3CuKUriSlgcHrUjlS1ADQuDup6inDDLig4HFMQ0pTRFnmpc5p6elAFfy/ak2irZT5eKh8vJpgRDIp7Llak8sU1nROtOwFKZDXJa5p0/8AaMVzDkEEA12STwmfZJjBqDVbTaRIgzHW8IdSXA56WOO48qSbBkX1q1/aG3bGegqndgE8cY6VRZyH5PNbWKUbGpNcFs81XeQFSD0qk0px3pysWXb3NUirEMhAfjpTd7bwOcVP5P8Ae6U/y1yAtMBhty8ec05YUVMd6tW9vIz4I4q+ml7nBPSgDLhhboqk1dhsJZeSMVs29ikag4q4kYQYApAUrLTYygLjmm6jarE4CrgVoW7N55XGBUl9ErwknqKaJZzix5PSp1QAdKkCBT0qQKDTIEjQEdKnVQB0pUXC0p+7TGPVhUquKp7sGnCTFMC+pFIwBNVY5DU6vQAyVeKqHINXnIK1Tfg0AQMxpoJzTmGTSovNAEiZqUEilROKcVpDHFs4JIxWVq+rR2cRXPzHpipdQvUs4GYsM1wtxcSXcxdyTWc52N6VLm1YtxO9zIWZs0scffFNjj4qZTjiuZts74x5VZEsY4qTrxTU6U9Rk1JaHIp3VaUHbUaLVhRQUMSNjy1TLgcAUqqW68VPHFntSAh2ueB0qaOIAe9WFTHGKcIuetMZGqZ707y0A55qQLx0pApz0qRCARj+GmOAegqU4FMI96BWItlACjrTyB600rQAuFqVMDtUSKc9KsKh9KBEsYB7VYVAe1ESYxxVlVA7VRJEFA7U9RjotSYHoKUCgBnzClG7vUirT/LBqkQRYPY0mw96mEQU04KtUBFEgBqbdxgUoAzgCnbMJTAhY5NAWn7KAMGgAwB2prLxmpNvHNNPJxQIao9aa3BxTsEGnCPPzEUCG+XkZpypnin5AWmhsUEkhUBcCoNhDZqUNnrTzytAEBppXNOxmlwelAFZ4h3qhc227PFbBj7moJVGDTA5aey7beKz5rAoC0Z5rqZYcg1nzxbOo49aExNXOetp5Ld8HJ55zW3FqOQozk1UubdXTKLz3qrbHy5cE81rGRhKmdEk5fnFSgnFV7d0YCrXFWYWGZNKM45pxZaazjtQAUopoNOFIQ4CnY4oUU/bxQBAeuBSE54qUJzThD3oGMVtq81Hks+TTpBk8UqrmgBQM0u2nqMcU7bmmBDQCakKc04JQAwPRupxSk2UCANRmjYaNppgBppNO5pjCgBpNJmg5ppoELQaTNFSAGkpTSUANxk04LTgM08LTJGYoxUm2mkUARmmkVIRSYoAiNNNSlRTCBQMhPK1XbLVPJmmEcUAQ7aKmxRQBnppoHapltAp6VZWUU7fk1ufWEBj29qVVzVgLvpkgEVSyZSSETbGOaqyzYmytQzXW5yF6VDDuMuc5zXJVqdDysTiL6I0YHJPNaKruUVnRJtOa0Ym+UVyM89u4bMVIg4pQKlUDZSJFj4OKnKHGahVec1ZXLJmoaAI+tDo2c5oQc1MeVqhkauDUqYY1XAUE5qRZUSqSAuDHl4qlJIqZ+YcVUutUCOVFYt1fscnJrWNFsDYk1EDgGsm7v2YnDVmG5Zj1NMkclc10RgkUStfHGcnNbemaqlzD5E556DNcpIxPbmpI2ZGRlyGFX6AbWq2hhJZeVNYbRSOcgV11r5eo2gjc/OBWNcWj287R44oAzo4wrfPU5WN+VFWl09pscGtS10c4BIpCMaK2llOCOK0bfTBkFhWzFZLF1WrIiUjpipAoxWkaDhQasrH/s1ZWMDoKlWPPakMrrGPSpkj9qnEXtUioBTEZ0ibJ1NOuF3RN9Kfcp+9WnyJ+4arRLMQpinquOalKUu35asghwaQ1LtppFICqw5NNqYrTCtMYqyYFSLLUDLgUg+7SGWxLkdaa5BqFM080AJipE2ge9Rk9qbk5oHe5cEqhar3V4kMLMxximM4VCxPSuU1vUWmk8mM/L3qW7I0hC7K2qag99MQp+QGqiJgU2MYqccVyylc74Q5RVzjFSYwKQdM09RuqDWw+MZq0i8VHHHVlV4pFDlWpUWmgVItAEyLU6ioFaplagCWnAGmg04GgY/oKaaM0maBCGm4pxpKAIwOaeFFNHWpBQSPUCpVqNakWgC0nSp16VXQ1MDTJJBThjFRg08GgCROtS1CDTwc1ZI8DNKVHpTkFDCgABAHSmuwNOVT3pfLBNMkiTk1LtxzTgqgcUwqSc54piHYU9M0xgqmpN+0YC5pnU5IpiECbuacw4xkUZzwBS7PxoAhK5pRHVkxjHSmGOgREFpwU+tSbMUY9qQESrzzTxGOop+M9qcoPpTsBAyk1A6VekFVivNFgM6YVRmQEGtadAOgqm8O4GgRjyINpFZ0kHzkrW1cQlaplcZOKYrFOGUxnEj4A6VpwXIl4yKyLmEtkqpqC3maF9rHbzVJmUonULFkZzSFQveqlvdbk61Nv3d60MiQZNPGKh346VIpzQRYnAOKlHTBqJWPSplXIyaAFVAOaHbAxTXkA4FRb9xoAawyaegxSgZp2MGgB2KVTTCakjQtTEBqSOPNP2KvJqOSYDhaAJfJXuaTbEKreYx6mjd60CJi0Y7U3zE9KjLCm5oAlOw00+X7VASPWmEj1pDJn8vNQ4T1pjEetN49aBE4jj/vUvlL2NV8gd6cH96AJTCe1N8h/SnpKRUyyk9qAIhGV60uas4DilFvxmmIq001PJHioMEGgBrdKjNSt0qM0CGmo2qU1E1ADDUTVKRUbDmgY2ilxRQBWJpyAmmKd3SpVG3k1ufVylyxHhigz3rOu53LEZq7IwZeKrtAJQfWsqm2h5OJrX0RQiUM2KtRxsrg44qHymhcqRz61Yhk7M1eczzm7mgVHlA1NC3AFVhIDDxxSRS5OM1DJNQEGpQRtFUFk96lEvHNIC5uA6VYib5az0kDVKk2KpRAvqozmo5Jljzk1nT3+zoaoS3hkPJraFIovXF+sZ4NUm1LceDWfdMWGc1R3la2jBAakk3mfNmq0zhxgVAspPy5pXUgjFWkUQklXwBUsYZ2xUyQAuC1SsixtlaoCE22SDjipBCnAqZRJKMKK0LbSydrPSJuR6dDMk4aPOK230/z3DuvNXLKOCEKMCtNRE3AxQFzIhsRERxV1YlC0+YYPFNDcUguRug9KYEHpU5FNxSC4wJUyrUZNPRsUh3J1Q4p3lnPSlidTU+9AM8UxXM+eLMgOKiuGCx4qeeYFsiqEzlz+NaozK5ApMZHWlbmmdMUwAimMKlI4phFICuwphFTlaZjmgY1YHkHSj7I6jpWjbuoWpJHQrSGZSrtPNOxkdKkYAvUhZFTGKAKYGOtIoBbBpznk1BLL5MRc9qCylq10ttGcHntXHNIZJWf1NXNTvGu5zgnANV41G2uabudlGGlwjGBzUyjNMVct7VMBzWJ1JCquTirCKBgYpqADk1Og5zQWWEAxUlQqalBpCFpy0gFSqtADlWplFNFPBoAkUU8VGGpQ1Ax2aM0lFAgooooAaKkFMFPFBJIvSpBUa1IKAJkNTA1XU1MDxTJHg1Kp4qEVIvSgCVeakAxTY6lxVkj0NK3WowacOTQA/nHNGRmnHOKYBzTJFzijaXPBoC1KoyMUxDMe9G3dUoiWn+XgcUzO5GiAVKFXuKRQQelSort2phzEJFNAqwy44xQkee1VYLlcn2pmMnrVp4iKQRA80co7kAXnrT8ACnOnpTdposFyNuaYcGpH4GMUxVOelKwXIZI89qrPHtFX354qtItSNGXcKT2qhJHtHNa8yA1RliOKYWMxgMGse/gydyZrflj2DpWbPlcnbQS1co2d0YiFY81swymUZ6VgyRAPkdav2Mu87CcVSZlKJqK2DVqLL/dFRxrGuCTmrCzDGFGK0MmWFVYxljzSNLuGBUG7PU5ozmglick09VoApwoELnFNLYqTFJszQAxWJNW1cKtQpCRTZQy0CHtKWNM71CJADinF6YEhNGaj3ZpDmgQ4tTS2aaVNJtOaAENMJ96kIqNutIY0nmkpeM05cGgQzBpwBqUKKlWMGgCFSRUquakEVKI+aAHo5FTCbtTDHxTCuKYifIcVDJHQGK0/duFAFRhUZqaQYJqE0CENRMKlNMYUARmozUpFRnrQMMcUUjbl+lFAFSNfLJJOKq3N3k7Qear3V6cHnFZokZ3zVNnuV62hvW8mU+apN3zjFZ8UpEYq2kmSKk82epdKrKmGFUpbdo3ynStFFyoNO8s55GQaxlBMwM9pPkxjmmpkHNaM1iNu5RUIg2jkVzypNbCFjVmwanxxg8VZsYAQWbpVW/cCQhO1VCl3HyjWlVBgHmonlY45rPecgnJo+0ZxXTGCQBPIwP/ANeo1kPp+tEx8xc5qrH5jPhaqw7lmUlhxVdAS+MVcg2jh6c6puytFguRpEMgmrDbQuKjG5+FWrlvZFyC2aaE2QRRtJwoq/Bphfl6vw2qRAYAqZpAoxjFMm5DDaRxdqnMgUcVA8h9arSSntVEl5bnB61ZjvD61iqSTVyHqKANJrpuMmpEuVIqqdpUVEzY6GpaGjUWdT3p3mJjrWMHbPWlaZx3pNDNUso71G1wq96zzK+OtQO7E9anlGajX4UcGoTqRPGazGzjrQF4quUDVFxvHWlLA1moWBxVlGOKdiGTNimcU0k03mmIeGzS1EODSluaChWOBUZOTSyHvSIpJHvSGTxKSKSUMp68VaGIkHFVJ5d59qLDIzTGPrSrktgc1OtvvHzDipLKZrC1688qLYDy3FdRMkcNvIf4q8/1ecz3pGchaylI3pQuygOalAwKaq96lQZ5rGTO+KsPjGBUy1EtSLUGhKvWp16VXXrU46UASLUy1CtTLQIlBp4PFQ5pwagCUGnqaiU1ItAEmaM0lLQA4GgmminGgB6tQxqMU4c0APXpTxSAU4CgQ9aeKaKd2oJFU81OhquOtTp0piJ1qRahBp4NMRMhqXNQA08GqJJQaeDUINPBoAsZ4poxjFNJ4p0a96aJY5VJ4qykeKjHyjNSJJkc0yBwjJOasIgHamQqCc4J9qvomBuxz6VaRlIqsg4IGPapI0OMAVa8ovzgCn+UNuM81pYi5R+zMTnFOC7BjbVwjb0OaikViKB8xRkGeM01YyvNWfLx2pjLSHzFdl4qInFTy9OKjRAT81SNEDDcaeo2j1qd1XHyiq5yDSLQxh1NV3qyR61EwANSUVGQHrVaZABwKvstVpR1pAYsykkn0rLuYmfJ7V0DRE5zVS4txsOKAZz4jXv1qlIXikypxWo6hJCMVBPb7kLYpktXLFhctJgMa1lWuZtXMUw5rpYZN8YNaI5pRH4PrQCR1pwGaXAqzMkTpT6jU4oLUCHlsVJEc1WLVLEeKALysCKgulyDQj81JIu5KAMnHz1Njih0w9KKACilxRimAlFLijFACVG/SpMUxxxQBB3qaNaZt5qeNaQiRUqdI6WOOpguBVANCUeXzTjmgGgBpGKaacTmmmgkjahWxSN1ptAEkihl4qq8ZWpkk55p0nzCkMpmkp7IQaYRQA1sVERUpFMIoAibcR87UU40UAcfZK1wcuc1sR6apHAArI0zCEEHNdRbIZEzmkdc5Nq7Kv2LYg4qWKHHarrsBHjiqrXBXgAUWMW7lyDATBqZJEzis1JieM0SSNHzmpJNOWdV4zWfPcgnFUZLts1Cshkcc02gOitpwlmcnmseebc55p80xhtcZ7Vliff1qgHy4JyppihscjNPIG3OKfEwBwaAHQgEHeaYY9kmRnB96dsLHGOO1SwW7O/zgYHSqsK4xYnc8CrcNg7YOKvW0SgcrV5NiUWJuVIbIIBkVYCheKmMqmoXYZ60CH59DUcj+tMMjZ4phyT60wAtmm7c0uOaeoxQAJHUyjAzTc4ppftQBKJe1Jkk1HEpJqdhgUwE6Uq81ETUsTYqRjsUxoyTUwFKEJp2GVTGRTQvNXfLz2qPyvmpCGKlSBSKmjQVZWEEU7CM85pOa0DAtMMC0CKOeabn5qtvAKgeLApFETnilR9uKRlPTFNAJOKTKRYaYycdqRbcvz2p8Fuc5ar8cYXis2zVIhit1RRxUpHtxUhxUbNjmpuMwPE18tpYsF/1j8CuBTJyz8sxrV8S332vVWRDmOPpWcq8AmsXI7KUbDwlPAwKFFPwKhnUhFFSAUiipAKQxyDmpRTUFSY4oAVTUqmoR1qQUASUopBS0CJFNSg1AKkBoAm3UoOajzQDzQBNSjmo2bilVqAH4py0wmgGgCcU4GowacDQIlBpwNRA08E0CY8VMvSoVqVTxTESg8U4GoxS0xMnU08GoQakBqiCUGng5qEGnqwzQBYX5jUo4XFVt+3pTvMIFNElkN8uKeO2KriQEVPG4OKZPU1rZo1QDpVgEE5FZkU3RavRyLtxu5rSJhItJg98n0qXaOM1VjcK24dalNxk8LWhmWCqheFqFoz1NCyljluKVmLD5TQCK7jHA6VCQamfHc1XfLcZpDREwweaTYOtPamkgVBohjEAcVAVyanbkVHgDrSLRAy9qjKYqZ+tNFSUQMMLVRx81XZunFVMEk0AVZQeeKpTD5DWkwycVTuIxg0hHPSKTIfrTZPlSr80QDZA4qlKN+VApjMuZSH3jgGtTTbxXTYx5qrNECCp6VRj3QTZB6VSZlOJ1yMMUuTVCzmMiDmrwYYrVHK0PBpCaTNFAgqeFcioQKt24oANu01aQZSo5VxUsP3aAKNwmGqAGrt0vNUTxQBJmjNRFqTfTAmzRmod9G+gCakYVGr1KOaAIwvNWYo+RQkeTVuKLjpQAowBThzTxHSiPFMQ3aMUxlxUpFNK5pgQEU0irHl0vk0ElJlNJg+lXTDTDFikBVMWORTlWpDTOQaBiPGCKrNHzV0cimMgNAFErTGXirTIBUTLSAqHrRUrJRQByFjEFOcVspchFwGrCEpj4Q5FXLVGl5qDom7lmSeV5ODxUyj5Mk809YgvYVHKDtOKFEzESUIae8wcVnOxQ4NPRi3TmrQD5k4wOtJZRlrkIRzVhU8371aWmWgEzPjgChgVb2MfcxxiqPlIO1at+m6YquaqLZOzDg0BcrhC3AFTxWjE9KvQ2gUjIq+kSKvSmjNszBbYHIqVI8dqusoqIriqJEBxSNNig1CykmgCTzjTg+ajCU8JQBInNWFjGKhRatIDigCJkx2qIrVphUewmgZEFzT1jqVY6lCYpiIwgAprVPtqJxQBDjmpUAzTO9OXigCyBxUigVWDmpFY0DJjjFQMeafnNRspoAkRttTrJkVWXnrUqkCkgJcmg00mm7jTQClqjbAFK3NIo3DFSUQsSeAKngtM4ZhU8MA6kVYAxxWcpdEXGI1YwBilx2pQaCazNRnANZus3QtLCWTODjA+taLmuQ8aXW21jt1PLHJpS2LjHU5EHzJC55zzk1KKbGuEFPA4rFs7oRsPTk0/HNNXinjkUjYUVIKYKeKQEi08VGKeKAFHWnimgUooEPFOFMBpQaAJhUgNQqakBoAkozTc0ZoEOzTgaZmlFAEoanA1EDT1NAE6mnA1GDTgaAJQaeKiBpwNAh4NSKagBqRTTETqakWoVNSKaYiWgUmaWmSOzSg802lBoAmU8U8GolNOBqiSVTUqNVcGnq1AF1JcYGatRvnvWUpNWEkIHWqTMWjVWbHGakWf5qzVc4yaes4zVJmbibCSLjNL5wqikoIpTItXcmxPI6nvTMg9Kg6n2qVWAFFx2BgKjNPJBphqSkhhqMmnNURNItDW5NRk4pxNMJqBkbGo2HBqRqjY4FICsVK5zVeZSwq2xyeajmHy8UwMqWHAOaoSBUzxWvMuVrLkjLMaAKMnHbrWXeDHTpWxOmErJulzGaoUkXNLkzjmtoHiuV0ybZMEz3rqkIMea1icclZjxTs01elIWpkj91WIJOap5p0T4agDTdsihHxUKvkUx32mgRZmYFapNjNO8wkVCxoAUqDSFQBQGNBBNMCEkk8U7Y1WYYgTzU7xKF6UAZ4XmrcA6ZqMqQamiFAFuMDirkY4qgrhe9WY5h60wLe2kK0wS5pfMzTJF20m2kL0nmUAGynAYoDil3CgCNqiYmp2INRECgCBlo2cVKwpKAIwnNOMfFPUjNSEjFAFBkqMx1Ox5phapAh8uink+tFAHDwWm1vn5NXXYRRjBp8jjf8AKOKrTc80WNiUXHbP40plyMZqkAev6VajiJXP6U7EMjeEuc96kt4gvXrUiMBj0pY4mkcntQA/btGRVq2ndKI4ACM1aSKMHIpiuIoDvuI61cVk2gYqBdoNSF0Uc0iSfYsg+Qc1A6sh+fpSLcqh4pktx5tUhChhSMRVfeQaXeT2oEOJ5pVXNIFzUyLigBuw04DFS4o257UANQ4NWVbioljOasJFQAzGTUipUgjp4UCgYzYB2oxU22kK80xERWoJBVoioJBQBVPWnLSHrQKAJVxTwQKrhqUtQBP5gFHmA1ULc04GgCfeO1KHqsXxR5lIDQVwRTtyis5ZCKlDk96BlgnJ4qxDF3NQW4LMMitFEArOUuhaXUQYAxTWbtTnGOlRMazZohc0hNNpC1SWNLYNeca9em91h+cqhwK7zUJxBaTSZ5VTivM0Pm3DyH1qZG1JXJh2FPYcgU0DHNOXmsmd0RQM1IBTVp9ItDgKXpQKWmMUU4U2lFIRIKWkHSlzQIM0oNNzQCc0ATKakBqEGpFNAD80ZpuaWgB4NOFMFOoEPFOBpgpQaAJwacDUYp1AEgNOBqMGnA0APBp6mowacDTETqakU1ApqUGgkmzS7qi3UoNUSS7qUNUWaXNAE6tTw1QK1PBqhEwNODVAGp4agRMGOamRvWq6uOlPD00S0Ww2RRxnOagDcUoJPGaaIcS4kmeh4qXp3qmmVp+41VybFoMSevFSZx0NU4yxPtVkcCi4WJN1GaiGc08UDsI3SomqY1E1IZGajNSNTKkBjCoHqw1QOOaAK6/epZOlO24qNzmgCpNz2rOkG0t71pSg1n3AY9qAKFxyMelZd1gJitgoCrZrKuUOTTBmagENwGz1rp7KYPCvNcxcI3X0rT0uQiNc1pBnNUWtzaaTBxTfMzTG55oVeasxJVYmnLncKciZqTy8UAWYORSzJTbdhmrEnIoAqKlKY80+nA+tAiuyle1IuT1qZyKjJ9KYFmAqBzSTygdKqBmzxQct1oAduJpytjvTQjYpQnPNAEgbNWYm5FVOBVmF+lMC+qZAqQJUSScCplkHrTJAx0zy+ak3g03dzQAnlmkKmn+YMU0yCgCM5pOc04sDRxQAxqiJ4qZ6hagBoY5p5Y4pirzUxUbaAKpphNPPWmEVIEMrY6NRT32e1FAHF+eealVvMwDxUcUP3WxmrXkgc/pQWHlfKNo6d6kRyG+Uc0iI7ey1fit/kGRiqsS2VYoC7cjFaltahV6UnlgAYqzDL5YwadibleROeBzUfzj0Nam2OQdgajNoG+6QaLBczMsT0p/zVeNg9NNlIO1Fh3KYU1Isee1W0tD3FWEtgKCGZ6wEmpVtSe1aiW6ip0iUDpVEmXHaHjipxZ+1aYjGOBS+WaAM1bPnpUq2oHaroxTgM0hlQW6j+Gl8oDtVvYKbsFAFUx0mwVb2LTDGKoCuEFO2cVOIhSiKgNSmyk9qhdPatNkAHSojEDRYdzHkU9hVdtwNbjQKe1QPaA9qQzMANDVf+ymkNr7UhmbzmngGtD7J7Uv2XFAGcyGnLFxV82/tQIMUgKPlnNSxpkgVbMXFPt7fLZxSKRNbxBVBxzVnHFPWPAoK1maETVA6bqsEU0rUMZVPFMNSMOajqS0c94nufJ0917scVxNtwD710njKfa6R1zdufkHvUs6aSLApelApcVmzrQ9aeOtNSnjrSLQ8UtIKWgYtKKSlFAh2eKQmimk0AOzSg0zNKDQBKDTwahBp4NICYGniogafQIdkUuRimYpaAF3Ugmy+2kK0ix4bNAFxDxTyajTgU4nigBwNLmmKaUmgRIG4pwbmoQeKeDzTEWFNSqarqanSgTH0oFKBTulUSHSjcKYzVGXoAm304NVUPUitxQBZDU4NUCtxTwaALC1IKhU1JmmiGTKalU81WDVIGq0SyzvFKGzVfNPTOaZBbRqmV6qipVNAE+aXdUQNGaAHlqjJoJppNIBpPNNJoNIaAGsajPJpWNNzSAjl4FQE5FTSHNRgUARFapXIxWkwwKoXIyaYGeVGCazblMg1rGM4IrPuIsZoAyp4/kqXTzjAx3qO4OFIqG0mKPiqRjNHQqT3p4JPFZ3ntU0czda1MTRiyKsZyKzo5iasiU0AThwpzVyOQOlZ4QtzVy1TnrQQIx2mmBtxq5LEpHFV/lXI70AN2Zo8sU3zOaUSUwHeWKXyxTQ9OD80ASCPjpQU9qcsnFO3ZoIK7IaFBFTnntRt4pgNVyKd5h9ab0oyKYE8chqUvxVZWAp+8EUADSHPShXPpSZQ96AR60CHg881KuD3qs7Y701JgG60AWyuBULAipVkDClZQVoGV15NStkLUQyGqR2+WgCEdTSOKcOtNegCCRc0U5qKAOWCg52Dk1o2mnM6bnGc0traAKN3StqNdkACc0w5jJa3EVOQgirjwmQ4xQlrt7VRncrqhJqURGraW/tVhbcY6UDKUcdWEiNTGEKM4oBw4FIBUBBqyhXHNR8YppJoGTYjJo8tMdar5xQZcCgRMFBbANWEiOKoRyZbjNXYpiOtMRNswOlIRUySqwFK0O4ZFAFXZTgMU/bg0uKQxlNJNSEUw0AR80ozTsUoFUAqipQOKYvWpO1AEbCm7M0/bzzS9KAIxGB1oKrinHJphFADNgFRsOanIwKYqlm4FSUNVPalMYq0IiF6VGyUAVygpvl81YKYpQlDBEHlZ4xVuGDaucURR7nq95YC1DKKuymMpq2VphSoZZVKVGV5q0yYqIikxlR0qs64q868VXkTg1maI858VEy3Rc9F+Wsi2X5ADWx4qOy6EY/i5rLgQ7M1B2UloSDkk0tAFLUM6EPSn4pqCn0i0KKWkBpaBi0opKKBC00mlJpjdaADNGabRQBIDUimoAalU0ATg1IKhU1KtICQYp2BQFzzTwtAhiDNOAFPC4pVWgAUU4jilUUpFADVFKelKBSkUCGgU9V5oAqVVpiHItTouKbGtThcCgTE6CmM2Kc1VpGqiRWeoi1NLZpuaAJFapFaqympVPFAFpW4qRTVZGqVTQBaQ1IDUCmplqkQyVakUUxcVMo4qkSxKmjFRY5qaKmQTheKcKTtQDQA7NGabSE0AKTTSaQmkzSAO9NJpc01jkUARsaaTSmm0AMxk0EYp/SoyeaAGP0quy5NWiMioiKAKMibTWddrlSa1pxWddjCECgDnLp8KazoJT5+K0L4EbuKx0fbPVIzmdFCGYCrO0jis63nYAVeWVmINamBahGOtWlxWf5pFSJKxoEaiSADFPSfYeKz0dqnUEjigg0PPLrxVZ92etOgBFSug60AVPmpwDVOAtPAWmBAoanYbFWQop+wEdKAKqyEVKshp/lLmniNcUEsYJPanh+KNoFJxTENYjNM3CldaixTAk3gUokFQMDQqmgC0H+lNL00IMUGM44oEOLAimBfmpNrZp6rzyaAJ0BFS7jio1Oe9TAAigYIueaVxxUsagCo5WGeKAK4FRuKnAFRyYoAgbpRQ9FAFS2ww5rdt7dXt81ykcxjHBNbVlqREWDVEGilsFkNSeQpB4qgdTjD5NTw6hGx60ySfYq0uM1IskbjNHydqdwIJBgVVLYbk1fZAV4rOuYXByKALCkY61JgGstZ2XipRdEUhlxwKj2g9qiW43VMjA0DFVQD0qVTigAUuBTAljbBFXY5OKoLUytikBckUH5hUPA5pUYspFRnI4oAUnNJsA5puCTTmzigBKUU0CngU7gOAp4FIop+OKQEeR6UlKBzUqxbqRRAaTbmrJtyKiKkGgCLy8mrdvEB2psaZaraJipGNkACdKp9TV2YHZVPFAhNuaQjJwKf0FOiTc1DGiSCLvUrdamCbVphFSUiLBpcGpMUYpM0RCV9qjKZ7Va2imFOKljKjxd6hlj/AHZAWr+z1qK52RQMScDGakqJ5B4mk8zXZIv4VqtCvyUt+5udUuJz0LcUsYPl4rGR3U17o0LzSEUvINFQbDkOKcWFRg0buaBkoBp3SmeYAKaZR60DJS1IWqLzAe9O3CgBQTmnZ4pmRQTQMDSUnWngZoAQVIopAhqVUNAD0WrKLUSLip1oAlQVKAMU1BUgFIQ3FKBSkUqrQAmKAKkoAoEIBimMKlIpjGgBq5yKsJzVdOTVuJTxTBksK5NWCAFp0EOankgwvSmjNme+MZqpI3Wrcq4JFU3HPSmNMhoHFTrESOlP8kEUDuQD6U7IAp/lkGkZMUCFj61OMCoUXNTBcYoETpU6iokXiplFUSyZFqwi1DGDVtByKZnIYY6egqcpkUix4qiQC8UYxUoAAphHNADajNSmo2oAjNMJNPNMNIAzSZpCaBQApphp9MNADCaYWFK54qHJJoAkzmmkU5RxQaAKcq96oXB4xWhN92s6b5s0Ac/fjg8Vz6jNwPrXR6iMA1zceTcj61UTKZ0VnCrKDitBIlA7VXsh8gq3tY1qYkTRc8VLGgFKIietPWPBpiZKmD2qwhAGMVFCBmraAelBBGH2tmrO4yL0qCQEfw1NbZHJoAiIZTSbm61fkjB5AqIxA9qYiKORjU6yZ4NM8sKaCQO1AiTNIXxTC3FMJoAeXzSc00VKBxQBHmjbmpNlLwKAItlKF5pxYVHu5oAnVacVwKg80g1IJMimAAc02SnqwzTn2kUAQKxHerUbE1RJw9XrY5FICdmwlQB8nmnStUPegRKTULnmnk1E1MBp5ooooAz2s3A5WnQwMhxzW4yxt2puyMnoKozMie0k4PamCN0IzmugeON4OBVF1XpihgNglbgZqxvfsTVZMBvu1ejK7eaLiGrK4PJodmenHBoxgUXArNAAajeIVZY801iMUFWK6pirEamkXFTJgUFDxwKUGm7qVTQSSqacGpgIxQaQFqKTDVJKAOaqK3zirMrZQUXHqIKUmoVfg0qtmi4EopwFMFOFAiQdaeKjBp2aoAPFSRSAGoCaOlIo0lIYU1oQ3aqSTFT1q5FNuoARIdrVPjFOHrTZDgcVIyC4kAWqQkBp1w5OarqTQBPnJq9bJgZNUoUJbmtFcKuBSGhxOabRRUsoTFNp5HFMNBYZpc0zNG6pYxeuawvEksiaVOc9RgCtveBXMeLZtlgQDyaTHDc815OSerGplGFqMDcw9qlOAtYM9GGxEzAUzeKbKeah3GoNCYvQCTUO41NGaBinNRtuHc1PwaUrmgZV3EdzSiVhUrRiozFzQA9ZCalUk1GsdTBcCgY5RmrCKKrZxTxKRQBcVBUgQVWSWpVkoAmxTl61FvpQ3NIRcQ1KDVRGqUPQBNnJp24AVBupC5NAFjcKAwquHyaeDQImLcVXeXnFK7YFVGb5qAL0eOKuxduazIn6Vbilx3oGzdsyOK1DCHTgVztvc7cVtW95uXFNGcirPark1Se3Gela0sitVCU7TmmShqwLgcUGBaZ5xAoFwGOKYDvsyn3qvLb4q00pb7q5/Sq8hPdvwWgCFE9OanReeaZv2jO38ahMpJ4P/fPNAGgNp6VIvBqjE5xyatxAuRiqEy3GoNXIlHFV4lwBVuJckc0zORMq5pxTFSAADrQcY61RJWagDipGAptAERFRtUpqNqAIjTGqQ0wjNICM0AUu2nKtABtpjCpscUxhmgCqwpgXmrLKKiIwaAEHSmP0p1LtzQBRlzgiqMq1o3IwDVFhk0AYGoj5Grm0BE34112ow/I1c9HADJx1qomUzYsz8g61cDMKr2kZUYxVzbz2rUxGhnqaLLVGRT4xg0yGWY0x3qyn0qqp5FXFKhM5oJBst2p0edwFM8zNCSDNMDQXGyoGIU9ajWUk4xT3XcuaYEMkg7Gow5Pehk5xSrHikIUHNPApoWngUAGMUBsGg0ygCXzKjL5pMUuKAEzmgClxSZoAa/FAfihxTQpxTAPMINL5jGm45p4SgBQC2DVuI7FpkMfqKklIUYFIBjsTQGGKaASKQDnmgRKOaifrUgIFRSGmAmaKjJooAspIStAJA60xATVhY+OaozJbZ8qQaVkAbpUcK4kqyy4agCAQjrigoRU2cUxmpFEXINODHHWmE0hbigBC3JppamM3NRM+KYywGp4aqYfmplfigCcP70ob3qvvpQ9BRaDn1pwf3qr5lL5lAFxW5qwW/ddazlk5qwZP3VADt3HWpEPFU/M4qVJOKALYYinq1VlkFSK4oE0iyDTxUCtUiv60E8o/FJg5p4wRS4oGR4FKpZWGDTsUmKAL0Um4CpWXIqhExQ1ejkDCkBVkg3HpTBb4PSr5UU3bQBXVMdqlFBppNQaD8im76YTTc0AT7+KjL1GWppeky0PZqjLGmGSmGSpYyRnwOtcf4tnH2MjPJNdJNcYU1xHiaUyvGvqahmtPc56IYTJqCdm6Vbf5VwKqyA1kzujsVTk96QA1KVpypUlDFWpkSnKlTolIoaq0/bUqoKftqSiqVo2+1WSgpNgoAqhcU7tUpWo2pjGGmZ5pWNNzTETK1SB8VWDU4NUgWhJUgkqoDTgaALyyVIJPeqStUgamIt76UPVYNTg9AFncKXdVffRuoGSu9VmbmnM1QM1AFmN8VOsvvVBHp5f86BmnFcY71civyn8VYAmx35pfObPWgVjpk1HIz+tRy3O4ZzuasQTEL1yKVblsYFMfszT8w8mWXC+i0sd5GuVhjJPqazQ+VxSg8jZ8vvQTymn9qkb7w/CnCVu2BWcjuPumrCAty9MmxP5jZ6F/apUSZx0CCmx5TpVlTv6mgljUj2Hk5qyjS8bRsHrSIo7D8alAH8Rz7VRDJ4lYgZfir0SjjLcVRjHoMCraDI64FUiGi8rRD/8AXTi0ftVIRLn79KQB0NUZkzzIDwab5g7MahLBR0zSCXH8FAEmc0hGaYJT3FSK4PakMiZeelN2mrBx6Uhx6UAQBaeF4p4FOxSYEJFNIqYimEUgK7Lg0wip2FRMMUwISMUBhih6iLYNAENz82azGBDHmtSUgisyT/WGmBn6hzEawrfHnnNbl9kIaxIv9eapGczaiGVqdVqC3BKCrKjArY5Q2E09AAeaZvIpu85piLRIzTtxx1qqJMmp05FBJItPB4oVOKeqGmA1GbNX4QXTBqrjAq1bNjrQIZJBt5qIAZrSaMOlVjCAaAIgBRkCpClRlDQMb1pNtPCU4CkBEVxTcVOwqMjmgBAKCuKeKRulAEeM0HignFJSAbjBzU0Y3UxU3VOqbKAJiQi1AxDmmOzMcDpQikdaZJKRgVCxIPSpQw6UjjPSgCHeaaxJp5GKYaYxmD3opaKALgUrVhORT2h5pNpHFUZjowA9XGRSmaoZ2mrKzZjxQAxxiq7mnSS1WaSkUOY1Gz4pC9RMaABnzUTNQTSGgoAakV6hozQBPvo31DmjNAybeKPMqDNG6gC0JKsGT91VAPipmfMXFAC+bxUizfLVAvSiT5aAL6XHPWp0n96yBJg1KsxHegDZWf3qZZqxkuPep0n5HNAG4knHBqVXrMjnGBzVlJc0yS6MGl21Aj5qYNxQAhqSNypqOikBoRuGFSHGKzFlKVYSct1oAmZeaYy04ODS5BqDQgNMLVMy5qFloAiZqjZqlZagcUmWiNnqIyUSGoGbFSxoSVxg1x+u/vL5MdBXR3NwqI3NcvcyedKzelZM6aa1M6T5s1XZatuOahdcYrM6itsp6rT9tOC0ihFFTLTQKcBQUSZFKCKYaQGpGS8UwkUZ4pjGgAJqNhTqKAICvNMIxU5WmlaBlbJzTg1P8ukKYpAKGp4eoiKTNAFlWqQNVZTUqmgCcNTwahBqQGmIfmlzTKXNBQE1ExqQ1G3SgBgbmlL5qMKc0EGgB4NOBxUQJFNLHNA7lvzB60of3qqJKcGz2oDmLiye9SB/eqatUqtTJuaET1cQ7hWXG9XYpKBF9QcCrcSjFUUlxVmKXmglouR+lWETHNVY3wcirkbbqsyZMmMdKkVeaZH15qyig1SMmOAAHQ/lTWYgcKal34GKhdzVEkLAnrTcD1FOYlqBED1oAQcH1qRZCP4aaIyvSpFdl7Uhjg5PUYqTAIpocHqKkCg0AM2807bTwlLtpAV2WmEVOy1GRQBXYc1E44qwwqJhQBUkqq55q3KMVUkHWgBjn5apupLVYJqNutMDL1CP/Rya52EgXPPrXTX5JgYYrmlT/SfxqomUzfhI8sVJu4qpAW2ipznFbHMxd2aQ5p0cRNS+UQOlMSIUHNXIsVCExUinBoJLqYxUnFVkbipN5pgT7cinJlagVmqVTxzQIvQyZGDSuBVaKQDrVpXRloAjIFNKinMwFRlxQAhWmkVIDml20DIWFRkc1YZaiK0gGDNIak20hXNAEW3NG05xUwAFTxxAjNIBkUYAyaJCKdI23gVCWoAaARzSjk0m/inxqTzimSIkZL+1TlAFprDYMigMWFAFaXioAanl6moMUAFFGaKYzoAh289aay1Gl0pHWpBIrd6ozIZEwc1GrYzzV0xBxwarvaHdxQMz5pSrVXaXJzV+6tiBnFUmiwKRQ0uxpe3NKkdOKkDpQMiKUzBFWNhPamMhFAiI0008ik4oGMzRmnYpMUDEzRxS4oxQAYyKljyVIqNRUsQ5NIZAw+Y0gFSOPmqPBzQAwmk3EVJ5dJspgIHPrUqv71EVpM4oEaEM2Mc1oQ3A9aw1kqdJiD1oEdEkwqdJRWJDccdauxTA45pgaW8UBqrCSnhxQBMSKUNiod1JvoAn80+tKJ8d6ps9MMuO9SNI0vP461G1wKzzPjvUL3HvSNEi+92KrSXY5rPef3qs8x9allWLc1571Tkuie9VpJD61VeQ5rMtIbeXDNkZrO6I3vU8rFmqB+FNRI6qSIF680yQDPFOprVkb2GYpyim0opGg8A0tN30m8etABuo3UzfSZFAXHb+cUfepgIzT93pSC4ZopSaTNBNwxRinZpuaYXG7aRl4qTimmmIgK0BPapMc08DigpEQWngUuKcBSKACnrQBTwtIBaSnhaXZQFyKkI4qXZTStAXISOaQipStRtVBcbikKg0tLQFxBFT8AdqA1B5oEJkA1IpqPFG7FAFlGqdHqir1Mj0hmikhB61aim5FZat71ZjNMlpG1FKMdauRSjPWsWN6uwtk1SMmbCSDHWrMctZaHgc1YSTHeqM2i9uzSYzUCuamVwetFyRdlLtxTxzSkU0xDBTgKKcKAFApwpBS0ASA0U3NLnigBpphp5phFAETVC/Wpm61E1ICrKKquKuSiqrigCoyqKrv1q06ZqBl4NMDNvjm3NYUURa4roL0YgrJtBm4PFXEwmaNvENoyKsGIHHFSxRjaOKtJDntWxzNlQR4HSpAMLjFWfs+O1KYuKYigw56U3Aq40NRmKgCEcd6erEHrR5dGygZZVwR0p/UcVUTcO9TLIR1NBI8hqfHIynmovMB9aY7+lAi84JXIqDeQcGpLeQMMGknj7igYJJ71KJao7tvWnCagC4XyKRRmq6vTxJigZKwqFmxT924VE45oAenLCrLN5aVUU4YVYk5SkBB5hY1IsZeiKLualMqx8CgQghC8tTZJVQYWopJTJ3qMDmkMmRi55qRjtFJDHxmiY44oEQHk1G/AqTioZTTERE80UnNFFxlxcgA5qdHwRzUZgYUFSCDirMzSimAPWrKyBhWL5jA9KnjnYd6BmyYkki5ArJmtsEkDir9vOGTGeaQkbyKCjFKbW9KkBFW7mAPyo5qmI2GQe1ICZUVulRTR47U+HO6ppFDCgDMMZJ4pjRN6VorDzTzCD2oAy/LNJsNaBgHpTTBQMo7DSbauGE+lMMeKBkCrzU8acZp6xe1S+XhaQFJ0+am7KnZKEXJ6UAQFTTCDWl9nyo4qJ7f2pjM8rTCKuPCR2qFlxQBFijpSkYpKAJo2IIq7DJgjms5DVhJMUCNVZvepllrLWU1OktMC+ZaYZcVXMnHWomc0ATtce9Qtce9VmfmoWesykiy9z71Xe596gZ/eoGakaJEzTnPWozMfWo+9IaVzSwNJmoWakZuaYTWbLSGOcc1Wds5qWVqrMeKykdtNaCZphPNL0FRMagseSKZvqJpQO9QPdKtBTViy0lQPNjvVCbUUTPNZ0+rqM4NNIycrGy13jq1QPqsUf8VcxLqMsrHHSmDe/3s1ryGDqnTf23EP4qQeIIh/FXMyxlFyaz5CxbgmjkMfrDO2HiODOCwqaPXrZv4xXn5U+9KobsTRyD9uz06G+jmUFWBqwJM15pBfXduQVYkCui03xCrYSY4PvScDSFa51IbJp3WoI23c1ZC8VmdCI8c08Uu2gCgtCYp6ilC1Iq0hgq1IEpyrUirz0oGMCn0p4Sp1izUoh9qCLlIoaYVq80VRNHQFymy1XcVfkTFVJF5qh3K9LTttLtpANJxTN9OYVCRg0Bck35ppPNMZgoqFrgL1NFguXVPFSo3NZqX8GPvipUv4M/fFOxPOjTEmKsJNgVlreQE/fFWFuYdvDiiwuY1I5fercU+O9YazDs1TLcY6Ggk6FJ/ep0uPeudjuj61ciuc96Y+U345qspIDWFFcnoavRTg96dyLGqrkVMsmaz0mqZHBIoIcS3mlBqMNxSg1RJMDS5qMGnA0ASUtNFOAoADTSKdg0hFAELLUTirLCoJB1pAU5aqyHg1amqnJQBCehqF8YNSMajOMUCM6++5is61GJCavageMA1VtcDrWkDCozctypArQiUE9KoWoGRWrEAK3OZjjGMdKiaKrR6UKm6gRRZPaoWjHpWsbcHtTDbD0qrAY5i+tNMRrY+yik+yrRYDJWHPapFtyT92tPyEB6VIIVx0osIzPsuO1H2XPatURelOEAosBjeQY6eozwa0ZoBVfygKkZVkgyOBVVoipxitPG00GNXoAzQCKcBmrMkIWocYNAxVGBTHOaCxpvWgBwOOakSQH7xqHae9IUbPHSgCw8+FwtQjJOTT0j4p4TaOlIREM5wKsRQE8kU1cK2cVP9oIXGKQxH+UYBqu2epNS/aRn7lKZA/VKAKhIPNROQTV8xxsOmKiMALYFMCsikjpRWpFbDFFFhE7R1EYge1TFqZuqyBn2cHtTTb+1WA1LuBoAjt0O+piCJKIiBJT5SA1IoMVSlTDk1d3DFV5SM0ARIOafimqakFMBAKXbxT1FOxSAg20mB6VKRTcUARFfamGPParAXNPEdAECx47UjjirbrgVWegZWK805U56U409BQBKo4pGWpEFKy0CKMiZ7VSlTmtVkzVSWLrQMzSKYRVh0wTUTCpKIlp4JzTVpwGKAJt+O9L5nvUBak3Uh2LPmn+9R5x9aq7qN1AWJWkJ71GXNNJphNBSFLVETSk0wmkzRCk00mmlqaTUopbDSaYTxSk00ms5GlNakL1AwqdzULc1izsiRnpULjg1PjimkUjRGTKJATwazbhpOeDXSmNT2qJrSNs/LQBxFw0jZ4NU/LYnmu1m0pHJwtZ8+j4BwK0ic84XOeihw4rVt7cNj0qM2To/Tip4y0Rq0znnCxU1JQseB61kbea1dRfMf41lhhTMBuQKTcAetKx61G2OwqkJotJNGRjNQzDacrTYonc/Khq9FpV3dYCocUmUoyZu+FL95w0UhJI6ZrrwPlrE8O6H/Z253GWIroDisZbnfTTtqQd6dilxk08Kak3URqrzViOLOOKWKIselX4bfpxSuNsijgzjiraWuccVcgtemRV+O1GOlMybMwWo9KkFrn+GtUWvtUy2mO1Vykc5htaH+7UEltt/hrpfsoPWoJ7QEdKOUSqI5WWIelUZk9q6K4sypPFZdxAR2p2GpGUFHpTzGMZxUyw4fFJdqUgJXrQVczriaKDJY1i3esxoCF61m6pd3BmKsCKpxRGQ5c0KJnKVixPqVxIMhiB7VlXF7N/eJrZmhRIPu9qw5lG81pY5ZVGyMXM55yacLm49TSYppcLRYnmZOt5Ov8TfnVmPVJlIy5rPEuaUAGnygptG5Drkqclia1LbxArYDnFchtZfenLLjqeanlNY1WeiW+oxTAbWrRiuhXm1vfPEQQ1bFrrhGA/NS42OqM7nexXI4+YVehuORzXG22rox+9Wxb3ytj5qgqx1MVxnvVyOUetc5DdD+9V+G7HHNSJo3EkJ78VYB4rLinBxg1djYkcVaZk0WxUgFRqOBUqrzVkEgp4pgp4qQFphp9NNAEbVXk6VYaoZBxTApTVUerk3FUZDQBE4wM1Vkbg1Yd+1U5SSDQFzK1CTDHmq9qxYjmkuzvkOTS22ENaROeZvWu4EZNbUBBrnILjGOa07e8ORWqOdo2doNPTg1TS5zjNTiXjitCWi8CMUEAjpUUTAipuKBEZjB6UbAOtSgUu2mIr7KcENT7BTggpiIAntTtvFThRS7aAKDxk1CYTWoYwab5I9KkDKMJqNoWHIrY8gUhtwe1AGKFcnDCpRaow6c1om3X0pPJA6UFXM1tPJ6YqI2DjtWvgrQZcfw0AY4tyDyppTCf7tannL/cprTD+6KkDOELelL5BPWrLTnsBVeSRzQAn2YLyzimMsIH3s1BKG6lzUQZe5pWGSsyr0Wm7i3TinqAwqVYD6UANhBY4NXFgzzinQW+O1XVTHFMRAqbRRVnys0UDM5sUzNONMIqiB2aN1NxSFaAHCXDA1NIxZA1VSOKtIA0OKRQwZK5qCQkmraD5SKqSffoAVOtTLUajFSCmBIDSk0zNNJ5oAk4NJgUgNPFIBABTwRTaaWoAfI2RVR+tWAc1FIKBkHU1PGKjVcmrCLxQBIvSg0gNNY0CF4qCRQQakzUbmgChKnJqq4rQlHJqlKME1JZWFOApAKcKAGEU01KQM0wikXYYabTyKbigLCE8U0mnGozQUhCaY3SnGo2NIY0mm5pDTTSRcQJ5ppNFIelZyOikiN+tREU9utNrnZ1JDcUbacKXFIoYEHenbRTsUnNA7CbMim+Qp6gH8KkyaWquTYqvYxt1UflVd9Kib+GtMYxThii7M5I5u58PJKOBjNUD4TUZ5H5V2LkcUwgc1pzEewTORXwtFnkmp08NW6Y4J/CumEdOEXPSjmD2MTIg0e3jxiMflWjBZRx4woFXBGAOlG3FQ5MtQSADApjU5jikHNRc0jEEjzVmOHPamR9auxAHHNMqzJre3AGcVowQAEHFRQKBir8I6UhSLEMI44q4sYxwKjjFWEFaIwYir7VOgGKQLxTwuK0RlIUIp7UjQg9qljxmplXdTIMS6tQckCsS7tfauylg9qyby14J20mi0zjni2yVHIgIIIzWvcWh5bFZ8sJHapNEzn7/SYJxlkGa5+fSWgf5OldlLEw96pyRljjbQhOPMcbeRTKnQ1z07Msh3AjmvTXsY5PvLVOfw/az5+QU0zN0TzotxULHNd83hC3Y/KSKQeBY3P3zVXM/ZSOCWpwwGK7oeAIjx5rCr0Hw6tBgvLI1HMS6ckebtOBwSKZEskrZVc17FaeBtMjxvt1b/AHq24PClhCmY7aJfotFyvZnicWnXUoG2Bz9Fq1HoepuRttZPyr2+30WCM8RL/wB81dXS4Tj90o/CkabHi9p4e1bcMwsK6C08PalgZGK9Vh06IY+QflV2PTov7gpD9ozzODQNR471pQ6HqXHyD869EWxjUdBTxDGvajkE67ONt9JuUA3CtWG1kQDIraZRngUwpRYXPczxG1SqpFWTHTGWgREKeKbg04VJQtNNOppoAYahkFTGonpgUZ6z5Tg1oXHesyYjmgCCSQFqoXUuxGOasOeCay7+UbcelAFJpEduTVmGNGHWs0DLZq5C23vzVxZjI0o4tmCKtR9apQ3WOGNXcq6ZU1pFmLiW0kZfcVchnGBWEZnjPWni8Y9Ku5DR0aTnNWEn981zcd2/rVuK5Y9TVcxFjeE471KsoNZKSZ6nNTq/vTFY0RLThJWeJPepFkqiS+HFO3VUVzUoY0AThs07NQBsU7dUgS5pc5FQbjmnBqABlJNMIp7NULNQJMU1Ewpd9JuzQWiFjz0qNqsMoNQOAKQiBsVBIPepZCtVZSPWkAxyTxTBCWPSpIly3etGGAHHFVYogigIAq9FEMc1KtuMVOkQFKxA1I8DpT9vNTBQBSEUhjVFFO6UVaJMGgUtJTGLR2opuahgBPy1LET5dQ+1WEx5ZFBQsY3ZqF0w5qeD75FEy4bpQBADzT6aOtO7UwGk0UhUk0AEUAPQ808mogcU7NADwcU1jzSZppPNADqYxzUgXNKEHekMjRc9qnCHFPRVFSAqKBFcq2aaQatllpjbTQBUOahY81cZAageHNIZXdRjiqsietWXDJVZ3LdaksrkAUnFOYVGRSKEY0wmnHpTDTGITSZoNMJoAUtUZNBNRsaChS1Rs1ITUZNSxjiRUbHmjNNY0hig0jHikB5oY8VlM66JEab3p5pprnOsKKKUCgB2aKcFpQlIQ2gdaftFLt9qAG4o20/aaUKaoCLYTQI+anCU8JzQBCI/apFSpdtKBQAzYMVGy1OxqB2oAjOBTWfAprtUbHjFSWixE+44rUtkrJgQ8GtaBiBiqGzQhHStCHpWdCelX4m4FBm0aEdW0HFUYnq7EwOKpGTRZjQE1P5Yz0pIoztzT87eTWyOdiiH0qWNNtNSUGnmUCmQOMWRmqlzCCOlWxMAmKqyyZNMDDu7bkjFY9xbYJ4rpbj5jWXcRgk8Vm0awZzksByaqPBz0relhBJ4qrJBz0pXNjKMHHSm+VjtWm0PHSozDTuBVRAKnXAo2Ypp4ouBYVxmraSCswE5qwrHFFwNFZhVxJhisZGNWkc0rktGss1TxyispHNWY3NFyGjXSWrSTcdayEkNWo5DVGbRpCWl35qkr1IHq7mdiQnmkLUzdSZqDQcTTaM0lABikNKaQ1IxpptONNoARulQt0NSnpUZ6GkUUrjvWLcH5jW3cd6w7r7xoAqTNgcVi3zMSeOtbJG8Ed6jTTWlYFhxTQcplW1jLKwGK27bRFON5rTtLAJj5ea27ey6ErxT5huCMFNAiPQHNNfRpIgSrcV1RRIxgConZDxii5k4nFT25GQcg1V8tlNdJqlsACy1z5mMZIYZrSLMZRsNDODyKmSUjo1IJon6jBoMStytXcy5S9BcHuaurKCuM1iAlAR6VYglLDrVJkNGyjDjmpVkAPWs6ORjU65NaIg0UlFWY3BFZaZBq3Gx4q0BdNApikmpAKCR2aaTQc03nNAAScVA7EGp/vVFIlSxIg80ijfQUpuwjrUstDi5qJ245pSD0zTfLJPtQBXO5zjFSJYluWq5EiY4HNThTigCtFaKp4FW0jAFKFNSBDQMXbTgKUKaeFoJG0UEijIoEJzRS5oquYdjCpD1p1NNNiENNJ4pSab1qGA6P5qng4bDVDGMVKDigonEZEgYdKsyRCRM45qqshH0qbzwVwKAKrREGmBcVO0mTUTGmAcAVEzgUrGoHGe9AD99PVs1XqSM0ASmgUYNOxxzQAu/jFGSaZjnNPU4oGOAalOcUoYUjNQIbkikLGkJprNSGDSkVG05prtUDvSAm89T96o38txxiqrH3qIlh0NSWPlUr05qsdxNWFmA+9zTiVcZFBRW7Uw1KQaibigZGxphNOaoyaAEJqNjQzVEXoKFY1GTSFqjJpAPzTWpN1NJzUjHL1pxPFMWnGspnZRGEUmKd2pK5zrACngUiipFXkcUAFLgmrCw8U8Q+1IRWCmnhKtCH2p4h9qAKwj9qcI6uCAUvlAVQFUR04R1Y2UhGBQBAUxTSKkc1CzYoAY9VZGqWSSqUknNAxrvzTUBdqACeaniTaKRqi9bIMc1eRQBVKI7cVYWTvmpGX4jzV1GxWTHLzVtZeOtNGbRpJJzV2GTpWPHJz1rQgfODVIyaOltiDCKiuDgmq1pc4O0ng1acCRc1tF6HPNalQSFT1p4l560yRMUwDirJJzcYHWomnyaifI4NQM2OaSFYkml7VTkbNK8m41CWzUM1ihjjmonTNTnk0wiouWVWj9KYYuOlWWFJtouBTMdRNDV7bSeX7UXAoCE5qYRHFWhF7VII6LgU1jOasIpqZYRUqxUXBkSrVhAacsVSrHTTIY5BVlBTESp0WqTM2hyipQOKRRUgHFWQ0MpaMUUhhRilpaAGmkNOPWmmpGNNNpxptADT0pnY049Kbng0iinc9DWDdDLEVv3PQ1gXHMlAx1lbGR8Y610UNgqxjIFZ+mqEwxFavn5WpHYDDHGQaf9pCjAHFUJpyGJrI1DWBbIcNzS5iowbNa+1OK1QszAe2axD4mgmk2IfxrjtS1SW7kO5iB9aq2shEvWs+c644Vcup6O90k8BO4nisC4/wBYeKs6Y4eEZPap5I4ixyK6aOx5deNnYyduTU0WQfvVbNmpPy8UCydOcZrY5gRA2ATVlLHkFaZFbOT0xWjBH5Y+ZqpEsI7cACp1QClyD0NOQZNaIyFEdSKuDSjgUwvg1ogLkeKsKAazVm96sxT+9BJbKCmlBSiQEdaYz0AIVB6VE4Ip3zDnNRsxNSxIYR6U0Rs55FOBwcmpRKDgAVLLRE1vjoadHACKkCEmrUMIxzSGVlt8HgVYSBvSrqRLipPKoCxRWDmplhqx5eKMYoAi8qmmOrFG3NAin5Iz0o8mrXl+9L5ftQBV8v2oq35dFMRyRNRM1DNUWSaBjhyalQUxFqYCgBwA9KWgClwaLAJS5owaTFOwCE0w0800igCFs1GwNWCtMK0ARAfLUsQ+am4wMVLAM0hlyEAZBFRTgDgU6M/vKbP9+gCKlFFLQAUhoJppagBrNUTNTmaoXapKQ1mqBmpztUDNSGDNUZNIWpuakY09aerEVHSg4oGTrKuMGmyxhgWWoM5pVlKHB6UFkLZBINRtVyQLIuR1qhKCjUARyHioCcCns1RmmwDtTTxTlprCkMYc5oweKfilxzSbKjqPQfLSGpFHFNIrnkd9JaDKUDJopwFZHQOVc1OicimotWEXmgCRVqRVoUVKq0iWKqipAg9Kci1IF4oJYzaPSmMo9Kn20xlpiIggpkiirGKhl6GgClIarStwanlOCaozyYBplFeaTGarhS7UFjI1WYY8CgpDo48AVNjBpVWmueeKC0P3UeZ71Bu5pN1IZdSUirEc5rNR6kEtAGsk3vWhbXGMZNc4JcHJarcF1jHzUiXE6tLgdc1q204dApNclBcbsHdWtbT4xzWkGc84G9JEXGUHFV2QpwRVixu0ACtzU9yivhgPlrS5zGY4yKo3BIBNaroKoXEeVNMpGPJLg0xZvemXIKuRVbfipZsi8JcmlL1QWXmphJWY7E+cmpFHFV1fmp0fikKwoWnhaBipVxTHYYFp6pTgBUiigYixe1SrDT0xU6YoIZEsHtUywH0qdAKnRRTRDK625qUQYq2qipNgxWiRk2URGRTwuKsMgpu2mIgK0mMVKVppFAyKjNKRTaACkNLSEVmMYaaelPIppHFAEZ6Goyae3TFRmgbRWn/1bVjE/vua17g/IaywB5mallRL0TBVAHWnvNhcZqt5gA61TvLxYozzzSbNYxI9S1NbaIgN81cXdXklzKSWOKl1O4eaU8nFZ+7HFQ2dlKCQ2Umn2iEyA1C7bmrT02EtItSkbydonVaTCTCDirUsBJOKu6dbCO2H0pzp82MV30IWR87iKt52M9UcetI8ki9601hHpUctuCCcVs0czZQS4cd6mWbdwahZNrHCmkGR2osK5ejkHGDVtHJrLiYjtV+GTOOKtEsujkVG6E9KkUAinbfaqEUmBWnxSlTU0qcdKr4INAi/HLkCnlxVWMkCnFm9KAJy1N6mowSasRRljSbKQLHup4tznpVyKHA6VZEQxUspFRIsAVYRafsANPVagAAp60YxSigB2KTFLQTQAmKTFBNJuoAZRmiigB4NFMoqrgcWTmhUzTU5NWkXimSIi4FSCjGKUUAKBxRS0VYCUYpaKAGlaQrUuKaRUgREU0ipCKYaAIiOtSwfKpNMx2qQDbHSGPhOXNLP96mW33+aknxuoAhzRmm5prNigBWaomehmqFmoAVpKiZ6jZ+aYWqSkDtULGnE1GTSGITSUZpKkYlLSUZ5oGJ0prkEGnMcCo8bjmgsYJSh9qHxKM02XjimIxBoAhdCDTAtXpY/kyKgC5FAECrSlakK4FNJoGMIxSAc0rUL0rNs1hHUf0ppozSGsGd9PQKetMFPWpNiwlWE7VVQ9KnU0gLCmpkNVgamQ0iGW0NSiq6Gph0oJY+msKUUGmIYeBUElTtVWZutAGfcEc1lXD1fuW61kTsd1MaJYVBq4vAqpb9BVknAoLQ8y7ahkmA6HmsrVdT+zRnYMt61y0utXZkJ30FI7cye9KHJ6muOt9elXAm5HrW/ZX8V0o2MM+lKw+Y0w1O3VAGpQaCyctmpEl21XyFGScVVm1CKH7zigDora4Ixk1r210uB81edjxTao4XPFbunazb3WAj80GbR6FZ3OxgSQa1jfeamMVx9peA7V/Wtq2uFfpxVJnPOBpbsioXxSeZUZfJrS5HKY+pRYYkVkOdo5rfvyCprn7jrioZaGq+TVhW4qmnWrCtxUF2LCmpkaqoapVamFi2rVMrVVVuKmQ0BYsBqkU1XBqZTQInRuasI1VUNToaZmy5G1To3IqojVOjc00Zs0UFTAcVTjkPFWkfIrUyEYVGamPNRsBQIhPWmGnt1ptBQwimEVLSYoAixSEU89aaazGMIpCOKcaaelAEL9ahk4zUzjmoZe9BVylcH5aypHwxrSuvu1gXdwIyTnpUs0grkslxtFZtwWuD7VC96JTjPFSxMHwKk6bWMe+i2DOKyXbmuj1aLbCTXNAFpMYpM2gySCFpZBXZaDpe4h3HyisfTLEyMuRiu4sAtvCFxgVpRhzM5cbiORcqLvyooUUzGTRuBPWnDGK9BKx4bd3dgBQRkYp1FMRTaDLHimG39quHFIcYpAUxHipYztxUm3FNI5qiWWY3HrU+4Y61TRTUu4KKYEhbdSCPJpitzzU8ZHpQxh5eKCoq0qginLAGNTcRBFCSa0YYgop0cIAqYDFS2NCqAKfmmU4ClcoTHNPUUu2nBaQBS4pQKUCgBtNNTbaaUoAgNNNTFajYUAR5ozQRzSUAPBopBRTA5GOLFTD5aUYApp5NUSLnJp60ipSnigBc0lGaaTVXAeDSimA08UAOAo20oNLupARlajK1KTUbHigCJhTz/AKsU3rTn4UVICwna+aJm3PTA2KjZ8vQAE4NQuc052qBpKCgeTC4qFm70Od3SoiCOtSMQtzTCaD1pppDsITTSaU02gLCUUUGkaCUlKaSgBG5FRnI6VIaYRQMjIzSBeakxS7aAJUG6Iiq23ANW4PusKrMfnIqSyE1EamxUJOKBjO9LR3orORvSENN704001hI7ojhThTAacKRZMpqVTUCmpAaALSmpkNVVNTqaRmy3GanU1URqnRqCWTg0pIqPNNZsCmCB2HJqhO/WppZeKoTSdeaCkilO3JrMuGq9Mc5rOnGc0FWJbeXBHNWZXyhwayQ5Q1YSfPGaBmXqELyk55rn7m3aPPFdlLtas+4tFk7UwOTwzDbitXS1eBwxzirh09FIOKlEahcAUDNuFtwH0qyU4zVKz/1YJ9KuF8JSKKWoOREQDXK3SM5PJrpbsl6zzbB88UDOZkiKOBirFpNJayhlbH41py6aXPFVl02TzMdqBWO60LUzcxIS3IrrLS6xjmuD0aH7JGBXT20/Q5poUkdULgkDmjzie9ZMdzkDmrKTDPJqjncR1yxbPNZU6k5rSkYNVSVcikxIoAYpwPNPKU3GKgpEimpAahFSLQWiwjVMrGq6GplNMTLCtUyNzVZTUqnmgkuIeKmQ1VRuKnVqCGi2hqdDVRGqZGqkZtFxTViNuKpK1To1aXM7FvdTC1IGpCadxWGE80ZpDSZoAUmkNJRQA0000pNITUANNJSk03NAEL1A3Sp3quxwKQ2UL1tsL1wmrXDGUrmu21FsQMa4DUG3TNQzqw6IIpG9a1rAlmFYqMK3dJXcw4qDqmWNZizag+1c7Z2/mTgYrqNaGLcKOeKy9Og2OGIoM4uyN7T7UIi4FayocVRt5ggAq/HOrEV20oWR4uJqOUrj1U08U4YNBBFbnKw3YpC2aac00A0gA5pAxzT8U0rQA8DNLtNORTnmpcDFMCJRT9gIpcCloABGKkQYpFzmpVFSBKiknirsUeBUEAFW1OBQA4dacKaOtOFQWOFKKQUtAEimng1EvWnimIfmjdTaKAJVbNP61ADUqmgBHTNQNGauDBpSgIoAzSMU01daGomh9qAK9FSFMUUAclninxrk0gTNSqAKskfgBahc8092wKgLZNADqSjNJQA4VIKiBp4NMCWimbqN1ACmo2FKXphagBB1p8g+UGo91TSMPKFSBWdsVXL/ADU6VsGq7NzQA9n4NVy3NOduKjjG6TFIslhUs/NS3MYVM1LFGFOaZeEeXUsZnGmmgmkpXLsJTTTsUhFA7DaDRQaAENJSmkoAKY1PprUDG0uaYaM0AWID96oGx5hqWHoarN981JY1qg7VOelV2FAw70Ugpazkb0hDTT3pxph71hI74gDTwai709aRRKDTwajFOBoAnRqnU1VU1MrUiGWlaplaqimplagllkycVFJLUZeoXf3pghssnvVOR8mpJHqs5oKRG/NVZUzVvHFQupzQUZs0RqJQRWm8YIqEQjPSgCtzSHOKueTSeRntQBn7SxqRbMtWhFYnOcVdS0wOlAFCCAolTGM7KuCHaOlAiLDAFBSZlPb7jURtsVuLZEnpTn09iOlA7nPeVg4xSrEAc1rHT2yeKb/Z0noaB8xBAQK0IZQOhqKLSp3YbQa1rbw/KxBdsU7GbmkEEu7AAOa0oIHYZbpV200eOEAt1q75IUYxxTSOd1LmaIcVG8fWtCRADwKrSDimJGe0fWoGXBq86jFVpBWZoiACpAKQDmnDFBaJFqVaiU1IppgyVTUqmoAcVIpoJLaNUytVVWqVWoJaLatUytVRWqVXpozaLivUyPVAPU8b1dybGgr8UFqrq9O3UyWiXNGajzRmqIH5ozTM0tACE0hNKaQ1ADSaaTxTjTDQBG9VJDVp+lVZKQ2ZOpE+Qa4K/wA+a1d9qQJgNcFfqfOb60M7MOVbdSZBXYaLbDbkiuYso90oru9Mt9luGx2qDSs7RM/UI/McKo4psduqKOOa02tTJJmo2i2vitoQuzgqVbIrLGRVmIMCKkWOpSgA4rriedJksbGpSxxVRWINTq3y81ZA4U7FNpQaQhQKkQDvUdLuoAmppDUKc1KAMUwIgD3p4pwAqQRZFACLjFPVSTSeWRVq3TnmpAfEhUVMG5xUoj4phj5pAOWnimgYpwqSxwpaQUtAD1p4qIHBpwamIkopuaM0ALnFG/FRFqYWoAtrLUiy5qgrVKrUAXt2aQ4x0qMNxS5oAY60U7FFAHGRuNtNLZaq4cinqe9WSPkbioh1pWbJoJxQA+imbqN1AEmaM1Fvo30ASbqN1Q7qXd70APLU3NN3UhPFADi1PkfMQxVZn+WnK+9MVJSK8zE1FnjNPkPNQk9qBiMxPFIjbWzTaMVIy6tyVXGagmm35yc1ASaTmgBvfNFGKWkaBS9qSgnigBhpppxppoGNNJSmkoAbk0pptLSAaabSmgdaBk4+WPNVGPU1YlbEYFVW6YpFETE7ajzUklRnigYuaCaTNBNZzOrD7CE0w0402sGdaFpwplKDUlEgNOzTBThQMcCRUivUVLQIsq5qVZOKqA4pwamFid3PrUDsTQWphOaBWGEmm45p9NNABUbCnFqYTQBG1MxzUjUw0DADJqdI9xAqOIZNaFtFls0DJra3z2q4LbjpU9vEAoqwwAWghmRJCKs2durdRUDsS5+taVgvTNAi3Dp8Z7CrH9nRegqxDt4qfjtVmUpMpf2dDj7gpV06IH7gq+MAdKN/tVmZWW1jT+EU7aq9OKkY5FV3JoFclLDNNZhioCxzTWaoKJHIxVSUjmpGbiq0jUikQSniqbGrEjdarOalmiEzSZpuaTNSy0TKeKlU1XVqlBoGTg1IpqBWqQNTuSWEaplNVUaplagTLIanK3NQBqerc1Rm0WlapkeqitUqtTRLLqvUgaqitUqvVIhos5FFRhqcGouKw+jNNBpetK4WH000ZooEFNPSlpD0oAgcVVfrVmQmqzUxGbecowrjNUhHmHiu8+z+e2KydX0Asu4CkdFKVjmtKtw1wpBr0GCLZZqPUVh6NoTI6k10ssQjUIG6CmkFadyg42oeap4ZmzmrV0Coxmqsa5P3q6aa0POrMkAxTsUnSjNbHMLtFKF5pAaetAEvBHSkwfSkXrUnGKAIzmm596ZK2M81EsmT3pXGXY2zU4JqGBM4qwwAFFwAGpEbBqJeakC80XEWM5qxBVQGrMHakI0UxikdaWPmpCuRQBUJwaA9SvFULJikMkDipA1V1HNTheKAA00HmlNNoAlU0p6UwGnckUARmoz1qUimEUANXrUoNRgU8UAWFbinq3NQKaeDQBZBFFVTJ2ooA4bPzVOOEqsvLVZP3KskiJ5pCaU02gB2aQtSE0w0AOLUm+mE00tQBJupd1Q7qduoAl3UZqPdShhQAxjxToDziomPzU+A/vRUlIZOMOagP3qs3YxJVdqBjT0ptL2pKkYuKCKbS0ANxSU6kNI0EpCeKDSE0ANNIaWkNAxppKU0lADKQmlzTSc0DEpy9RTO9SAYpAMmbJAqAnLU9zliaiB70igbrULdal7VG3WgYUhpM0VnM6sOIaSg0VgzrQlKKSlFSWPBpwpgp1AD80ZpmaXNAD80uajzRmgQ7NGaYTRuoAcTTGbikZqjduKYAX5pN1RE80ZoAfmkJpuaXPFAE0Jwa1LVgAKxVbBxWjBJ0oGbscnAFEshqpA5JGassu4ZoIKvVzV+0OBUCQjk1PDwaYmakUmQKuRNyKy42q7C+OtUjFo0CBiojTQ49aXOasgaz4qu789KldTVWQEUAI0gqNpKidjURkqRlgvxUDtwabvqN3pMpETnJNQSGpSagkPFQzRERbmnA5qInmnKallolBqRWqAGpAaQycNUitVdTUgNMRYU1MjcVVQ1KppiZYDU9W5qANTlbmmQ0W1NSqarq1SqaZLLKmpFNQK1SK1UQ0WA1PBqANTg1IVicGnA1EDThQBLmkzTc0UyB2aQnikpDQBE9U5DVuQc1VcUxD7dwtWXbeORmqkS81bReKCkQvdLAhGAKgSfzmzU1za+Z2qFYfITJFUmKRWu2BOKrLgc0lxJuuMU5cYrphscVVu4oYmnquaaq81YRcVoYipFmp1goU4qRZMUAN+zGmtCRVlZs9qYzgmkwM6WNuabEnqKuyBSKhCgGs2xliLAAolekSkkGRTuAyOTmraNmqHRqtQsOKdwLI5arsCdKqR4JFaUC8UySxEKnA4pka1MBQBC/SqslX2TiqskdIZXVsGplemeXzTwuKAF60Yp4FKRQBGBUgHFNA5qRRQAwrTCtT7aTaaAINtGKlKUwqaAE3UbqNtLtoAYTRQy4ooA4qPrU7P8tQxjFNkbmrJHhuaR29KYDSE5oAXdTS1NJxTC1BQrNULPzQzVGTQBIG4pd1Q7qXdUjJt1LuqHdS7qAJiaIjiSmBqA2GqQJ7rkA1VPSrUnzR1VHWgBtFFFBaENFBooGIelNNOPSmmkIaaSlNJQMSg9KSg0FDW6VGTxT26VG3SgBuaTBBoU8805zyKChQu9wKfOQi4p8KhQWNVrhy7e1AEeaYTxTsUw0hjSaaelONNbpQBGTzThTDTlNZTNqT1GsaAaVqaK52j0Y7Du9OWmCnCkUSClpop1ADD1ooNFABRRQelIQ1qYTzSs1MzzTJFJqNmpxNRtQAU1jQGxQTmmMRetOZsCoicUwyDuaCkO3/NVyGULjmslpcd6YbojvQNROpiul45rShuAUriEviP4qvQam2MZoHynXxXA6cVIHXdmuSGrbT1q7FqgZetAnA6lX4yKkWbtWHa6grY+atOOVH5zTMZQNOOb1qdHB71mB8dDUqSkVSZi4mizZFQOM1H5pPejfnvT5ieUhkSqki4q++DVd1ouUkUmJFQO+KnlBFUJWIpMaHl6jZs0zPFNZqlmiBjTN1ITTN1Qy0WVbinBqrhqcGpDLStUyNVRWqZGoEXENSiq6NU6GqQmSAUoHNC08CmSx69KlU1GKetMlkoNSqagBqRTTJZOGNSK1QCnqaCSdWqUGq4NPDUCJN1GajzSg0CH5pCeKTNIelMQN0/Cqzdast0/Cqsh2gn2oJZNARmrajIyKwkvQJMA1pQT7lHNLnK5S2SMVUu/9Uan3jNV7phsNWmS9jCdSJCacuTSu+5jxQtdcNjhn8RPEvNW1XnpVWNWyKupnHNMgKkjjBIzSgCnqcEUEllLVSOKimtG7VPDNnipX5HWgZiyROvXNV9xD4NbUihu1U5LYdahlxI05FPZSRTo0wakfG3ipKM91w9SREg1FK2JKkiamiGaNvyRWvB0rKthyK1YelWQXowOKmAFQJ0qVTzQA8ioHWpzTCM0DKzJTNvNWWWoytAEdIafikxQA0U5etAWnhaAFAp4FIBTsUEjSBUTCpjTCKAIcUYqQrSYFAyMjNFOooA4TdgVA7ZNJI+Kj3ZqxEu7ik31DuNMZ6AJWao2am7uKYzUFClqbTcmlBoAWlpKKkY6ikpT0oAcDS5pg6Uo6VIFqM7kxUBGGNPgPOKSYYagCI9aKKKChDRQaKChD0pppSaSkIaaQ0ppDQAyg0UUFjXqM05jTDQA01JHHv69qaFJPSrBxEtBQyZtqhRVZ+KezbjmonOeKAGluKYTQxqPNADieKjZuaUmoz1pDA0qmkPSkXg1Ei6b1HNTQeaeaiPBrCSPUg9BVJzUgqJTzUgNZlEgNOpgNPoAbRRmikAUjdKWkPSgRA2c0lSEU0jBpkjSahdqe7YFVJJMdaAJC4FRtPjvVOa7XseaqGWSQ4FUCLs10PWqMt6QeDTjbSMOTTP7OLHmgtFdr4nvULXhPerw00dxSHTV9KDSxWjuSQOavRT5XrUX9n4HApwtXUYCmgokebaeDSpflP4qRNPlkHQ0raRJ6GgRbg1bB+/Wzba02AAwrmBpUwPCmpk067X7qmrBo7mHV0IHzVdj1ND3rgY4r5P4Wq1FLdpjKPSsZumjvFvVf+KpRcjHWuKj1KZcBkarsepMR84YCixi4HUC4HrThMhrnF1BR/FU6agvHNIjlNdsNmqk8QoiuAwzmpGYMKA5TPK4qNhVtl5qF1qWUis1RmpXGKhNSzRCg1IDUQqRaQEyVOlV0qdTxQBOhqwjVUU81OpqiWWlapA1Vlbinq3NMllpSKeDUCmpA1AiYGng1CDT1NMksKacDUQNODUEkwanhqgDU8NTETZozUYanA0CH5pabmlzQIQnGaz79ysLEVdc81lalINgXNaRjczcrGGLxknOa0LfUeOtZLhWlNPSJvLJVqidB9CliFszpI79Sg5pJroyLhDXPL54wM8VetyyjmtKdOUdWZVa0dkXVTPapRFUMUuD7VcR1I4610HIwjBBqyoJqIDmp4xVEsk28UAVIqg1J5QNBJCCR0qVJyOG5pGjIqMikMm3gmmyciqjuyng0sc5PDGkykT45qOZtq1MrA9KY4B61BZkOS0pq3AMYp7QqXyBVmGEU0Qy1arwK1IhwKpW64ArQjHSrIJ1HFSp1NMUcVKg4NACU7FJ3p2KAI2qFjip3BxVWTOKBjd4pQc1ULkGnrIPWgC4tSharxtVhTQAuKTFPpDQSMNJinUYoAjNRmpGqM80DG0UHiigDzV3qMPULOTQDViJ80xjzSA0uOaAF7UmKWipKG4pMc06koAWiiigYUDrRRSAfQKKQUDJEba4NOnHQ+tQBuanJ3xZ9KAIT0qPdzTmNR55pAPzSGgGkNBSYmaM02igB2aKbRQAEVGTT85pCvegoiZTSquacBk4qZU2jJoARFC8kVDM2TipJX4wKqs3akMQmo5G4pzHAzUGcmgBpPFMNSEcUw0FDTTDTzTTSAQdKQmg03NQUtyUHNRuOaVTSnpWU0d1KQwU4GmnrS1kdJIDTs1GDTs0ALmlFNpRSAU0hNBpDQA1jUTPTnNQOeaBDZZKozMSDVpgTULRZoAyHVi9W7dOBUklvjmmodpxTLpouIvGKlSME1WSTmraOMZoNrDjCKb9nBNSGQUJIKorlFFqD2p62mD0p6S0/wA/nrQHKWIYEVR8oqcRIf4ahSUbeoqaOQHvTJsSx28Y6qKlSCPd92ohJjvUqSZ70XCxYW1ib+GpltIum0VDGx9anQknrV3IsPXTYWP+qWrTeHmltvNNt+79cUkVz5Lgq3I6VcuNZvLiPZLPlPQcVRz1IzT905q88Ow7SVfa1c1eJcWMhDk7Rxmu5kmVh/8AXrHvrQ3m5Nuc0gXmYVrqakAbsH61qQ35JAzx6isO58PXdqxdVO2mxSSw4V1IYVmwOoM4bvTDID3rJiuyR1qws2e9QCLDsKhJFBbJpM1DKHipFqIVKtSMkWpVqEVKtAiYVItRipFqhEgNSKeaiFSLQBOpqUGoAakBqiWTKakBqAGpFNMkk3U8NUOacDSFYnBp4NQK1PBpk2JgakU1EvSpBQJklGabmjNNGbGO3BrnNVdnc4NbtzIFQ1gTjfJ0reCuznqSsjMCsM1YiZgu31qfywOoqRFXjitjl6joFz96rYiAHAohjFXFjyBTEyrtx0FOQlW5NWDCaidMdaYFhJRU0cnNUAfSpA5WgDREpzVhZQcc1mJNkVYjemIubyTjNBFRo4z1qdRuHFIDPmBBNVGk2GtWeHg1kTR/vKRRYhuSo55FW0KyDOazkTA5pyyBG4NQM0BgGrEPJqhHKH71ft80gL8QGKsx5yKrR1OnWtEQXEqdarIeKsKeKoB2aUGmUopCHHpVeQDmpj0qFz1oAzbgHJxVUOVPWr8oBzWdP8tAFuO46c1owS5Arm1mw3WtaymzjmgZr9qaaUfdFIeKCRu4g04HNQySqtVXvdtWBeZR1qI4FVBeFu9LvLd6ViLkkrDtRVdyfWinyj5jzGnqKj5zUgoKHjrTwKiB5qRTQAuKKXNJUlCUlLRQAUUUUAJRS0lIY7NITxTTml6igYmcc1JE/wDD61EaEOGzQA91qEirRGRmoGHNADaTNOIxTDSGFFKKXFAxtFOxRigBoWkY5OKcTUiRZ5NBQ2OPAyabLJ2FOkfaMCqzHJoAZuJJzUTdae/FRscCkMY7Z4phGOaXqaXGaAGnpTDUhpjUFDWphqRqjNIBhpMU7PNAxipGRk4pwbIpkhxTVNZTR005EhpaSisTuQtLmm4ooGSClFNFOpDA00nAp1NNAFd2OaiJzU7Jk03y+aBEQFO2cVKEp22gRVMearvAM9MVeK1GwpjUjPZGjOe1SJJ71LIM1Ayc5FBsp9yUvQj4NQ4Y04KadzVSLJlIFME53CoiGNN2kc0XHcvLOeOasR3GO9Zik0/cR2ouFjWW4z3qWO4A6tWQkpHapxL7UXCxspdAdzU4vlA+8awjNgUw3BzRcVjoDer2NBvWYgZzWPAzPWhCmSM00zOVjWtU+0Edq2be0RADxWRaTxQAetX1v1PSr5jkqIvyW6SLhgCKx77QLebLIoVvatWO6VsZpzyKelK5jqcJd6S9r05qkN6da7O8UPnIrnry3GTgVmzWJSVvepF5NQ7SDipU4qTQnFSLUQqRTUASipFqIVIpoGTg04GoQaeDVEkwang1ADT1bmgC0pqQGoFapA1O4idTUimoFapA1Mkfu5pwNRZpwNIRMDTlPNQhqeDQKxZU1IDVdWp4NUQybdSFuKiLUjPhc5oM2Ur24CHGazftCnJpL1y79e9VljIauqmctUt7tyZp8J56UkUfyYNSRQ/NwK1OfqTxlh0FXYSW4NJbWTzfdrUg0aUnk1NwK6AdDTXgBHArYj0cjqae+mui/LzTuI5eRChxjimN9a0722IYgjGKzjGRkUuYYwMR0IqaOYjimJBI3SImpVsZ24ERFK4izG467quwyE8A1XttGuDgtxWpHpMiCmmBFLzHWa8G9ya1ZoHiBDCqecN0qrgUXTZVd+9W7vjJrOLjd1qSh8cpRq1rW5BwDWSFBq1AuMYp2A6GJwe9Wo+awoZmVhWlDc4600QzTRsVMj1RS4XNOWcc81QGhuFAIqmJs96lViaQidjxUDmnluKjZgO9AEDAVQuk9quvMgqvPIjJwKLAjDmPluams9QCPgmqmos2CQDWOJmSXOaLDPQ4LzfGMGnyTHZ1rnNNu9yDJrWaYFBzWiJYO7HvVZzUjOCODUT0EiK5Bq1HJVHNPSTaeTVWEXJDxRUZkUr1opWEed04U0UtSbDqcDTKUUhjs80ZptFAh2aKSikA+iiigoKKKKAEoooNSA00mMU40lAFmE5UrVeVdr0qPterEyb4gwoCxW4IxULDmpcmm7e5oHYbTx0pMUo6UDEanKM01qegoGKsWeTRJIAu1aWSTauKrEmgY1iT1qI1NgsOlAh5y1ICFYyW56VK0CeXSPIAdopxY+XSKKJUAkYo6U48k02gBjHNNPSntTCKLjGFD2pNm7irMUJbntTpAFGF61hOpY1hC5SMZXrTCgxmrQVsZaoiMtWXtmbezRVdRnPSq5mAfANXJkBPoKoyeXG3AyaXtGWoIsIxYc08nis97tUI5qaK5WTvU3NoloNx1oDc9aiZvSkDZoNCfdS7qgDU4NTHcl3Um6mZpaAuOopBThQQFLRRQAxhUTCpjTCKAKzComFWWWoWWgZXMm0dKas65xTnTNRCA5zTLUiyJUNI0qVGIsCmPDzQUpkyyIe9TLsPeqHk+hqRYW/vGgrnL22P+8KU+WB9+qYhbuxp4t89cmgOckeaNOd2aiOoxqcCPNPNtx92oWtyM8UEe0L0d7uAKjFWkupPWsqLjir0Q96CeYvJct6mrUdy3rWenNTqMUEM2oLw8c1oxXGR1rnYnwavxTdKLkSRpSvms64Gc1Z8zIqGTkUmNGJLF8xIFRba0JE5NVnT0qWUA6U8Gm0oqSiVTTwaiBqQUDJAacDTAKeBSJHg08GowKeBQBYU8U8GoV6VIDQIlBqQGoRUgp3ESg0oNR5pwPvTuSSA04HFRg0uaLiJ1YmpASOtQK2KUynFCZJIzZqrdXIRcZ5p5cBDWXdfvX4NaJmEym8xLk06Kddw3VE1u4yW6U1UycAE1vB2OaSubCsoxg5q5DJGg3MKzoInSLe9I0u75azrV+VaDhTvudLa6kikDAArfs72OQAcfnXCwrK+NsbH8K17NLiPDbHH4VyLETNZU4nbJzUnXoKz9OnaWIBs5FXi23vXZGZzSiZ97YLKCTVSDS4wfmAP4VpSSE0kfAzT9oKwwW0ca8AflSrGCeAKR3ycVZgQEZpqVxWHRxfKKsbdq0KtMuZQiU7iKl4ispNYboA5rWeUuhrKk+8a1WwjL1AnBrJBIOTWzeDIrIlxRcByTYGKt283IrLAwetWIpMYpjRtRtknNXUOO9Z1sc45rWgRSByK0Rm2RnLdGNRlZM8FvzrRFuDyCKicbOoqxJlWNp1//XVqKaYfxfrUYlUd6ek6ZpAWRPIe9NZnI5oEielBkUikMhZTTAealc8VVOdxp2EFxBG6NxXLX0awudorqJTsjOTXM6g4MpzSaGgsbh48cVuw3isnPX0rlGlMYBz+VW7W/wADnFK4WOjFx6DFNa5565rJN8TwoqRCJv8AWTBBVXJ5S+9wQKrPdNmg29tji5yfrUElrn7kwouHKS/bG/56UVDbacWf52zRRcOUwwKULTsUuKCxmKcBS4paQxmKMU/FGKAGYpcU7FGKQBRRRQMKKKKAEoNFFSAhpKU0lACHrVuF98ew1WxkUsTbWFBY6RNjVH1zVuRfMXcKrdDQA0igdKcabQIaetSr0qLvU0ZHc0DICGduBTxGq8sakdwvCCq0jEk5NIY57hBwoqFpiajIwaFQls0AORQz5NJO2GwOlSPiNMd6qsSTzSKG55pjHmlfpUeePegA5qSOMs3Tilii8w1dVBEuBWNSVjWELkbERjC9arkEHdVjbk5pGQGuNyudUY2IDkiq0sgQHHWrMgI4FVmhHVqm47Mz5pJGY4qk0UpraMYGciq7lVB6UXGkzIeydjTord4m61ceZRVdrkVoitifdxRnFUvtQU8mpo5g44NUi1In3c08NVYNzUitQO5YBpwNQq1SKaBkop4FRqakWgQpFNNPOKYaAEoxRTgKAIWWoXFWmFRFeaAKxXJ6U7yqnC0uPamVYriOl8kkdKsBeKUUBYqiJfSnCNfSp8e1KBQBEIx6VIsY9KkVcmpQuKBkJjFRvCKuYpCoI5oIM7ycHip0XAqfywT0pRGB0pDGqMCp16UwIRUgHFIkep5qwj7aqjg1JvouFi8s1O35FUVap1bigBH5qFlyKsYpCnFIZUxTgKcV5pcVJQgFPFJilFAyYCngUwGnA0iR4FOApoNOBoAepp4NRA09TSAlFSDpUSmng8UxMdmlBqPNKD7UrkEoP1p26oxS0XEOMlJv96jcgc1WkuAg5qkIsM+Wxmrdvp0c6khua4zUtW8p/lkq5pHiMqAGetEzGcbnUS6RKkZwcrVVLVo/uR5NTJrokUDdkGp7e7EjfJgUOZj7MYmlXNzjcdq1fttGhgwWXeav2pL4zzWktuGXIrKykVsRWsEaoBtA/Cr8cakcCqYUq/I4rQhXcK1MpMnhjC5OBUEzEtxVn7sdQgZycUyGV+Cac7BEpdvzHAqK5BCdKAIozulrVgXEYrMtFJbJFa6YCgYqokMkHQmsTU7oKcZrVnfZEx9q4/UZme4PtRKVioI1LaTeh5qheSbJKm07LRk1X1BCWrWlK6JlEoTvlaz3XNXZF+WoGTitCSg6kVJb5OM1ZW239aGhEVAyxGxTucVoW93jA4rI8w0JPtNapkNHWW90CO1Pk2yH/CuegvQKmN8RyGqrk2LV1Ft5WqBuGTg1IuobjhqqXcqscjFFxcpaW+Kr1p4vwe/61hyTADANCTjGaOYZ0AvAR1NILn5utZST5HQ1IsnPpRzBYuXdwNncVzN5Kxc7FJNaVxchc85rJmvyG+SMUrlRiVJBcOPuFadBNHD/AK4MWpzy3E45wtVZINvJkBNK5pymoLh3X9whIqrM14SdyugqO1naI4QkVdaeaVcSNlaVxco20kRAC5ya0ftLMmI8CqCxIeeKl2MF+WqGWIr+e3f5TxRVQlhzRQBP5NKIRS+bTTKe1IgkEC0vkL61XMrdqb5kmaAJmgYdKbt2/eFPjuGX71Tjy5R70AUyOaYakkXaxHaoyKQhaKKKACiiigBKKTNGaBi4oxSZozQMU0zpQ3rQGBoGSxyleO1SyQBl3L1qtkCpI7jbwelAEfIOKaTt61aKpJ92q8sbDtSGRNz0pucU7B6U0gigADMTUb9akOc9Ka30pFD4YN/Jp02IhxzUAnKcCnidHPzUAV5JC9QFiDVyWEMMpVRgUOGFACHmhV3nikzmrtrD/ERUTlZFRjdjoItiZpxG41I3XA6UEBa8+U7s64xsQk84pCu2pCg601ufwqbl3K8nXpVeQirErYFZlxMRmkNCyzACs6aZRnmoLq96gVi3dzJzjNUhl6e8VehrPmv89DVBjI+etQuGAwa2iiWyy96x71LbaiUbk1mlTSbSKqwrnYwTrLGGU1MG74rmNPvWhcK3SuhhlDqGB4NI1jO5YBp6vioQcninBqRZZV6lD1SVqlDUDLW6njmqytU6mgB1LigdadQBGRTCKmIphFADRS0neloLG0tJThQA2pFFMA5qVRQIcKd2pAKdigBq9ae3SmjinE5oJEUc0/FCipFHNACbOKXZxUoWnbKgZX2mnBam2UmKBMaBTwKMUopCHCnHpTAadmgCIqc0hFSZFNJFSUNpR1pCaTNAEganA1FmnBqRJKDTg1Qg0u6gCwGzTgTVdWOamR6AJMsKN7UbxSbhQIlB4p4NMHSpOlJsQ/imlsUxpAtVJbnbnmqSESzyhec1hajqIjXrzTNQ1Ir3rmbu6ac5zVIlkV5cmacnPFJbzmNhzUAQn3NXbbSbyc5W2kI+lWBp2+qMoAD10ukaoCwDNXKxaBqG/PkEfWt7T/Dl9tD4IqHcl6HoWnXIYDnrXRWr5AHFcRpsckJVXzXW2Ug2ipTOeTL80PyZAp1q3G2pkxJHioCPJbNaxMmWpWwoFNUfJUUb+YamPAwKsljFTnNV7nlsVcAwhNUn+aWkJk9rGMdKurw1RQptUVMx2qWq0QZeqXJRcVy88m9ya1dXu1aUoOcViswZ6wmzogrGtpufLIFTXMO4c0zTUwtTzsAa2o7GU9zFmhKvioxCSeRxV28I696qRzc8mt0RYf5QVfSs+6O0mtB7hNtY95cbmIUUx2It59aXzagyS2AKljgLnDSACrTFYlWQj2p5mx1arkFnZoo82bNJcxW6Lm3G407iaKBlY/dU0oLN9/hfes+XULhGKBQtV5Gu5gTtJFVcOU0ZTCp/1lVvtsacKM1nlJM4kbZViI26DBBc+oouXylsajctlBEcdsCnbbpl8zeF9mpil2Py8D3peSfnJNArEouY04kjLGnSujx/JAAPeliiV6lkgAjwKmwzIZVUkl/woDRjsDVmaxI71XNi4ySeKYAZ0HHFKlyp4xmoHs3yCOlII9vGeaVgLpl/uYo+0svDYqpvA/hpc7uq0wLHnD+M0VF5e4Y2n86KALmaM0yimZkmaN1NpRQA/rSqxXpTRS8UDJyBKme9QMMDHepIX2tg0TD5s0hkNFFFIAooooAbSZoopgGaXNJRQANzSbacMUx2x0oATHNIwpQ+aKAFRmToal+054YVAeKCwIpDLI8txTSidKgzgcVGJGzQBb2xqKjYRtVZ3J70wsfWkUWGgjPeoJLZf4TURZvWmNK470AWURk75ptwu7k1B9oZcA02SdnGKQCRIZJtorYRdke3vVPTosjzSKvsOc1y153djppojVOpNQnLPirLHAqFRkk1xtmwEYFQyAKCalcmq0pLcUhopTvuyO9ZlxC0mTmtWRAB71RmygPqaY7GQbZVBJrMuEEkhAFa902zIB61UgtyzliKtDKC2u0ciqNwmH4roZ0Cxnislot7E1vFkNGTISDiomY1duIiCeKpMpzWhmOVwfrWlYXxiYIx4rH6GpA/HvUji7HYxSBhuBqUNkVzum3x4Rz9K3FlBxikbpky1IDUSkU4mpNCVW5qxG9UQ1TRvyKAL4NPBqBTxUgNAySmGlyaaaAG96Wk70tBY2nCm04UAOUc1IBTVqRaBDgKKKWgBjHFIDQ+aYp5oJLC1MlQKanjoAnAqQCmLUoFSA0rTCKmIqNqTAZSUpphNIQFqQvTC1Rl6AJPMpC9Q5zS1IyQtSbqaKcBQAB6kU5pgUU8DFIRKozTwtRqcVIGoAUU8GmBgKdvAGaAHinAVWa4UdKjN8BQK5pKcVDLeIg5IrJmvp5TiKM49qvWXh7VdQKkwmJDzuk4pqNzN1EiGW/BPUGqcjSXGdhrtbfwCjbTPOT/ALorfsfC+n2CDZCGb+8/NaKJjKulsePDw1repT4httw9+K6DTfhbcy/NqF2kXqirk/nXq0dusYwqgfSrCwk9cVdjF15HG6V4C0fTgD5H2iQfxzDdXRppkOMLCgHritMRBT61KE9OKfKZOozHj0K3DbpIgfpWhHZwIoWOIL+FWh8vBp3Snyi52zndVsgnzhcVTsnwetdFqMfmW5rlgTDKR71y1Fys0i7o6K0l4xU1wMpms6zfOKuyv8oFax2Ewh+Vanj+bk1Cv3BU0fCVoSx8pATHFVokBkGaWTcT2qWFfpSEywKgvZvKt2NWMVga/eeVCVBpv3UJas5+4nMl07HpVcPmUYqvJMNu7pmm20u6WuGTuzrjE67Ts7OPSluFJJyQKj00/u/wqlqbTtIQjYFd9HYwnuRX88MS4aQZ9KxJtUgU4VSWqzcWQkTLsC31qssVpb/fUM1bk2I/tNzKu5YxWfd3d0vBA/AV0AZHiJjXaKyZ7ifzCEVfxFMZkG4uWbh2rT023maTczcfWoZjNMBvYfQCr1ghjXJNMGiW5ZEPXOOtWLK8ilwioc1VmeJnwRU1qqK42kCkKw3VbU48xeDWMDKBnzT9K6a+YmLbt7Vy8zOkhGO9XcB6lZOHPNTpBGoyKqJk+1WlP9/pRcCUsI+PlNNE24ZAxQwVuVGTUG8LwwxRzCL0UozyanEy46j8TWOZtv3DUT3hAw7UXA2mmBzk1Xe6GcYrEm1REHDZNUJdYlfhEI96j2pNzo2mznkVHsaWsrTrW7u5AzMcGuvtbERINwyapSuFzMjsmNW49Oz/AA1rJbgdqsLFx0p3JuZcVkB2orbihz/DRTA5PrQDikBpQMmqEPAzTlXFORcDmkY88UASrAp5zzUTxlX+alQMJAc8VJMwekWQqBvHNTyJuQEVXAFSRzlODyKAImUrTSKuAJKhx1qqw2nBoAYcUClNIFoJYtFFFAgoNFBoAYSc0mM07FLigZHSd6e1MoAdTTRmkJoGIaYTSsajJpDFJqFjzTi1Rk80xi5qNzQWqNjQMQncaciF2CDvUJbBrT02Ped5H0rOcrIqKuzQt4xFCF9KeR3pxHajtXmSlc6oohc7iBikb5UpWIDk1m3+oCIFVrIuxK83muEU0ONiVFYIWTzT3qxIN2Vq7DKUwzzWXduNvHWtSb5VIrDnJZyKZRRZWkfk1chi2piiOIZq0EximBQuUHlmsLzBHKQa6K5X901chdswnYA1tAhoszNGynpWZKuSQBU6oxAyalWCtCbFEQsalS2J6ir6Q5xxU6wgdqBpFOKHb2q9FLtABagxVGYjQWjQikzyTVlX5rGWRkq1Fc5AqSzRwKOR0NRLKp70/dnpSKLEcpx1qdJfeqCtg1Kr80x3NBXFP61TWQVKJM96BjmqMsaeTkVERQMXfR5nvUTA1GcikBcWT3qVX96zlkINTpLQI0BzTgOc1USbFSrOKBEz1FjmgyZpVOakCRKtR9qrrUyGkMtqaeOKhDD1p3mY70ASE5+lRs9RvL71A8vvQA95KgZ/emu4xioS1AiUvTS2TUecningc570hXHgGnimbuKA3vTDmJwBQeBVcy46GoWuQDjNIVy6XANBlFZj3QzyabG9xNKBDFI/+4mafKJzRqGYetMa7x0arVv4V1m8xtg8oH++dv6VtWfw4Z/mvL9z6rAMfqaXKZuskcs2oKp65qW3jv8AUeLO3kkJ/i28V6TpfgrStP8AmW3DP/ffljXQQ2EUIARAAKFFmUsT2PNLHwTf3Me68nEGecIMmugsPAOnRbWnDzMO7twfwrsRGifWlJZsbRitEjB1WzPttGsrQBYoUjH+yMVbEUUf3EB+tSiIs3zGpliVegqrGbk31K+1mPAxUghI96mOKUU7E3GLGBUmBiilGKqwmJsGKQ8UM+KAc07CHCmsc0uaQUCGuu5SCK5XWF+zy5ArrGOK5vxCmULVhXjob0neRXsLjcRzWusgkIFcZZXZSbaTiul0+UM4OciuanPobTjY1sDIqwMBKhDKxqRh8hwa6kzAgPLmrUK1TQHzKvoMVSJkLI22MmuD8Q3Mj3BAziu4uG2xGuXu4Emk3Fc81ViqZx8rkqBipLUlZM10jWUR/wCWK/lTlsYh/wAsh+Vc7oHTcsadKPJ98Vga3LIs5KscVtpCYlwvSqtzpq3JyetdMFZGckcqbqTdgscClWUSSAEZJrXn8Oycsp61TGlXELghCcVoKxeRkjtR6VnykOxIOKtXG8QhduB9KzJMLn95imTYdHG8jgAZFWZ2MEJHSp7ARpHuY1l6tdK8mEbimFiFJ97tk1ctblVlQHnmsMSYJ5qe3lJkBweKLhY6ye6Uw/d4rnrhk3seKsyTGWDCZrLaKTJ3g4qJVEFhTNtPpTZL5VXqP5VHJC7fxVj39rOBkMcVn7YlysajakoOBJn2FNe8aQfItY1sh3gAZ+ta6xEqP4aydVkcwwvNjlgBTAA3323VZSLedu5SavRaVcSgY8vFR7RsXMYU9tuBEZ5q7peiS3GC9dNbeHIRhnBzW7aWEVuoVQK6KcJEFLT9MFug4Faiwc8CrSRDHSpljAFdSVguVlhA7VIIwB0qbbQRgVVguRKCD1opw60VIzhgOasRrTI1zUpO0VYA5AFRZyaCxJpU6igCVQUFMIJbFTScLmoovmbNIsUxECo9pFW1kUHDVHLGeqdKAI4pPLf2qSdARvFQFD6GrEYLptNAFXikp8i+W2MUw0EsKKKKBBRRQaAEoJpDxTSaAAmoyaUmoyeaBjt1IWpuaQmgaEY1GWpWNR5zSGKTTTS0VQyNqiepmqFhxSYERGTmug02PZACaw4V3SBfeumgTZGorkxE+VG1NDurUHgGnheTUUzbVNeedBmXVzs3AViCNrq7Ab7ua0Lo4yepNLp8XzbiOc0JXZRqQxCKIL7Ux15NThelRkYz71oBl3Y4NZJQl62LvoaoIgyaQ0RKmG6VJjIp5XHNOABAoGUbhMowrjrmLF2wPrXczR9eK5W/gK3ROO9awYMqLH0FTJFUkaZwamxgVrcCJVqQRmnqntUoU+lBdiDy6aU4qyRTCtIkoyRk1D8yGr7JUTxg0wIY7kg81diuFI61nvFjoKh3sh60wvY3RIMUofNZEd5zgmra3II60ikzQR8d6kWbmqCy8U8SCkVc0xLxShs1nCU1MktAy7gGmsgxUay8daXzPegYwx80oUipAQaXigVxgyKcGNLiigRKrVKr4qpuoEmO9QM0VkqQSCs0TU8T8daANHz/AHpDP71m+d70hmPrSAvNP71EZs1TMtIJKALZfIpm7JxVcy8cZzUsMNzP/qYnY/SmRzEm6gTgHPatGDwnq11jbFsHfccVt2fw4eTBuLrA7hQaDJ1VHc5GS6XHBqNJJppQkKPIzdlGa9QsvAekWvzPAZWHeQ5roLXTLa3QCGBEA9BimZSrroeQQ+Hdcuj8to6A924rbt/h1eylTNerH6hF3V6ksAB6CnBFzQZuszj7HwJplvgyJ57D/nof6V0Fto9tAgEMCRgei4rT2j8aXpT1M3NsiSBEx8oqYKo61G0gzxQSzdOKZOpJIygcCot7N0p2zPWpo4xjpVARxxnqalXrgUrDAxSIMGgQ7bzQSBSFgOO9MA5yaokeOuaC2KTcO1IF5yaYD+1IWxTSfSozuzTGyXg0oOKjVucU/aTQSPpCfSnHpTQKOghvJrA147kIFb7NgGuf1b5s1lW2NqXxHHiNvOzXS6SxwBWd9lx82Kv6crD7tcMF7x01NjcTfvFW2ZhH0rOty7SfM2KuTOVTANdSOcenriridBVC3bditBORWqM2V7w/ujmsORRurbv/APV4rGYZNaGlMjAp2KXFLig1GFaAtPxSgc1QDcUhQHtUuKMUAVJbSOUYdBWZc6DBL93j61u7fWkKegoCxydxolwiHy2yPY1jSaXIJD5gP5V6Cykdqhkt0deRzQKxwq6WnYfnVhLBVbpXSTaYvVeDVCW1kjznkVlqIoG1AXCiqs1vgcir7sVHWqcznqTXPIUkZk/7sHbwayLyd24BFad/I54GPSsbyZJXO7gCoOeZFAQJAV4NagEjR8Gs9IQJa1ogdmMGoehkQxBweRg1q2dy8WCSaqImOatRKvpQpFo6G01JHAD8Vrwuj42kGuRVgoULVmK6lhbKMa6IV2txHYITUgOawLXWgDiXP1rXhuUlUFGB/GuyFWM9hlo7u2KYxbHOKD7UxuvNbALRRRQM42IfLSOeacvC1ExpgBp0P3qiBzU0X3qAJpelJGoVc+tKwLHHams2FxSAY5w3FPjuNvB6VAxzTRQBd+0p6UhuF7VSwaXmmBM7hj0qImmk0maAFopKM0AOzRupmaM0ABORTN2OvShj6U3GU5pDQM2eKVYstmo246VJFLsPzdKChXgcc9qqsdp5rS8+N+9VJwhPFIZVb5ulAU5qxEEJ5qwUixQBnMuKTNSOBzUWeadgGuahZjU0mKrSPgVLZaJ7Eb7pfrXT5wgrnNJTdd57CukxkV51d6m9NaCLnHNUrt8ggVckO1Ky5n3ZrmNblCUbqt2aYNQ7M1dthitEDLf8OKYeRin5FBTnNUIzbyPAOBVCNMHB71tzQ7wTWXJCyvn0qGNB5Hy4qFomU1oQsrrgnmlki9qZSKQQNwRVafS45jkIv4itMwleQtKBTGYL6Lt+7+lVn0twehNdYqL6UvkBugo9oBxr2MiDpULQsvXNdubJSPu5qF9NRv4B+VWqgHFlT6U0riutk0ZT/CKqSaID0FUqiA5zaKayVty6RKvTFVH0+ZOqmnzoDKaLPaoHt8/w1qPbSD+A1GYWHUGndAY72w7DFQmGROVJrYMfqKYYVNMZlrPKn3s1Ml4KtNArdBUD2ee2KAuSJd5B5qcT8Dms42coHX6Unl3C+4oDmNdZ+M5qQXB44FYu+4UYApftUq9VNAc5uLPjipFuO1YIupM8CpftUmOVNAcxs+fz1o88etZQMxwfLk/75rQg0zUrvHlWU3/fs0BzxJftAAxUfn8cGtaDwTrMsYfywuexrTsvh5fycSyolFifao5cz9jSCcqtehw/DSFlBmuDx1xWrb/D3RoyA0Rc/wC0aCParseTmSTAwtT21ne3UojgtpZGb0Fe1QeFtMt4QEtUyP8AZzWhHYQxYCRIPwpaEyrXPIrHwVrF0/zxrCB/fNdDb/DgOVae6b32DFeiJEoJwMU8gbDxSInVZyth4J0yz+Uxea3q/NbkGl28IASGNAPQVd9DUgGQaDLmbIRCqDgVLEB0A60Jg5BoJwcignfcUrg8U7bgZpD81IM5xRYByuO9G7mmkBOTTXl4+WqsA7dtJ5pmS3ApI1ZuWqYAAcVRIixjHNK2dwC/dpEkDPsxwKnCjtTARXUA0rSYQbajbaJNmfmpdmAARVASg5pjuI4y1NZinFAXfGQ1FiRIz5gyBTpGSJdzGm7towOlMZPM+VulMB6HzF3KOKlYgLk0wgRxhQcCmYLDrQA4Dcd1SZAXnrTeEXOaFBfmqJBAS3PSpWOFo24Wgc9aAAZxRuwKdxim4oY0IT+7Oax7iESzVqTPhMVSTLS5xUMtGdeWQSDIqLThhf8AgVa1+v8Aop4rK0/JJHvXJKNpGyloaCEeZwKnmICdKZHGA3WpJ0Ur1ppENhbkE1fTIFZkPyuMGtKNsitYbEMgvTlMVk4561q3gzWd0NbFwIsc04UpFJTLClAoFOxQMKKMUYpgFFGKXFADcU0rUuKQigCAr7UwxKf4R+VWCKTFAGTc6XHKpK/K3tXPX+mzRA5BI9RXalcniongV8hhkVEoJkHlN1bzM7ZO0Cs6acxDy41DMe9emal4ejuo22fIa5O58OG0l3OhIHesJU7GUoGPp8D5DSJWnnGABUnlqqgKaI1BPJ71ytkcoqop6ip0CDtTP3gP3OKUFj1XFK4rDzgfdqRWJHSocNmnqx9KVwJ8ZXgVJbzSQtnJpiEhMsKA2eEBppgdBbaipA3nmrizK7fezXL7WIGDg1LBdvAxySa64Yl/aHY6cHiis631JJFAYqDRXWq0Gr3EYWflqFqeTxTc1uMavWpYz8wqMUobBoAuNhVzVWSTtSNNuGKiJJpAOLZIFLTR696F54NADtwpC9KRTDTAN1FJS5oAM0hNITTS1AClqQtTS1N3UAOHy9aTdyfShiDUZ+U57UhodmnpGXPtTANx4q7AAke44oKIWtdozk1XdSDirc90p4FVT87ZpDIQxDU8sSKeIyW6VItszDpQBUY0w+tXWtSOtVblBGtTKRUY8zKsr+9VWfOaV2LGo9tYOZ1wp2NvQxnJrdHBrG0Vdsf41syfIua46z1NCrdSc4FUXHXFTyndmof4sGsSbESKauQjFRACrEaVogJMHFPP3KB0o3c4piGDlM1UnUAE1cY7RgVDKu9cYpMpGcsZzkcVbjlHCtSEbRjFHljGcUhloICvHIphhFVo5ngPJytXobiGYcEZoEReWw6U5FPcGpyuaXYe+akYynDFG2jaaAF2r6U0xKe1O5pcUAQNbqf4aiazRu1XMingg0XFczDp0Z/hH5VG+lRH+AflWz8vpSYBNPmC5gtoUDnOwUx/DkTHASukVV71MipjdVczFc4//hF1LdWqUeEEPUtXYBRu+lSKeKfOTznKR+CYGAyW5qZPAlq2Tlq6+LbyPap0KhRV8xDmzkk+HtlxuY56mra+AdLAJeMkHp81dOJl3EY7U8SqUFHMLmZhQeCdGgK/6LGfqKvwaBpkSDbaRjtwtaPmrvH+7mmLOoT8armZDmwj060TYqQIPwqwttGA4CKB9KiWb5xg1I0hG4etK7FqPVUCAYHFOAUSg4qFSTFmpUjZnU0cwiUbQrUFlO0mowjb2HanNEQg5ouBKG4OOlIpLLnNPXGB6UIQrlSKAEX7wzQR8/saGIK5oIJANFxMfwVxS9BmkTBah8qcGmDEACnPrUgQFD61GZIyg9RUL3YTOKZJNG4UndSPIN2VqqC03zdqlQbG9qoYrOznmniPoetMxl89qmVgnJpgLjan0pFbNMuWLwkR9TSQho0UNzVEkmNuSBTklyM0xpBsYjtUdvkpuagCYIPPMp61MJhjmoWwEZgelJCfNTdiqEKQZJwxPyipw4APFNCbBmo0bc5xTAR8tJu6LUi4HPWlyAcHpSKMnjpQIjl3Ow9KcMpg9qkXg4PSoXZnlwo+WgCQrv8ApUiDbxQi9qOd2Kokewz0NHQYpRgUKQxoAagPU05jhacSFGKYxGw0MaKc0nam2xBkpkpy+KfAMPmpKQ+8G6BqwrLiZl/2q6OZMwt9K5yI7L0isKqLiaShg/NSzRtsytMLYxU43GI81mgZWgJD81qxEFKyVYb+laEBNax2JYXa8VmkVrXK5WsxuG61sioEZFNqUjiozTNAAqQCmL1qUdKAGEUmKcRzSUxiYoxS0UAJmkpcUYoASkp2KXFADKKdijFAERGetVp7NJlIZQaulaTbSaTE4pnI6hoRXc8a/hWC9q8bkOMV6Q6AjBGayr/So5gSq/NWE6KexDiciFkTq3FDA5yGq5LbywPtdelLhQvKiuOSsZ2IE5XLIDR8oPQipkVWXCgimGHBz1pByjS46bjU0ZUDtTGQdwBTHUjhTSDlLW4Fvl6U/wAtGHvVA7h0qQO+3mgiwroAxIJBHpRTSS3U0UrtFWI80ZpuaM175mOopuaM0ALgUuBTc0ZoAdRTc0ZoACabmgmm5oKFpMmkozQAmaTNJmigBKDRRigYhNRkinlabtpWGhyNT97Y601EJq0lvkc1DY7FZIWc1ditB3qZI1QdKlGDUtlqIwQKgpDgCpHPFU55lQHJqLlqJFdXCoDzWLcXBkY4NOuJzK5quVCjNZuR1Qp2I804jimk88U5cvIq1JodJo8W23U9qtTtufHakt4/ItFX2prHniuSo7sgqSbg+O1BAqUruNMx8+BUoQKPmFWBwaj24NSCtEIep5py8vTVHFA4NMBJgCNoODUecIB3p5yZBUcgOxvWkASKGQUHiMKeaZAxMY3U8qNjc89qBsbsBToCDULW/lbnSnWqvbw+WzbvepDKQ+09KmwxlrdP9QKvR3MTHBGM1TSJRllGKRB5shXpiiwjTG3tQBjrVAb4xy9OF6VOGGaBl0qDTdhqOO8jfgnBqcMrdDSsK4gXg8dKcseealCAoakVcJnHSkBCkRJzTltyZM9qsIuIwcVNEuQTinYkqm29B1qX7MwQACrSsu5VxzUquNxyKdiCiLaRfmxUi28gA4rS3KVQY61IJEBYEdKqxFzPhgkcMcVJDFIzbT2rQR0ERIxyaXeiyjgcinYCg1vLvZcnFSfZ5FVeSat+evzUNMBsx0osBGlsxJ9cURWQKtuNSpN8789qSKcFDn1pkiR222dQelW5I0K+9VXkIkSid3VNwoAnQp5OMYqRXUMoqtGC8Oc801QRIuTQMuFl3sKCT5TEDgVE5Tf97GKGvIo4XV2FBBJA4kAzT2VhN1ytZQ1i3jj+TFRvrEkuPKjJ98Uw1NospQjpTDcRxJzIKxibyZcM2wGpP7O/c53s7GnZjLD6tCDhcsfaq7Xl/dT7YkEcXd3FWLWxit1yQN1StJjhaqMQGLbOo+eYtUixKRzzTkJcjdTnAQ4HU1SRIySYW8DOBwO1NtZ2uIA5G2nlA+c9PSlwEXAGBViJY24xionuP9IEfegOVA9KAF8zeV5oAmyRSuVCCmq3tzTvK8xgT0osIVUzHnFLjaoFTAgR7aidS2MUWACC30qWPCJSKQowaRz+7wvWrEPJ3cU1V2c0kR2jL07eGyBTAjI3tU0abaI1xzTwc8UyRg+Zqd5dORcHJp+R0oBjRR0oFB5oAOtHSgcUHmgAIyaZKcDFKGwKglYsaQiA/wCspQMvxTHyGqaFdxoAtgbo/fFc5cL5WoZx1rpV4rA1Zdkof3rGqtDSBaHzJk1YhIKYqtD88KkGrMAK5FYmhSl+WY4HetC2Zio4qndKRJu9altGOcZpxepDL8w3R1lSjDVrjlSKzbhcNXTHYcSAnimmgmkJqjUUU8GowacDQBJSUmaTNMApKM0maAHZozSUmaAFpc03NGaAHUUgNLQAUEUUUAMNN2g9akPNJijcDPvdPSZDxz61zdzbyW7lXGR612h6VSu7RJkOVzWM6VwsckpK54qZQCop1zbvEcEdKjRwBg1xSjYzsDx5HFRGM1aXk050GKmxLRRMZHGajORxirTIeoqtIp65qRWEXPmLRTMn16UUCsR5ozTc0Zr3zIdmjNNzSbhQA/NGabuozQA7NITxSZoPSgBCaM0hpKChc0hNJSGgBu7mlBplKKAH0uKQU4CgY00qIWNSJEXNXIbfGM1EmOIyGDAyashQo6VIFCiggGs7myRGRmgDFOI9KYx2g0ikRzSBFJrDurje5Gas3111ArIcsxzWZvTgLnOTUTnjk08nFQuc8Vm0bi5ArS0e1M1yJD0FZyruKovU8V1umWwtrMZHJqJSsKbsWmx930qFl5NSsMRkjrUSsWj561zdTMrqpVzmlAGeKkcDp3pu3Aq0QDCl7UN0pP4aoZIv3aTrmlX7lMJ4oGhFba22myMEUNScHnPIqF2DZRulIZICNo496hmmKTRjqr/+O0chB1xTchwON1AE7MuMDpVdk8u7WQvlfSnPkJnuKeib9rYosA8XChjx+FOXBbcvGaUQAPux0qVY2I4GM0WAgOWfHYU7y1ParKQ8dKcFXdtFKwuYzRbneTyKkKToQVJNaawAk8Yp7whFBxRYnmM+K6uo8gx5X3qxFqYYbXUgDrirSQ5XG3g0f2eIlPy9elHKK5Il9CY/v49qt291CBt3ru+tZJtQT05qjLaSJdBxkGqsI6qJU87duBqVo1LZBH51yn2i5gA2uamF7d8HfmiwjqCnChe1Kyb0OSc/WuYGq3kbZPSlGr3RyMUWE0dNBkAIxp8kTecCDxXNf2heBWc4pE1W8kBI7UAdGUbdxT5UIhAHWuc+2X5QHPWla9vpZFjU5NAHR2xIUhyKYHjjfG8YrDSO+bhnIzSS2NwGG6Q5NOwHRSXMBC5ccVXk1WAblzuAqlBpMgjVncn2qf8As2GKBpm4C9aqzEPXVeAscZJqg13qlxfbFQJF61pWMMUyeao47Vf+yxnBIB/Cr5CLmMbe6djvnI/GpFsEjtX3Ozua03VA23jJp4UAYI4xRyBcz7LTohCHmUBvStOOGBMYApsiqkQY9KiHqDxVJJCbbJXlXzNqilMm0cVF8vYfNTip25agAEm7vUipmokhOc1aVNq1QDtqqMnrVW4V5LxG3ERqOlEM4mc7WyAat7d3PFADQQB0qOZm8ltg+Y9KJHAm8rPzelKqNnpxQSMt0YRjzjzU4xj6U10JXdSqMjgUALBmSQntV3auKgVNgz0pVcs+B0q7CGM377aKnVdtN8kb9/enuduKLARTOIyM9TUiAHk00oJeSOlDHYooEPkIKU2FQOaFXJ5px+VCaYD8fLxQgoiO5KUnaKYhWOBxSLkmlVg1O4FAhDQKAQxoJ20ABoFIGBoLAUAI4wKi2Z5qUEMKRxhaQirIualhG0UYBp+MLQBMvSsjXEzHn0rXTpVDV03QHioqK8Rw+Ip6c+bcbWq4hO/qay9JcgFa1gR1rlRuR3RCp1zVe0lxJ0q/KvmRH5Kylcxz496b0EbsZ+Wqd2verUPKimXaZjroi9CUZRNNJpWODTCa0NhwNOBqMGnCgB+aM0lJTAXNJmkoJwKADdSFqjLUhagB5ak3VEWpu6gC0r1IDVRWqZXoAnopoOaXPFAAOtOxxTB1p9EQGkUwinnmkxRKQFC8s1mUkDmudubRoXPHFdgwqheWqzKSBzWFSmmS0c+mSBxTiDT3jMZK+lHWuSUeUkbtyKqzx1fUZpskeRUNEtGMQAc9KKuSQgE8UVIrGRmjdTS1MJr3zEkLUmTTAadmgAzTgaZSigCQGnZqMGjNADs0mabupM0DFJpKSigB2BQBSZpwoBDgKeq5NNWrUEeSDSkyyaCLaORVgcU4ABcU01gaRiB+YUAY4oHFMY0FjqpXlwI0Izyankk2ISe1YF9cF3PNZtmkI3ZWlkMjGmDgUgIpTWdzsirDCepNQZy9SycKahQ5ansMv6ZAZbxfQV1rjCqtY+g2/DSmtojcc+lc0ndmM9xmcCmhhSkbsiowhHNJGYm07s0P0oLYIFObBxTGRE/LSDkVKyjZimgALTEg/hxUe4cilPAqHaxbNBSGqNsjN69qZKuXUirKwnq1OMQXmkBEi0sdrtcnsashVGKf0IoAjFupAJqQRBcDGKlVRioLuV4BHtG7ccfSgCRlXZjuaeqrHEB60hXcgPpUV2WgtWmA3ADpQSTIykY/Wo7W3eKZmZtwJ4plgxntlkIwT2rQjXdwKpEsbvVJBuHFLcoZfL2f6sHJqotxvv3gK521pIMHA+7VxEWECeUp4p7lGgkCD5wOKqzyLDGhboxxVhYmCbvUcU+Ui5V0+LMDGYfPmpJLdGHIqyImEBZRz1NMs1892OflHWnyhcyTZGS+zj912q59iReCOtaqQIjYFRtteYoo+UdTRyCuZdxpSyoqoOjZNTnTVDL8vAFa6qqIPeo5ifMVccUcgXKP2KMwMm3IPFJBZJFC0aRgAVqqIxnNNmMfkFkHzU+UOYqQwptHyjdT4rJRMZAnzGp7WMLEGfqanDoCQD2osK5TeP8APNSvCr7W/iXpTIiRPIX+72qYOgHNOwhGchsClx5qNG/3TTLj5thU4VepqRivGznimAR7oY9mPlHShHfJ5+lLJKq2rDq3aobVj5OZfv0AShMv5n8Xept/TJ5qFXB/rUm0cn8qACb94oWkKfKF7VHuLVMCBEXPakBGWVDtxTuXGR2qCE/aJC2MAVeQInGM0AJuI57UpZvLI9RVS/uzG8ccUeS5q2pOxc+nNUIr28CwDap61Z3MuMVHMwhQydhUlrIbiEPigCEW7G8M+e3SrQkGOak2gDFQAq0+zHSmSNuEaaJUU45qeGLy41XNSLGByRSSMsaZ5pgPJzGQevao7YFQd5yacgJOakAUAk0wHFx3qJid2T07UAiTNLnbweRQA4MAOKYVLnNJ1bipOgpiFztXFOQllwKhkyRgVPFwvvTEOUbRSMNwwKc3K0idOaABFKihxkYqRvu8UxRxQIRE20jZbinO2BxTI8tyaAFVQvWo3yTgVI54qNQSc0AKvy08kOKiZuMUR5FAD1TBpxXccUhJpVBBzQBKq9KhvV3QMMZqYGmyjcjD1qZK6CJy1sxS9KYwM1t7A4XDYrGucRXoOa1YX+RSBmuTZmyLqqfLxu7VjXEZS4znvWxGQQaz7+PB3AUpbCLlm4ZBVmfDRms2wY7cVoAEqa2pvQT3MOQbZCKjzVq7TbJmqprVG62DNOBqPdQGoGTZpwNRA08GqGOPSmGlJpDQBE3FJn5adIcCog2aGEkIWxUBlG7rTpmwprOM3z9alhGNzTV6nRs1mRzVbjkzVXKaL6tUgNVkaplanczaJaKbmnZoELS4pBTqAExUUid6lNMbmk0Iyb223gso+tZLZQ4rpXTtisq8tQCWA4rCpC4mionSlbGKjVsUpbNcjRJFIM0UrjNFYtaiOXBp46Um2lGa+hOcXFNxzThml20AJijFPxSUAJRS0UAMopcUoFAxMUu2nYpcUAMApQKdijvQNDkQmTbWnDHtSqdsmX3Gr61m2aRQ4nijrSYppbbWZpYGpjGlLcZqCeYJGfU0Fxjcp6hcbV2g1hO+5qsXUxkkPNVtvesGzrpxshCDmjJFKTTCeDUmoyZ8IaZb5P40kvCVY02Lzp0X3oJex1umxeVZp7irZOEpsahYVUdhS9q5+pzsanNI7DpSK2CRTCDvzTEDL0prZyKkJpDyKAGnJFR85p5JoUZoBDcZFSRoCKQrSrkCmUOJUcUDaVpk674htODS4PlKPSpEObaMDNLkBRkcVFJGXlR88DtU7srDjt2oAA4TjNOOCvzCq86eailDgg1ZeRSgXvimIgaTGTn5RTll8yDaRlTTnhWaAxjjPenQxiKAR9xQIYE2JhBhRT4Zj2PNTRBZEZT1qGxtmilkMvc8VaJZIFTz/MRfmPWrSh/lx3pY1QP0qdIme6U4/d4q0JiSW/2hFRh0ORU8quka+iirY2DoKZcfPtCDjvWhncZC0kkJ4wDxUMMDQswU4FXo9kUeDwKSXEtuVXg+tArkSIzsTnOalW3KNn26UyIiOEAHkdTUhuTJHnHtTuK5Gqlj97pUkacYfk54qG1DQ79wySeKmkn2uvy0XC5FO6xSBd3J7U+KPJ5zj0qOSES3KTEdKkkkKnNICSYLFCZC21RxUcIMi788HvTZgLm18ps461MjLHbqiYAAoGOVVkJGOah2LK7Rq33etSoxySnFQW1v5DyODuL8mgCVYQQUJ4olURbQTyR0pnmMr89KedssgcnJWgBFjAYE1MIlCnNRSSnOAORQsjvxSAcpVAaa02fu9KYR+85NJCYxNjPGaYDizD2FSoC6YycVXmdnvkVP9UvWr3yhQE70ARxIIwccA08dM5zSFtqP6kcVBp4fYxlPOaAJyqswYjkdKXLU87M9aquzm9C/wYpiLGAyfP0qdHCRhY+lQjYeDUjkCI7OtADwzcHtUiqA29Rkmo4RiIbjzUqOinGaokcXfO31oKlxg9qhKtJc/e+WrBKovXmgBoyqU4dOeQailyY/lpyNhBmmA5flz2qMEM55zSPISSO9Rwptyc9TQBbVQpFNmlAcAU3ceKRk3MGpiJgMjNOLbV4qM7h9KVAWOKYE0bbutKxxSIu2lPzcUCFU7qd0pFXFB54oEAKnNGABikVcUpwaBjABmkx1p4UjpTHzQIgOS1SDgZpAMUuc8UAORgxqSoVXbT92KAJFORUmPWoo+tSZyaBHParEFkLY5zUtnITEKm1iLK5HpVLTX/hNclRWkaxNWOYKwGKW9+aA4FRlBvyDVho98XXtUspmZbTYfHStiMgrWE8Zjn6Z5rWt2LRinSYitqCdT71lsa3b1Ny59RWFJwSK6EaQehGTSBuaax5pgbBplloNTwahU1Ipqhj80UmaDQBFKeDVcNirUgytUn+U0MY24b92aw5Jtsh5rXuG/dGuZnlxMeahmsImpFPk9a0oJc4rnreXJHNa9s/SlcJI2Y3qwrVRibgVaRqaZjJE+6nBqgBp4NaEE4NLmogafmgB+aQ0maKAEI4qvLHuUg1YNNIGOaloDnrq3MTkjpVfNb1zCrqaxJomicjHFctSBLAYIopFJorCxJzJUnFKFxUmM0bea9s5xoWlIp+ABSEZNADMcU0ipKQigZHinYpcUoFADAtOxin7aekW7tRcCLFJ0qaSMp2qA9aQhc0gPNIelOjGWpSLRftxxVzjbVeBcLU5rFmsRDmmk56089KhY4NIoHYBcVjajcbvlHar9zMEQnNc7PKXkJzWcmb043ZC5O6gGmk80ZrM6hSaaTigmo2bigZFM+Titrw7CHmLnoBWE3zEV1fh9Alruxyamb0M5PQ28ccUnO3NLuyKYWwcVkjFjSp3UrdaXqaXAPWqEJtGKjI+apDxUW47+aQCM2DimqTyKJQGIINKpGc96AGiQ79hp7NgVGwG4tSBsjmkMWGQyqDTpCwjPtTYkCZC9DTyeCuM0gC3JkQN606VWRWYDJAoRQkY2jFTQHeOeaBEUCNLCHxg1M8ZWEvjJAqXaEjB6LUqJvHqKpITZFaRs8Kv0z2qy9uWj8zrtp+3yY8Y+X1qzbgmNf7pq0iGyjZ2xZS5HNX47RfLYt9alRBGnHFToh2exq0iGypaQrIxYDgVdjhCvk8CkiTyUJXgUuWZcmqRJGhElzIq/dFSqh34HSoRCUDsnU0RyscDPI60wHTOpmW379c1Mm1Rj0qN4Q7iX+IVHuKyFSeT0oAfdskZRQPv9DSIm0AU4xmQ/MOnSmTErjPHagCwPljZhyV5qnAwuGLdOeakjVxHgnr1pyQmLcyjg0AWFVRwP1qpNIDfCEqfr/DS5bdnPAqbZnBPWgVh+wKAMCoLxxbweYozTnZhwTQ48yPBHH86QD4WDQhicE1IgAJ+aqwjMYAJ+UUibmPHFMYKwmmcHgCp0EcfeojD5YLDqaAu85oAcAjOzHt0qLewbOOKGG1Dg9aFO2IbqAFGXc8cU1IlLEdzUgkDRkJ1p0SCOMsT81ADlQcAD7tOmkCEZ4z2p0Uoxg9TUN5b/aZkkBwE7UCJly3OKesZ6gU1JBtC45qcSL5bLmgCuuHfKdutTCImobZBAWB5zVjzQtMRAwKSYqWONiOaY/7yYN6VOshztAoAlVQEPPSmR7HyQaaGJRl9abbxeTGwFUIsopByO9NmdRKE9aaJGUAUGPfIJO4oAnUDgU2UKq5ppdl61E24/e6UwHoFb5qlVQOtRRr8oxxUyqGPWgCurE3JX+EVcYKEpgj6cc0rEA4JpiIZnKbQnfrU0fTrTGXBzSthADQBI8mFwvWkgL87qYjLjNTrjGaLiHlgKATmo1ZS1SDFADs1FyZOlOVvmxT6YgDYqIHLnIp5IzjNLgUCEIFRY+ap9tGwdaBjKiJJap9tM2gGgBycCpB1qGpEPrQIiu4BKh+lYESeTdEe9dM3IxXP3y+Td5x15rGrHqXFl3HGVqeDJTDGqsUuY84qaCXMmDWRoVLobJDj1q1YyGo78bTkCo7OUVEdxPY1JF3RmueuxskaujHzJWJqceGzXQiqb1M3dUJNPNRPwao6CdG4qVWqorVMrUhFgNRuqINS7qYEhORVKarWarTDINMZUnP7o1yN9LtnbmusnP7pvpXC6tIVuTj1rNm1E0LOXJHNbtvLjHNcrYycCty3k6UGkkdHC4KjmrSN71k20nSr6NVI5pIuhqeGqsGqQNVpmdiyGp4aq4anhqaCxNmjNM3UZoEOopM0UAMZM9Ko3cAdeOorQpjqD2qJRurCaOeZCh60VoXUA5IFFcsqTuScelKTSDjNBOcCvWOUOtA4o45NGaAExmlC0g61Iqk9BQMZto21LtPpTCMUAIASQK0reH5OapQLuetVBtXFQ2UkU7tQFxWWRzWxdjKk1lOMc0JiGEVPAmTUWOau2ydOKTKRbRcLQw4qXGFppHFZSLREc9KjbipWIFULy6EYIqDaMbmfqUvOAax25qxcSmRyc1WNQzqhGwhopaaak0GsaiZqe1QsaAGLuaZV9a7rTY1jskGMZFcVYRma+Rcd67qEBY1X0FRMzmyZMc0jDLZpO/BpV561BgLtwM5p4INM/hIpg+WmMJZNrYFMZsjihyGPFMLFaQAoPO6kkOEOzrTgxYcVHu+bFACq29MNwaayHjbUhXvSoc0AhVGMZ4qRUBc80wIWbrVhYyAWHakIGVWXbnFOtlCDbSQxmQMTxg1OIiFyvPNVYRIQJI9npVmMhY1GOlEFuO/U1MYgJAvrWiRDZHcwNcQqM981ZQqkSr6VIkXAHpTJlwwXb+NUkS2NnXzQmw4weat+aqEA9MVXSM7wD3qOdtl2sXY07Elp5BLCQvBzSqQiKDTVXaRT7sLFCH/iPQUxA0g8t1XqRxVezjMUZ38sTUqITjFSsgEZYdqBgJUVgp5qsIWN607H5QOBToIxL89WRCSMZoAQSgqM1U1AGZYthwAcmmCQSXxgXqvWrRgx8p5FACKwCKPapvN3QNtHOOKq3YWBFLHAJwKkjVgigetAFXT0lRXFwdzfyq756Dgj8aQIQGbHHeoECzZ284oAjn8xtTQ7sQY6VfeZBEAOlQtCTGDjpUIwXK9qAJrpt9sAvBpEfYo9qeijG0nNQuQJdp4FADjM0hIxTTKY0Hqaeu3f16VDMVLigB6IXfrTboiLAc4Bp0L7Hp13EtyEyOVoASFOQR0q4I+M9qrrlQAFwKnWZjGU2/jQBWtXWWdyjZANX/L4PrVG1thbOSv8XNWvM4JoERzhIYlZzjJxUsa/ID1Bps0S3UIRl+7yKkDFIwMcCgCTyd/IqFNjylR2pySNg7fxoiQBzjqaYiVYwD15qO5kEQAUZJpspO8DPzVL5e7BPUUASRITED3NSFQDzTN21OvSmA7jnPWqEMhYtcMOw6VZG31qNIsZ4qMhlJGetABdSMrLsGeealJDIPWgIGNK4VVzTAEPDDvTIBICxY8Uqc/NUo7igB4ckVXdHa6Dfw0LOpfaO1Tg4GKYhxYAdOlRSHzU2iklbygPQ0JzyKAJIwFXBp3mDoKYTtQsabBIsuSKQiVBtOfWn7qQGm+Yu7FADo1O/NSscU1WApksuDVCHBSzZqXpTYzlM0rHCZoEKrbhT88YqKM8VJQMMUwjNSjkYprCgCFTk1IMUzbtNHIoESjpWbqtvvQSAcitJT0qO5TfCy+1KSuhp6mZaEtHgrUyuEk4XmqluxWVk3dDVl0IIbdXMaEl0C8OSKzoGCvj3rV+/Bj2rHkUxT1mxm7A25Kq6nFuQsPSktJulW7hfMgI9q2i7oE7M5R+DioX5qzdrsmNVC2Qa0OlO6Iw/NSo9VM4NSo1IZbDU4NVcNUgagCbdTJOVNJuoPIoYmZ1z8qNXBaq2btvrXe33ETfSvO9TfN431qTooliybpW5bnpXP2ZPFbds3SkbSNuBuBV+KSsqF+lXY3qkc8kaSvUgeqSvUqvVXM7FxXqRWqorVKrc0yWi0DS5qMHinA1RBIDTqYKcKAFpCKMilPSgCtKm6ipSKKQWPNxL70hkqAKaeFNdJxkoan7uM1Gqmn4PpQA9ORV20YZweaodBxUtvIUbJoA2GRT2qrNb8Eipopg4qR8EVBZQt+JOlaO4nGKhEKqcin5IqRkV392s1zmrd1Jkdaz3bJ4pgPUZcCtSFNqA4rNgUlga1U+WMZpSGkO3UxnAFMeTFUbm6CAgGsbm0Yj7q6CA881hXNyZGPPFNuLhnY81WzmkzphCwh5NNOc0ppue1QbDaM0o703vQA1hUD85qd+lVzxmgC3oYzqIrtAPlrkfDqFr12xwBXXDJWsZ7mMhRwKM0AUjdKDIViQhIpqSB09xRv7HpTBt5K0AJIG3hl6U9wCB71CXZGHHBqwecD1oAaieWpNJtDNuqUqduKRU5xQAbdy7aekO0YqdECkE1OEXaWosBCkPy5xzUkcR3cdKkQhlxipVIXtV2JI/JKngVPDERwakBD4PpThJ89VYkURsZBt6ipjAVbPekhbY5Pc05ps76ogcp+b5TVjyt61nxExL65NWorj71AEDMTcbeuKlaLLqcciooFKzs55zVnzRvXNMRA7sHCmpQGkwH5x0qvLuOoBv+WdTpMDLz0oAcwZfYGnLuZCo5BqvqJklEXlHHrVuLCxqB+NAEeDEnHaljk3c5IzU1woFpIycydhVKzLNGrTDa+elAD0iVLoyoME9amZ8NnqKkTBbHrVC3mkm1KWMxbUTuf4qYh9xD9rChh9w5FTOxiP4VJgKeDiq1/N5KIcZLnAoAeJw0RTH3utEW23jO1etOEeI1bHNNmYiEsByKQwackZxVVg6yZ9adazedFvbj2pzOrbsjkdKAGxu3mYqZ03nPtVaFiF+brmni4KvtxxSAarKdwXqO9SxoGcg1XjRkV8DqacrOG4FAA86i98gdcVcT+6TxVWO1Jn87uasEbZAPWmBPeTRW1oZZOnanWzLNAjrwrd6gliWeDypeVqSAeXGIxwqjigCxtBOMVn/aR/aLW2DkDr2q2GOeDSC1jaTzcYkPWmIkGEXOcUy5k2WzSDnApspx16UnLoE6rQA+zk3QBmGCanXaJMg1XjURqRTYXWRjjtTEOIk+2Fs/J2FXAwxzUajJHHNExEcoG7k0AOug0lsUjODTLUFIdrnLetT/wjnNEqHyiRximIVZCnU1F5bNMZATg9qZA4lBCnJFW0GFx0NIBm4hj2psuZI8d6SYhMA9TUoj+UEVQDY2CRgEUGU5yBxT9oERY9qZCBMpCigCKNAjFscmpxJuGDUgi2/Kaik+SQKB1oAWVRIoz2pFfaMVaSHK81DJCFjLY5oEB+ZdvUGmrF5fAFPt0ITnrUpwR1pgRYJ6GjyzShW3+1TMQBQBXJK8U4LuGTRMMrxSxHC4NSA5MpT1beabkYNMiyGoAsgAUo5pAVx1py8HiqIFAxS4z2paUGmBC4qOrBGaiZcUCBTTzzUOealXpQBgXS+Rf+xOatk5QNUesRlXEgpbWUPABjNck1Zmy2LVu4YYqnewnzCwNWI3Cv0xRdx7k3A1IyvauAwrVVgyViQ5D1sW/KCrgwOf1aIq5IrLGcV0mrwZTOK5l2wSK0NqbIpKRGxQ3NQlsNQbltWqUNmqavxU8bcUATbjTtxwKhJp273oE0V7//AFDH2rzbUv8Aj6b616Rf8wN9K821P/j8P1pM2pFi0YBRWzbOOKwrbgCtaE9KRozZiYVbjcYrOhbpV+PBFBlIuI1ToeKpoasI3FNGbLSmpVaqytUitVIhloPT1aqwapFatCSyrU/dUCmpAaYh4PNPHSoxUg6UECHrRTqKVgPMwg9KeFFOpCa6DlFAoNN3cYphf3oAeMCjcOgqLdSbgOlAFiOVozwxq3HeA8MazMk0E470ijbWQnnNOeTC1nW112Y1aeRWHFQyipOxLdagYirE6ZGRVcIe9K4Fq2wKvGQBOtZwbYPpVea7IHWok7m8IFi7uhHkA1iT3RcnmmTXLSseagByeayOqnTtuLkk5pc0UhpGwGmEUpJpp55pABo7Ug5FGaAGNUEnAzU79KruflNAjc8Mp8sre9dIOK57w4MW7n1auhOACKzluYMAwzio5W280Z+bNRyPnipMx29W57U1AFcsDkGmIufpSoCsv+zQBYypTkU9RgAUgUdqeBxQA4/czSxjJzSxjcmKQHY+BTQEqgkmpnOEAqPIXHvUigMOapIB0YCnBNPT5pSO1QdZOKc2Y+aokvBgI2x1pludyMx61BEWdPrUq5Qexpkssu+y3aQDLCkg+aBXI+ZjREhbII4pWBjYAfdpkEs4EVs8n90Uy0IkhVyPvU5UaWJlYZDVHsaCMAfdWgC4FUR7h261BEwmkJxwtKkheA8daEVo0O0cGmIsCJZfwqsAv2goOoqWKVlfFII9kzSkfeoAmWJTiiRRHhQaiaRl4BpsjNIynGMdaALiDKnnrUboET196aZOhB6dqWWTzItnQmmAKjNgq3FO8r58jhqIPkiAp24CQc0CIWHz4J5prQiTAbnHSoVSb+0nd2+TsKsAgSZoAfLkRg5qLlhg9KW5YybNp470sjhIxikMrTQ7IwwOBSRQsRvJp0sjSQbR0FNMrIqqTxQA5o9iF6FTMYcjrSlgyENTS21BzxQBZj27TxVaylM+8kbOaI3ZGBHQ1ZSEdRxmkBKqYGQeBVa8bZdQADIPWpd2PkWmmMyMOOVpgWioxSMuVJ9BULvheO1PicHNAFfT5XuY3MiFcHirxbYRTcJn5CahMg8zZnmmIL8NLFH5RAOealjCRwAE5poGOPWiZdsWSQBQA5JY3QrTYIVhVu+abBFlATzVtI93OeKYhiuwPtQ0fmyBmGSOlRq5aYoq9Ks5wOaAHk7Yxxg00ykx7eoNMnkKwEgZxTbY74gxGKBD4YxF91cA1MzHp+tIrr65qJHZ5yuMKKYEmA2CwyQaskfKCOlV92DntSzSkwgJ1pgDjHGeDUkKbPu8Co4yCg39aeG29OlAD2kAfFJnLciqau7XRP8ACKsmQY4oAnaYKlNEvmR8dKp3JaWPanFS2/ywYJ5oETbsCozMA2M80hcVXEZMu/nFMC8jgjrUU8wj6mkDACoZYzMPpQBIsu4ZpTJUSqVXFNLAcGpAUXOX2ip1l5xVRIgCWzSGQq2aALxmCYGeanSUEVlMxdganWUriquKxqLKoHNPVgazXkLgVZgfCgUXCxbJpjDNG7ilHNMgh205eKkIqMjBoAp6lHviPtWZp8jB2St+ZA6H6Vzb/ubwrnHNc9Va3NIPQ05EbIapmAaD6VEuWQYOeKfCeCDWRZmsSsprStJSRVG7i2SZqazfBApxeoF+9QSWx45xXF3SiOYg13A/eRla43W4zHMTWpdJ6lDcKgkPOaaHpHPFM6hyvViN8VQUnNThsYoAt7vejd8/Wogwpc0APuPmgYe1eb6wu27P1r0ZjmMj2rgNdTbdHjvSZpAits8VpxN0rKtnrRhbmkas1oZBxWhG4rGiPIq/E3NBlI0Vbmp0aqSNU6NQZsuK1SK1VVapVaqRLRaVqkVqrK1Sq1WmTYsqakU1XVqlDVQiZWqUGqwNSKeaZDRNRTc0UCsedl+OKYSDzTN+KY74/GtzlFMnJpucmow2Wpw9aAHnpSd6XtSE4pjHbsCo2ems9MOTQA4OynINXra4DjBPNZwB71NECjBqzZSNTafwpDH3p0MyyJzUVxcBAQDWTZtTjcgupwikA81iTTF2IBp09w0jEZqEDmsWzshCwqjuaVfvUAUHikai0hopDTAaaaaUmkNACZpDRSUANc8VXfoanc1Xc8GkB0Xh05tWHo9b5OM/pXPeGzi3cf7XNdA33B7VkzCRHI20Z7VGuHOTT3ORjFMTNIgfGvPTipgB6VHH92pVqgHingZFNFOBoEPQbVIqNVIYlqnQZpsnBAoQgfLBfap1PAxTAvymljBK1SETRKF5PWiceZGVHSkZWG33NTJH0FUA2MiJFFSTp50Cbf4WyahuDtu1i7lc1biRhtXtQiWyWCVVHI4pLzdKF8k9DzUSMPtflMOKu+UAwCd6ZAkDFI+agvyxgxF940SNtuFiz1qYxcZoAdFtWBM9cUrODC4XrjimSAKi0BSvNMQ615hG/wC9VoIpByarAELnpUyIzfNmgCpbyCeeSPbt2HAq75PG3NRrGFkZwuKDJjGDTEV7idIJ44sEu1Wo05xmo3iR5Vm25YVIzbcnvQA+b5I9/YVEv7yPf0okfzIdrd6ehAhCDtSGI6b4sjqKpI/mOU7irJmK9OlQRkRzlsdaAJgh4Wq8smbkQjpjNWhL83So2j3Sb9vNADUAHGarXQbzlQd6maNjwD3oKMCGYfjQA9YsIM81Bf7ksXaIfPUhkZfpTl+YHeOKAIbHLWsbOPnxzV+F1PGcVCUUL8tJDh+FNAEMX2j+15N/+o7VqRsBkmq5jO8ccUjtsYDoDTEJqO77P/o4y+aIFZYE3D5j96pwnGaNo2n1oAFlEYxVFo2N35vO2pY2EjH5gQPSp1GeM0hkZnZegpWk+0Q7X6Uy6HlFeetSrERGCaYhykqmAadFKxHWmFcRE56CorJzIrFuMGgC/HgPkjmklzng8UJKofBps+WlQL0oABl+D0pwj2qeKURgcZqXcpQqDzTERIKWP/WcZqK1Rwp3tnmrO4LzQA2U4HzHGaVR0qO6T7RsKnAFTx4VAO+KYhNpAz60iNvYqDUgcGMr3qpBE8Exbk5pgW9u0cCo3JHsKmD5HIqK5Qy4CcUACR9/WpFTANNXKIFPapFc+lAiBW/eFQakO4dqbFBtlLVNKQMcUCKjy+W+096sxD5M1FLbiVww7U8AoMUAJL8ibqiwJF3Yqd1LptxSKmxMYpFECqc47VWZ8ylMVbLYaohEBIZKABFAPNLIQhFIxPUUyQszDNIRajUMualVvLWqwl2rih5S6YoAvxybl4NWUfC1mwPtTmpzL8vFMVi6DuFNIqKF/lqbcMUyRMVz+swGOZZVH1rouoFUr+HzrdhjkUpq6KjoUrO5RoR8pJFTJMPM6YqhYu0bFCOlXXxkGuYsS8i3DdVW3Yq2K0CFkhx3FZjDy5cdqkDat3yBWF4jtwyFh25rWt2G0Yo1K3E9q3GSRWyfUIuzPOxwcUoPJou4ngumU9M1GD3zQd67ik0obJFR5PPNKDQO5YVsU8HIqBTTgaYFgHK1x3iFAJycV1obiuU8Q/6w0mVEx7c81pRGsuA1oxN0pFmhG3NXYW6VmRvVyKSgDRVqnR6oo9Tq1Mll5WqVWqmj1Or0EMtK1SBqqq9SK1WiGWg1SKxqsrVKpqkSy0pqVWqsrVIDxVXMWWQ9FV91FMDzzJxTTycU7tilC54rc5SIKelSJz17UEbaaCfzoAVjioySacQaFTmmMaFJp4UU/aAKjZsGgBxUDmk8xelQST4HWqpnx3rKRcdy8bryuAaqXFyzZ561XZ93NR5J61hJnfSjYd70ozSDmn4+WszYAcmnnpUanmng0FbCU0mlNNNMQ00hpTTTQAlIaU000AMY1A1StUTUCN/w3ny5F/2xXRsDjFcx4cfHmr/tCumLHBFZMykRtTVHNO6igDmkZkifdFPFIvSnCnYBwpw600U5etAEykCnlc8+lRAHcKkLYUjvTRI5OTint8q4psJHGetSuA0gHaqQhVbIX1BpPMfzcdqfHtEnPSmQOWmk3DgNxQInKh5Fkx82MVIJe3daeNo3EdRVW0zN5pb+9xTJLQGX34+bFPWdhKART0XdGx44qvb5kZj6GmSO2g3glbpVjzQGyOlMCgPjrUaMsk7R+lADryMzzROp+VDVkSgKSRyKRI8nbmopiIpxF60AOkcyxYXg5qzG3lqufSq8ahWwRU8uFjLHpTESh1cED0rL0xppHnEw6McfSrVtnO6pAuZWIGAaYhVHz7egFU7qdo9Qii2kq3U1aYZPB5FNZd+1mA3DvQA9gu2m3DmG28wDNRSkjAp6gyQ7G5FIY2LEkIY96H2+WSv3hTWQxpgVDGHUYPOaALdsF8vcx5qQOpdlqBBsTJ6DmkJDjenegCKEP9qk3H5e1XGK8AnioOCc45qu04a5EQPPpQAt+rSNEIegPzVa3qqjvgUiRkHPaiRVjjZqAHbgY2xwSOKpaWskLOs2Tk8VdiCvGrU4gbxxQA7eN4AqrqCGWeF0fCqfmqwXQyhP4qe0KeWe9MQrTZQbeRimLKrxkdCBTZCIrcsSABTLUKU39QxoAjtIPswI5OfWlebDjHFWSqls1SkkX7YsRHWkMmlYzbSx5HSp9xMeM0GFVQfLSXHyQF0GWApiGYY9TQEKp8vFSW3zW6s4wTU67MYoArEEuvNTjPrVchxcnj5anMqrjNAD2dkGe1PiBddwqvO3nw7UOKktj5EQXOTTEWFBD9OtNchJAhxk037QwcNt4FIwWafzsHjtQBOq4HSlkTjPTFKr4GTSM3mKRTAbBMkgOOanKnPSobeBIV+WpGkbPFMRFJIIZAGP3qsLyMgVVmi+0OpPVatqdiAUCEJwDkU2KQOStPJ3AimQxhHzQBKAQeaJHUsFpWcVEYyzhqBEwTApk2ETNSrnpSSL5i4IoAihbcualaPKk0ix7B0p2T0oGU4xucgipTBmpUj2knFKQc9aAKJAEu2h4amkt8yBh1pWUjrRYChIfLwGp6qSuR0p89v5xFPCCNMGiwDCSop8bZFNf5k4pIhgUhFtH2ipVfNVgflqWI8UAy2rZFDjchFMDcVIpHpVMTOdnDW93kcAmrpUSRg5p+o23mfOKhgZvLwa5pKzLTJoWA4qtdkB+lTIfm6UXUasue9ZjC0kHGRWgMOmKyrbAOM1pRnitIvQXU4rxFAI7hmA71gbhjrXaeJrfdD5mO1cOzbTiqR20ndD8809W4qIsMinBqDSxYU8U7diowcClJyKYD9/NcvrzjzCK6Atg1zOt8yk5pMuJnQ9qvIeKpw9BVxBxSKJ1arMb1UWrEZoAuxyVZR6zwanjemSzQVqmR6po9TK1BDLgapFaqytxUgamSW1apVf3qmrVIr1SZLLgepBJVMPUgeqE0W1fNFQq9FNMmxw+7BpN3el8s56Uixsa3OETcS3SpNvINATbQxIxTYC4BNI2F5oJAGRVaWQ4pha46SYAdaryShh1qOSQVSeRt3HSpbKincld8imDpSDJpQOKwlI7aVLqx+PkpMcUZ+WjNZN3OpDhSimg0tIYopaSlzQAlNNLmmk0wGmkNKTSE0ANNNpxptADDULdKmNQt0oEavh9sTuvriurNchobAX2PUV1xzwaye5lITpRj5s0HBFC0GZItPBqMVIuKoQ8DNPHFC4xThjvQA7cBinqu45qvMDxsqxG37tR370hMbwJsVOgI5NV9v7/dVgNu4piEXklhyBUqqRlz0qK3/cIUbnNSLIXjZB17UySQAuu5akjdV5xiksyViKt2pLld8J8r71MRMpJYkdCKFxHSwHEC5HOKbcZNqzKPmFMTQRSOH3DkVL5YV/NHU1DaA/Zxv+8ashT5RzQISOb5vpSzLvmSVuSKitVZtxI4Bq3s3ECmIQuMjPWklYyQY7Cq0j/wCm+UvWr4UKgHfvQIWF4xAvrQWU5UGmS+XEgI6U5I1Ke5pgQW6spfceM1MHXzMjrSlMIT6VXjHmEsp6GgBtwrSXUZQ4RetTM4VeBThGc5/OoNw3vHnntSGJOS6IqnvzUvyqQfQVFGjb13UszLFKqyHGelAC3P76zkRDhiOKbbJ5FjHF1Yd6URseT0pzkomeijvQARttcBxVE2YTVjckkqRjFW4pFlGdwNWFTPYUADHbznio5tt1AyDg0k8ixFFc/Mx4FPWAj5u1AhbaIQwhCc4pQ6mXGKlRFEZNVbd0ldinO1sUAMdP9OE6fdxjFWhMAhoYDdgDBqjduts6KzY3tQMtTbbmLym4BpVAhiCdgMUqoo25qSVP3Bb0oArGQk47UGLMivjkU2yYTFi3TtVvAB5oAYGkQktyD0py5dQD09Kpao86xxm25BPNXLcjyVLn5sc0wJ1T5COtQAEy+wqdXVlIQ/Niqdm8iM/mevFAi6EL96gmi29TgGpkkHmHiqmoxNc7RG+3HWgCSOJgR6VIykt8tCNsgAxmhJdrGmIh83dKUB5FWIiwFVo0Md00pGQ1SmQ54FAFmdwkIYmnWrCSPPrVZyZIgrCpLciNNo7UxF8pghRVeSULMENKkjHmmSpukEnegCyoA+akk+7u9KapJA9Ka5JyO1MAt3Eq8GrCDBwahhiEQ+Wn7juzmgBksoSQLjk1bRcxhqqGPfICeoq0rlU20EiSuIYy4ptvMJ49wpHAlXb2NOihEC4WgCbPaqyswmxU27BzTSm5twqiSZfemO2GAxTWB4OaeMMBQA7HPSmTBeBU3GOajZNxzQBCYuMio5F2rzVsA4xUcse/FAFRYz1xUcpKdq0FUKlVrhPMxgVNh3KwfipEk29aUQhF5qKXHGKALSvk5zVlHGKoQjjmpw2DQBadQ6EVmSRtG/FaKMDSTRK3NS0Bnt1FPZd6U51AyMU1GPSsGiirENk3NacZ4yKz5YyHyTV2Bv3Y5poCPUoPPtG45ArzLUI2hunUjvXqzDdGw9RXnXieAxXe7HBNWzoovUyN3SlDHPWoQcke1KGw1SdnUthiRUgfjFVken7qaELIw5rk9VkL3BHvXSTPtjY1yd0+65P1pFRHwDAFXV5FVIRVlTilc0Jc4p6PzUQORTkFAi0pqxGapoeasI1MTLimpUaqqtUitTIaLoc09XqqHp4egmxaD1Ir+9Uw1PD07isXVepFaqSyVMr07ktF1HoqBWoqkxWKElsG4xWdLEYiRWwzYUetVJUEin1rVM4rGWxNRlwTinTAqDVRnIJp3Cw9pcZqtJLu4FRSSkcZqHec9adylG491JOc1CQKd5hIpOprOUjpp0+4q0vagdaMVi3c6RBTqSnAikMSiiigB1LmmjrS0DEzTSaWmmmAhNJmlNNNAAabS5pKAGGoWqY1EetAifSm8u/Q+prtd+YxXBwsYrlH/wBqu4t2EsCn2qJGch4GTmn+mKjUHOKlBwTmgyHDFSLg1GBzUyrxQIVTzinMdtIBt5pfv0AOx8uaZbyeZOUHanb+2adHGqEuvU0CZJMuxC3pUVs5dd3vUwbzFYE8UioqJheBQIfM4WIPinxr91hTFw8exxxU8bYXAHFMkWSTycbv4qkhBY7hTXjWdVLfw09X2EKKYh0jbOScDtSIzH5eoNRXiGUxkHAB5FWUKr1oELIRHGG9KckrOgx0NRagDJZDy+oPNTWpUW6KetMGSAFVJA4pQ+OQc1LJt+yuV4YDgVUtSTBlxgmgkVo/9I81epqYudvXmnoFbANQE/v9n8OaYD5UE0IQHlTmpEmKoFxyBT0RVOabMyRkYHWgQjSkowx1FVYA0KsCe9Xyqtggdqq3A2IZCOBQAqXJD1XAKXDynvTrfE6B+lTPFuTjpQMZHMXHvVe+t3uZIXz/AKs/nTrV1kneNeqdauEfdzQBG0xXAxTJJPNjaP1FF6Vhg3NwWPFEKjYrj05oAgsoWtoCnXmrsUyjmSlT7nAqtFJHPPIiHJXrQBJeQpczxy5x5Z6VbE42YqHbjAIqG8dbeHfnvQIurIDEy/3uKq2sS2asvqc1JbZkt1kx96nld+Qe1ADDKpOQKr3tmt1Ik2fmTpTUdpLtoYx93rVpF2Hb1PegZBIXVB81PjeRk2ucimag7R2+UXc3pUlsf3KM/DEdKAFji2btnAPalY9FH3vSrMTRnis0CU6mx/5ZigCy0ece1OC/KSelPJGaGP7o460wEjwBuHSnmH58g9ais4zFBtc5NTxyA5z60CISdj7cjmpjFxmo5baOW4WQORt7VOzlCMDINACFVEfJ6VHEUmBC9qkbEkRA4zUdpD9mBB5zTEWBGFHz1BdBIQGzgGppHHeo5kFwoB7UASIu+ENjtmlSPjmnKSkQXHHSkBJzgU0SQedtn8sGrWOOTVUQDzC561OD2PSgY538qAv/AA0W0gmj3DpTJFZxs/gp9uPKG3+GmBbG3OOazbu6EVysIByat7mB4NRy2yzSrKSNwoAsxEEBvanM3yEio1JXikySMetBIsEvmc1PuINQxxBBmnFvyoAY8hWcL2NWRgEc1CED4bvUm0Y5qiRLltqZWnWzbkyabkMMU9RgYFAD3OENMhck80o54JqQKB0oAWkHWloUYNADSMim7M4qQ9aOlAFeSPNVnhO6rchJoA+XmgCjgrTgTkUS4VsChelSBYjarHDcZqgHIqxCSeSaYCToaqFSp61oSYYYqjMrAfLWLRY2TmPdSQSc4p8RJXaRUY+WU8UgNBDmuT8WWm6EyAciupiOaz9cgE1k3HamzSDtI8uU0FhRMDHcOhBGDURPJqTuTuWUbinlveq6tzihnx3oRTIdQmEcB55rm93mS5q/qtwSduaz4R3NJloux9KlFRLwtSjkUig3GpY2wKi6Gng0CJlbmp0aqgPNTI1UBbVqlDVVDVIDQS0WQ9SB6qBqcHoJsXA9PD1UD08PTFYtK2KmR6pq9SK1ArF5JKKrK9FO4rDjJmonY4pc0yRwBzWlzksVJ0DofWsa5DoeK1JbhE3c1l3FyjUXGqdymSe9NXkmnZ3UgGDSbNqdOwYA5oHNL1pBxUNm97DqWkpRUlBSjrRijBoEJRSZozTKFopM0ZoADTaU02mSOpppaaaAGd6cOlGOaO1ADGqBqnNRNQIjPBBrrtKuBLZLzyK5EjNbOg3HzGI1LRMjpUp9RrjFPHWgyJY+RSK373HakXjNJj+KkJk0r4AAqTrGMVBjdyakR8YFAiOAtJK4b14q037uAhetM2hXzTvvEZ6UAwt8kc9TS3LNGyKnOTzSj5DxTztLA9TQImj6Keppof8A0xYx0NRxyeW+M1J1fzQKYi+yBeB6VVWcNfiJf4RzTkn7Go0iC3LSHqaYi4yZk3dqRmUyBM/NSJMu/Dc1AYv+Jgkqk7fSgReWNtm3rmm+X5ZGTipftKg7cc+tR3amR4j2HWgRMCcBe1KyAR57GmsRwKLh2Ng/l/eHSmISLcHxninyxHcG7Ciy/wCPRTJ96pxtYHn8KYiIN8mN30pFzM2COlQ24c3MhkGFHSraMm/0oAgklkEgA6inZMsexh8pqO6J+0KE/E1PE4PFADVjCJjpSK7btnai9kMNq83XA6VWs5HlgSU8E9qBDooBDcvIP4qlLtxn8qkVCTzVWO43ak1sR0HWgCW4RbpAHHKHIoyVjCnvVoxgLiqt2RFCZcfdoAdDLuLf7NQ20CW8zyKOXOTUlqBNCJFGM9asBFb5O9AEbSjOc011W6TY4qvMyx3ot/XnNX1G1enagY2IvHAF7CoVmO7kVNPN5ULOFzgVBbDzovOf5c9qAJY0USeYmBnrTJmbzF8tuT3qxH5ecetVJt/9pLGq/u/WgCaUBosN1pqAeT16VNL5a8E007RbkrQBFC49an8tX5HWq1qmFJarSuq0ARSqQMmnRqSRnpTNQVrmNTCdpB5qeHItl8w8jvQBIseVJqID97tBqaKT93VeGBluXkZsg9BVCLIXHNNmbZEXPans3GBUTp9ohaNmxmgQ+3fzI8gcVMBu+XvTIUWCIKval8zHPegCpc3CxXSRMeWq0i7ee1V5IEnnWV1+ZelWCSvB6UCJmxsJPTFU7O5W4ldFGMVNHJkbW6Ui24gctGMZqkInKjkVDKQi7jR5jZ5pQd42sODQMkiYPGCalVQ1VypCcGnoxx1oEMeYrc+XjirIxioNivJv7ihyexoAmc7Yi47VDazi4B7GnYLR4zx3psUAiyU70CLQOOtQ3Eu2ZBj5TSbiTgmnNGJMZpgyZHBpZH/dE9xUONlKGyKAEtJGcHeMVc+Xjmq4wAMDFIXIfrQIcxYXAx92rQYE1XXnmlb5TnNMRI7ESAdqlBqFDu5NSHpxQBJ1oIxSIaVuaBDSuajYYqUU1xmgCpJCGOaZwnBq4qhqrTp82KBlZ2JbirER2gZqIrt7Uu/AoAuryOKhnBAPFELmpJVyvWokirlFCA/NOkVW5FRyNtfpUqgMKyYx0BPNOuh5luykdqjjOHOKsHDxsD6UDPKdZi8rUH4+8azT1JrovFFvtug+K55+uKTO+m7oA3OKjll2Ak0prN1G4CpgUFozrqUyTGnxD5AMVVU7mzmriDAqGaInWpBUSmpBSKH0optKKYh4p4NR0oNAE6mnbveoA1O30AT+Z8tPjk45qsrjFSBuKomxaEgI605XqqGGKcre9ArF1XqZXqkr1Mr0xMtq1FRK1FMViGa9WLvWXdakX6GqEtwznk1F1FO5koDpJ3cnmoSTx3pWzSA5IFFzRRRMtKaQelB64ouXcBSn1ptPHSkO1xQOKXFKKKQgFFFFADKTNBoplBmjNFGaAENNpSab3pkjqaTS54ppNAC5pueKQmmZoAcTUbHijPNNJoEJWhog/wBKJrOrT0XAn5pCZ1CnFSJzUYHNSrSMWK2R0pXz5eR1pcgiljIYEUhBGdwpYwTMSelIny8VJuAFADpmynHWnKfkFMQbz7U0ttl29qBEz5ZlK9B1qVcZBqJTwcUgb5ytAiOIO91IW+7nitOPGPpVQAFc9Gp0DtuIpgOtHMtxIGGMHir0iDBI7VTIEcm4cZ61Y83cOPSmIr20v2iR9p+6a0IoiTmqFtGttlgOGq3FMytn1oJBJFknKZ+ZauRqWPNUYofLuWmx96rBmZJRkfLQIJm2XAXPXtVhE2nB6Gqlygmnjm6bamWYK3zGmJk8gEcZZegqKKTJLZ4pZnMsDKPSmQLsswCPmzTETKNxPPNMO5TjvRCwwxziqVp532uR5W4J4FAF0KzDcTzTEcpLz0NTo6F8evaqd6ZE1GKJE+Q9TQBdlBePHamINqcVYKDyxzzTCuIHbrgUCIVnbfgcihVAnLgZJ61BpsslwC3l7PrV4gdB+dADTId2TUMu4go4ypqG9uTa3UMW3O81dkQPGSKAEtt0cW0DC9qPMcS5A5p8H3PXFUbO8NxdzIVwFNAEsyo7rIQPM9akkLCPI71K6Idv3aq6g7ReUF7mgY6NyeGGRUxxtwn5UeWBGCPTmm4AjLKcmgCJGYvzVhVLOD3FVbPzCWMvrVtSPM4NADLmLcCc9aijiYY74pL8yl4xGcKDzV6BlKDA5xzQBXwQelIAC+3P4VZym7HGax3t7r+1/OaTEIPQd6ANMZAIpzDEZZjgVD5n7wk9Kdcgz27Ip5IoAfAwKcEEVIDh8VR05DbRbHySPWrRn2vnbmmIS5n8kqCQN3rUkB3puPGKqXsCXkkUjErs7VbDAQBAOKYiwqtg1WW5je4MOfmFIskiHk8UwW6i689etAy8U4HFJc4ih3sOBTJJX2UhZpIdjdDQIdZ4nG9egqy3pVOBWhQqvSniYk7TTER3sqwbAf4jVlRlFPYioJYRMRv5xU4OxPYUwJEQHOarJJi4KY4p6yNnilKANuxzQIk2gciklAWAt3pCSFpGJZCvagBkMplXK9KsL6VFDEIUwopwLDPNAmQ3M4hkC45NWYnO0E1DJGkpBc8jpRhhwDxTAsS5KHFZ1heSzTyRyx7AlXVc4xmkEQySOpoAnDL3PFVLxpFlXyuQak2kDBqQDv1oAdE/7vJ60TPmL5etROTUkS7h60ySSzkynzVPK+B8tQKnYcU7OOKAJ4W3KM08nFQJlVFSA7qBEi80NSDgUZzQAhXAqF1yc1M57Uwr6UARuqlOapgfP7Vdcdqh27T0oGIARUynI5NV3bHSpIjnrQ0BFcADnFMibcMCrMyBkqpGCjGspIokAIOaniOeKib7maSJ8NSA5bxZb7lZgOlcOT2r0vxFDvtXOOorzOUbZGHpSZ20H7pDJLsUk1zl9MZHIHrWjqNzsQrnmsQN5kmak2LEKng1dT6VXiGBirKdKRaJVFSgU1elSKKgsMUoHNOxSgUwG4op1JQITNGaD0ptAEgNPDVDSjNUFibcBTlIPeoPrT1xQFi0jVOjVSRuanVqZJbVx60VWV+elFFwOf289aVVwetLTscUxjDgE81CrDzKmeoEB3+1AE/Qg0v8XSjtQe3NACgY7U8UEZYc0N1oAKKKKACiiigBpptONNoAWmk07tTGoATNFFBoAQ0lKaSgBpHHWozUpI21GR8uaCRlNI4zTyMU0igQxjkVo6TjzwM1m1qaRGWmDY4piZ1kXP5U9uFxTYxhaee1SZCrgx0sQ2nFIrAPtpWO00gHBT5mT0p7gOmB1prHEWaZbybs0CJomCqB6cUTpmZGHamOQJAvrUoBbFSBKjbeneooUP2py3Q05WBYqOop4GeaBEr4WJwnXFR2BIiPmdacnOalVcR5NWIkfCwOw5OKbZjzIBu4NKg+UjqDT4hs57UCHyRARMc9KZbfvU3dhUm7O4djSRp5abVpiLsW0r9KiBWdyq/w1DDKyuy9sUsOYd7L3oEXorfcmKr3Ee1wo60+3uyCBUrqHlD9qZJXQP6U6XKWxJ4FTO6r2qC7BuLMopwaAI4AWXcKl2Mc4FNtB5caqfSrqqpUgHnFMRnEtuPrViNTMF3Dle9VrGORJZhcHJzxWjFtHfigBjt5fBJpUf5evB61W1JnDxLFyCeTV2ONUT1OKBEaoF4RcA1FIX/hbGKuoqnqe1ZlhcNdXlxG6fIhwDQBNLGJtpcfMOlJIzoAKslVXiq96zJbFlG40AEMjZzjik2fvC6DFOs+bYFhyaniC78GgCsxbI55qQxb0+fk9s1SMsh1QxEYjHQ1oEgH1FAEbl0jIB7VFFuIGKTVfMSz3W/Ld6S03G1RpBhsc0AWjhUBNVstuyTxVmN1YkN0qnHDILtixzEaALBYPjB4p4bZFwaMInQcUl2u+yfyeH7UAER83LA5qfZvCgis3TY5IYcOTmr4kwRk0wIp18vk0+3yePWotQBlRNh781NGQqLjqBQBYMWaptKEuvKJGatLcCqUtoW1EXPbFAi8IweaMbRnsKa8g4zxRvAGOuaYDY5o7jIU5xU8a4BFV7eJIGO3vUrPz0NAxblxDDuxxS2ziZA5HFJOPMTY3SlhXy0CL0piLISs+4uPJvBERw1X0z0zUM9sssolb7woESqmDmnSD9yaZg8c0p3fhTArWFx5wKkYIq92warwwLESyjGalByOaBCTt5SbjzS253rnsaa4EnB6VJGCgwKAJFAyRVV5jFPsYcNU4bDg5okCycsOR0oAQx5GaUr+7J7inNkIAKYpycetAEFrKZmJxiri+lMjgWPO3FIzlScUhDLp2jdQBkGp4/uZ700jzNpPan9KYhk6ZgJB+aoNPeQZ31YO714pAozxVXGWA2SSariVvO244qQNzinqATwvNFwJkxjmowSJOOlDH0oUd6CSwDkUi8mmqSRTlFAA3NHag0dqYDMc0jqMU7vSN0oArEDNJnbT2GKh6tQBZQhl5qtMgVs1YTgU2VAahoBiAMuKYFAeli4JFOdcHIqGUV9UiEtk2fSvI9Wzb3ko6c17FKvmwsvtXi3jmb7Jet2zRym1CdnY5a+ufMmODUcXY5rPExkctV2FgQKz5TsTNCId81ajPFU4WAq2hwak0RMp5qUGolqQVJRIDT+1Rin0AITSZpD1opgLmjNJRQA6ikzS0wFoFJS5oAkpQT60gooAlVqKatFUhGWRTwOKGJ/u0cBBnvTAicH1qFeKncDbVfPXigCxn2pAeM0wHjrTvagCVTlM04fczTBxxT/9nNACUUuMUlABRRRQA002nGm0AL2pjU/tTGoASg0UhNAAaSgkUmaAEP6Uwn8qUk4xmoyT0oJBsUlB6UxjxQIAQxxXTaHCBDux3rmoF3Sgetdhp0flwAe1DEzRxQOtA+5QOlIxDGHBp7Dec0hb5elCEk5oAefmjxSQRrE2DQG+bFEjBXFJgPkjDOJM9KkRwBg0iYYe1RoymRl9KkB6J5czMT96pmOUKr1qKQELu7Clt23kNQIngO1Pn606ZzswnTNIygEelPZRkelWSTQFfLGeppt4xihBTkk0xRhhg8VadFeP6UxMIRuTNSSnyYd2OtQglXCjpU+3zPkPSgQQp5iBj3qyqKEPpVJ38tCq1LbzkptbvQIdFhwzKOKsRvnAqureVlVHFOjl+cYpiHXEy/aBGBzTlHPtTJYgZfNxSrMO4oAcyqvPSnRn5d3OabdATW4CHBp9syrCATzTAZKjYLDrUMMpbI/i71cEi5INUbdGS9kZvu9qBFnYHwp6ipyMD2FRCUB6fdMTYkrwaBAhP4URIFkYoMZ60lurC3Bc80+Jl8wAnjvQBBcFgcU1MsCvUe9MvJW/tCOJBlD1NWjtjzigCEL5Z9qRcs5Ze1SyMohZl5IFV9PYyRM7cEnpQAMmZQ4pWLAgA8GrabCh4qjch/tsKR/c6mgCUFsEdRSqDtPpUpZRwBSlh5bYHPagCvnINSRqWAB6VBYK8ccnn8kmr6FeDxigCs8gQ496sEKYwVrN1VGnkjeI4QH5sVoQyIIgPagBFi7+tQHm42bquK6nrWe1mYtR+0GQ4PamBZ2Nn1FSBWCmk81c04SZUjuaAIIWDuQvNXQNoX1rOsITbO+45rR85QQcZFAiK6XYN5HFNtlEw3Z47U+9X7TZtGhwTUNijW1uI25I70wLSxMH68VFczRwMiO4G408Tsr5xmqd9bC9dJDwVPSgDR25ANC0xXYRjPpSRvhsmgQiThpzEp+cVZCsRz1qt5KLP5yfeNTmUgUwFYBY2bPSo7ScXCMB0FLkNGQejU22iFrnb0NAFxcAbSKr3TiHHvTt7PlulJKq3SANwVpiJY13Rhqk2q3Q1XAZIxzxSxk5NAEEtwEuhD39aupz1qq1sskokx8wqbLKDQA9wTGSO1VradZZGToVqwJCyY9ahhgEMpf1oAtjg4zUF03lFfeneYc5olj87BPakA+IZTdTsjmkDeWmKgD5JxTEySOUOxFTcY4qtHtXJHenh9oouBFNKUmGKuxNlM96hwknJFOHA4NAEsnGKljwUGarg560/fgCqJJzwOKcoyKjU7hUg4oAKaacKYfvUwFPSmdqeelMFAEbjJqLGDmpzjNIwGKkCPdUmNy1GBTlOKAISNr1I3KUSDPNLH8wqRjVXnHqK8V+KVu0c3mZ6HNe2fdevMvijYGXT5JFXJxmnEcTxOCU8c1qQPWMo2uPyNX4ZMdamR1QlobUT5HvVuNqzIJOAc1djfpzWLOqMi+DUitVZW4qUGoLJwafnioFapAaBimikopgLRSUUDHZpQeKbS0CHUUg6UtMB+aM1Huo3UATZP8AB1opgNFMCuw5qNhg045B4oK5UHvTJIWquThqtsMIaptkHNMCUEcVIvY1EpBFTLyAKAHY5p4xuzRt4oxQMcAGpGXilHFNI75oAGOFxTOMU7r1ppYZxQAlFLTGNAATTDRmigBtITSmmmggQmm55pSabQApNMJpTTSaYxpNNJoJppNAi3YgNcLXYwDCLXG6ef8ASlFdnAf3QpMiWxZHH0oHBpEOVxTqRmLkdO1KpwfakxQeDUgKcFsinHDfWm9qcp6cUASLlRwaZHEEkLetKrAk57Ush2pu7UgJ2USQlfWkiURAKP4ajiYsVbtTpZUSZVzy1AidhuZefrUwwWC5+lRBc85poJ8zg9KsQ2bzEvoUU4Urk1opho89KhKCXaG+8BwajjZg23PQ0xMLh5VuY0QfKetaCnb3qsPmk6dKSR2DbaCSWXZnc3Q1LDEgI547VUOXQIanWTaAPSgRLL+6RnboBUVmwmj8xelSbvOjZW6EVFCPs0ZjxwaYi+Pubarttafy0PNEc21fXNRwKovzMe9AF0x7YwDTGjWNNxPFSyOMdKrXqNdWwVDtOaBEsa7sNUgjyxwOajjPlwIvUgYNSpIOtMCu+PM2d6sRBwu3t71mSwzf2qs2f3daYcc5NAgZCVIPAqBdrEjuKteYjRsueccVR0+J08xpjznigCxsBwW6+tMkBUZPSpWYbap6hM3khU65pDJdpIwOhoVdp29BUqYCLk84pzbcH0oAhj+914qRV3SY7VQsjI1zI0h+XPArSMiI4zxTER3BEQzTInDBeaZqStcRp5PAB5qWGJfJXafm70ASuu4AgYqNMeZtPWpy2MjNZSRTDUzI8n7vsKANIhFGOtRyjZHvUYpsrqp4NOmImtGVTyRQA23PmrkGpyhOAaq6VEYEYOSTVmSVfMHNAFedliPPHvUkXz4fNQalD9qgAQ4IqeyUJbrGeoFAEx4PPemSSAYXgU/5d+0mqV5aPJdRSpKRGOtMZoJlVzRy5oEg2ge1CyBT0piKq3O26MRPNXVjx81Z/wBmxe/aDyD0rQM2I+mKAFJzE2R92qlrN55cIc7TVlZQ8bL6ioLK3FnI+3ndzQBY5xxRM/kQb3pJZePl60yTNxGI3oES2zJNDvWpDGcbs1BEpgj2IKkWfB2t0oQhklwIWAY8GrCkFNwFVLiFbkg9MVMshiiCdhTuMlyzEelVo7xTdmEHBqVZSTmoEtY2uvO6GmIu8oaViGQmo2bjFKjZGCOtAiK0nSZiAauYqpHbLC5ZB1qcyEY9aAGzyCADd3qWFyyA54NRTRC4UbhyKkiUxxgHpQA5huBOaqwSbnZR2q1uUAgioYodhZ170CJhGCPSq905hYDqDUhkamsBLgnnFIB8TfIOKkmJSAletQ/dHBpUcnIY5FAD7Zi4y1WQQBVUfKMrxTkZjTEWIpsvtNWwM1nhed3erUbtgUwJsUxhT+ooIpiITmkqRlpmKAGkU01IRxUbUDG8UoIphNGaAJCM01eM4pwOaaeDSEI/Ncr41sJb3SpEj5OK67aCuaxNdP8AozqD1WknYpHzTc2Mlrdusid6RkI+bbXaazpStdO+DzXN3UHl5WsmaopwT7eM8VoRTAY54rKaIDlc5p0UrRkbulLc0hNo3ll9DVhJM1kwzBu9XI5B2NS0dUZ3LwPvUqtVRG9TU6mkVe5NupwNRA04UFXJM0tMBpwoHcfSim5pQeKoQ4Uh6UA0GgZHRRRUgSL0ooU8UUARDAIyKQjIOKkI5OaRvSqJIGzVSUVdJBGDVaQYJpgMQDtVlB8ox1qunBxVlRikBKOmTTTjvThSNjOKYDR900mMr1p3tTccdaBjOgpD604imnPagBc8VG1OzSGgBlGaU0wmgAJpppSaYTQQIaSgmm7hQApNRsacTUZNACE1GxpzGmGmBZspNlypNdpbSbolNcGhw6nvXYabLvtF55FJks10qQVDCflqftSMhQaWm8il6VIDutKPpTEJJyacCd/tQAMMPu7UD94hB6UTHbGT6UluSyjikBPEAnA6YqCeEvcK/pT3nCXAXsamOGINAD4nIUKx4pkI2zOx6HpSBwxI9KcTwFH3qsRcUqQDnmqlsXe6kD9M8U6I5I5qZUxJu7UCLe3bjmqXmO+pLEVOPWpfNJf2FWY2jZw+Bvx1pkjmj2lajnfyivGcmnTy4AHel3pKiHHIoJJNmO9I+fLYkcCgvinnD27ITyaYivATIpbqtWIkwwIHNVbcNaqUzkZq7FKu/wClADHnUTiIn5jTwQr96rT2we/S46AdqutIhA+XFAhW2CPNMUqYyUORRMN9pIi8Ejg1S0hWgidJWLMaYGhEVbAbtUVwwjGcgDND8SqUqnq8UsttH5TENu5oAso2cN6VbBDR5xVCDalqqk/NgZq7E67NueKBERPJFRyqCOlQBZRqDsx/d9hV5Sj/AFFIZC6nylbPApI2JUjrmlvMm0dYvvVHp2RAFf71AE6x7eQOahkJcgPxzV1XTO09ap3MTm9Rs/u8cimImg6FSflpGBUfIOBUuAqZFOYhoGA+9igCCNjJ0PSpPKVj83Bqpp0UsCsJTk5q0ZlL+mKAIrpPL256GljBCrgUzUYmuVjKNgKecVZUrGkYoAcqso3HvUM5jWRQTye1W45Y3k21m3tm736TBvkHagC0pBGcU9Qv92k3L0xxUsZUKQKAI1XL8U54wtVrOOWK7dpXyvYVpHa45HNMCswATPoKbbyrMhwc4qeWMSQPF0Yjis/TrVrFGR23EnNMC95feopnESkucCrJkGziqWpRm7tNinBoAmiX92HXkGrKoG69aq2beXbKj9QKmWdd/WgRDdlYXAZsZqSOPo4PFQajAbxkZeMGrMR8uNUPYUAPOW6VUkcfaPL71cEuOgquYA1yJaBE6cdqc6b1pX2qmAetMWQYxQMht5UeQop6VbEeOaqQQrFMWA61bMhLdOKYiKdjGhftS28gli3Cll/ewlMVHbJ5KbRTETljUUsyoyhjipiwGOKp3dv57qRxQBeibIBzmpSeM1WjOxAPapN2UPFADRIsnQ1IrFRioIISmSTUzdOlAEFzOEZRjrU8YwmTVcxGTlu1S7iiYJpCFnwIiwqK1JlzTmbehB6UkWI/u0AWinGKZG4V9lIsxOabt530xFsU4SYIBqqJT61IDnBzQBoK2QKdVdG4FTKc1QhSKYV5qSkxQAwjiomFTGo2FAyAikxUpFNK0AIBSmmg06kIRX7VjayhaNj7VrAVS1FA0Bz71LZSPMNRQ+Y5rjtUQeYa7TXHWBnPvXE3svnSY28Vzvc0MwrgYNV3jGfWrzKOlReUQc4q0IqKzIeDxV6CfIGTUDRVHgoaDSNSxsJL71ZR+lYsNx054q/FKCOtKx0xnc0Q4NPDVSD1IslI0TLgang1WV81Kp5oKJs04HimA8U6mMcDRmkHSlzQA2kPSloqRiA0UtFAATkDNHalPKilIGzNUQQ4NV5gMc1aPWq02ShoAYnXNT9qrRGrA6UwJUPFB60i0H1oGIetNNBNITQMSkpc0lACHpTDTiaYaAGk0wmnE0w0CENNJpTTTQSMJ5puaU02gALUwtSk0wmgAJpueaCaaTQAp+9XS6FLvjKk9K5YtzW/4df94R2zQQzsI+EFSjBpiEFafikZjxjNIxyaRe9IM7qkBwODTiQOajbORSv92kA9gGj+tLGQg20yP/VjNNkfEyD1oESSwh5Q46ipFPy4oUcknpTFbczKO1AEscYG4560MuUOKdjamaIm3H2qhEFiGUsGJ61pJ/qyKrlVVsipUb0pgV7WYyu+7t0rSt0znFUxCYslB1qe2lKtzTJIpHLXnkkHjvVtRswKWRBvEmBk96buyeaCRszFJE/2qnVWHzGonjMpRu61YLkYyOKZIAK8bEjGOahtXEpJU5wcU8vlGTseM1XsoDaKwzkbs5oA0QGA9hUczKGG7jNTRSqQfeq99bNPJE6NgJ1FADwhxgE4pdgWp8jyQuPmxVdCd+GpgMWTEvljrVgo2KrC3MV80xOVPQVca4TYOOaQFV4sISBUUUjZA7VaumL2jeV9/FQWSD7Ipf7460ATMocDH3hUPzRSH/aqwror/XrVK63vqMZQ/uh1oAtKpzyc0hiC8ip9yfw0OU8n5fvUCKyfOSDU6EEgelQ6eMxlpPvVKcK59KYCTZ/ClTO0HNUtY87bAIO/WrUUgSJc9cc0AThe9V5Nom2VKsyEjms0CY6wzOT5OOKANOJDzn7tPlQbM46UqSKBxRO5a2fZ9/HFAyrEA8mQasMcADGapaSjQofNyTV55VLAAUAMf5FDU6CQOS1NnXz7R0Q/OKSxi8qBVkOXoAtuivhhTTmMgZxSiTDbSOKqaokk8a+SxBB5oEX9uRmgQFsimwyARKD6VKs+0k0wKbHy5hGTUvlkk46VUvbXz7+O53EKO1aAJAHpTAYICBnsarnYJ/Lzz6VeWXjBGRVA2G29+07ifagkurGxSkaPFTeYMUMy7TQBWhZJNwB5Bp5Rs8dKrWkHkSOWOQTV0yLjFAEU64j3E8VDDz05FWLjEtqUHWo7RDFCVbrQAHINEkojALU7K59ahvIvPQbDjFMCyjhkzSrjtUUREcYU84GKVDzwKBD2YHIPWkXpzVcxyfbN2flq0zqOO9ACvxHuPSiCUOMDkUyVxLbmMdaZZp5KbTyaALmCDxUUkwD7D1qQTgHFVZod8olHagC4nAwaju2EUW+gScCmSr56bT0pAJAVmUN61I0e0cUyJREmB0FKZCaAKkUxd9o4q6mQcVV8sI5ZacsrA0ASSOEcBqnTJwQeKqy4fDN1pyTYGB0oA0FfEeasQSBlrM80suKlt5CvFXcg1c0nU1Ak2eDUqtTuA6mMKdSEZoEREU0ntUhFRFTnpQAzbRzUlN6GgYxSBmqeogm3bFTzblOR0qvcOXgIx2rKoWjyHxWzLdMPuj+dcvtzzmu18X7fNOYwT/KuMUZbAFZjI/LJqMxnNW9h64phFAFKSPA96gZSavtDvpj25x0oEZjJjoakhuNg5NTyKFGMc1RcEEnFMqMmjWjlBAOasI+eaxIpWU5PStGKcNjFB1QqXNJHqVSMVSV/SplY8VJumXYzmpFbmq0ZxiplYCgdyXcTmlxxTAaduzRYYUUZoosMKKKKBiEnFLkCOmA/LikJPA7UzMXdUM/3eKlzweKhkBKjmgCBODnvVgHioF/WpFbJ96YyYGjNMz+dKeee9AATSE0UlAwNITRSZFADTTTTjTSaBjGphpxNNoENNMY040wmgkaaaaUmmFqAGk00mlNMJxQAhNNJpCaaelABnkV0vhuME5PrXLE4IrpfDkp3496CGdmgAWn54FRoeKkHFLoZi044qN85GOlOJynFSA4YxRwTTc4TFJHnPNICQALTmjVsN3FRO2GAqUH5aBDge1NRQjk/3qjjk3sw9KlPyxbj2oAlflNtJAgQYpkZ3gNnrT3JUVSEWJUyg29aWBfl+brUULnHPSnuxU7u1MGWWBEJPeqtm5mZiRjBq1HIHQZ6UiQrGxYcZpkkoyTtzmoEmD3LRHqKkSQK/HNAtgLnz179aCSWMbHp9zKkaDdwT0qFztbNNvo/tkMZTgrTJJ40+UH1qUxgrgU1JMRoPQU+GVTJgmgCtFKBdmIHOKu9BuH5Vnx2fk6i02chjwK0DOF7UADNtG88CmRr5yb1NNuc3Fk6IcOelM0wPb24Rzk0wJ1X59p5pHRTtXODmpfMXzfbvWVqRlW8t3iJ8vPNIDTWLa3WkeLYPkpfPRsHtTzKrxSeuOKAKg2ytgU82xBzUOlq3ztLwc1fLK3figCnKu35gcUiCTv0qLVGkVE8kZ+bmrSHEKFuuKAFVCoNNDEAZq3EEYYrIdZ01cqf9SFpgXmG7BNRyAKue1WSY/L461FMuYDt60AVIWBy2MCpGySOaqaYXKSLcDBzxV9RH0zQMhM/lyYAq4JAUB9az9Tt3MQa3PPerVmn+ioJD84oESAkdBUMrFJBVoAdKy9TFwbqIQD913oAvwu3WpATnNLEFEKg9cU9Gj6NQBHuO7rUiZKkVTihl/tNst+6rV2KPu80CI1U9AKFHmYwM4qb5GjYdDiotPjMJcs2eeKYEyxhj6+1K6bRU3yjpxTZl8yIqOGNMkroQWIHNWFXjkVDYx+Qmx/mb1q7vX0oEVphtTOMCmxrvIPUVLfwNd2wRG2mpLGAW8AjJ3EDrTGRPAcZ21XdQhGa1wuaoX9i1xtKHGDTAYkRK57U8QkirSIEhA7gYpQcjpQBmMgE20dTU32cqnqaHtm+2CbPHpVokAZPSixDM9o2C5psRLdKvS7TEQOtVbXgkMtA0SoMg8c1DMoTrU/mBXxUd2glAoGIiBvmHSlCbcmpIE2QgHtUgwaQFZdjtwean2flVK3gaC4YscqTWhvU0AVLhxAoY96liO+MN2NFzEtyoA7U+JDFFt7CkAnCjmmgqw4pSN1OSIJzQAwx5FVWcrNtxV0nHWoSELbu9ACeXuHNQTqYRntVmmOvmJhqAHQMHTNTKQoqpE3ljFSrJnIouFi3FIGarinvWVGdp4NWFuNvFO4rGiDTqqxzAjrU6vmqIHEZphWn0hpgQsKbnsakYUwrmgZFIBsqjdSLHCT7VdkGFNc1r175EJGayqFo4TxRMJpGK1ySY3EZ5rf1FxcOzZyDWT/Z0zNuiUH8a5+YtoFVWUndzUSxAMea0bewnwN8RB7cVM1iU/hOe/FWIyGXByajb5uKuTxFW6cVUkBHQfjTIKc0YzVN4hk1dkPrVY9TQMpuMEYHFSwkqfaldetEYwwpjTsX42wAcVOktRxoNgpSuOlM64TLccmRmpVfJqijEVOrYApG6Zc34Ap6vVZDmpQQDQUibNGajDU4GkA7/a7iikzRQO409KN2FAqLd05pQ1MzJFyc1E4wOaejEdaYy7mzmgCBj7U5BjnFJIoz1oBwMUDJMn0pyn3pitxzS5z3oGOPOaYW4xTweKiOcmgQNkZ5pN3AoY5pO1ACsTTDk0hJPHamlj07UANJOeKTPvxSt/s0zI7UAKx4qMmlJphNADGNR5pxNNNABTGFLmmlqAbGGmFqexzUe0mghsBljntXS+HAQ444rBjiO2uj0RDHg44xS5iGdWnIBqXqahThBUq0CFB4zSrSAUqd6TAO9OJHy1GM7jmmuSHX0qQJWUN9acmc47U3OKSGTcx+tMQ9U2SEdqV/nXYO9JMQq7qSPkhhQBYWMRqvPFOkG5Pl601nXC1JCfyoQDoxtUetNumb7MdoyaSRsMBUkILHaeQapEktqf3K59Kmb5VJ7U1kEadMCkSUEEN0NMkgsZPtBkJXGDWgjDFVo0EO4oMA0+Kfa+KAEmmiW5EOfmqdUYHB6VE1tHJcifHzVYWYb8MKZA2YeVHk9KbbjzV3ryKluB5sLR+tNsF8iIxntQBIM+nNROQr7HOC3QVZEq+dgjiq+ow77qGdTwOopAKI2UipWXKAjqKk3A0b15HtTAqxtuk+U5I61LKm5NpFVNPieG5nLnIJ4rQYhuaAM928puvFEcpJ2jpTNXgkMANueSeamtowsKCThsc0ATREjNP3Z4HWmpjfjPFVUkb7eV/hoAtqcoQabNwq47Up2880jYe3bbywFACWszEnd61aMYfn0rK0fzDG5m9eK2Y3UjA7daYyo/yn2pxyUHpUeoSFIRsHOamhAaBd/cUAQGIDcw71EpOduK0IkTODWddbxqiRIPl70gJlD9+lSBcc4qbCjinrtKkAUwIPTNJtLcdqhtpS966P0Wry7QaBCCPCLUYjGWJOc1ZkcfZ3A644qjpxdoW87rnigCzAOcVKTgEk8VHvEbcdKo69LLFZI1v1J5oEamfk4p8QB+as+wuM2cfmH5yOaspIFk68UAWJJPLYehp4fcA2aytUSWZ4TDJgA81chlHkKM80wsXQVwPWmSSeW4Td96q8U6q/z1RvFlkv0njY+WO1MVjoEPyA5qZCMk1lpcHZiliu2Em09KBWL73QEmzIqZTnntWJNEGvhOD2rQWfCgUBYu4BojkjZiuRVYTfKfemQxFXL5607kF0xK1RvFge1PDfLQMsh9aoCD7PupPI2ngVahTaOak4B6UAZLhUfB61KsORkin3FozTBx0zVsLiICgRSaPCVEqcHBq5KP3Z4qvAjAnPSkAwRluoqKcbJAM4q6SMVBcwGV1YdqBjQpxxTiGWMmpsbVBxQfnXGKLAVLdjJkGrSpSRweX0HWngMDRYCgX3zFccVKbfGCKsLbqG3AU9x7VNh3M2fcjjAp6LuTJq2UDjkUnlDjsKLDuUJBt7URfN2q88IcYxUYh8uiwXK+CGp68mpNu40xwUHSnYLjgdtSR3GOtV1JY804rgZoEX0nBHWnLLms6NsnrVhWA60xF/qKYVqOOap9wpiK0q/LXBeLY5Nhx0r0VtpHSqtxp1vcoRLGrA+oqJRuUmeJ21lLMdhHWuq0jQFQAyc12y6BZIPkhUfhTl01Yz8oGKxlSZXPcyItKgPGypJdAtZF+4PyrXEG2nhSBVqDJued6x4S2ozRjpXDXVu9s7RuO9e9TQrKhDLnPSvNvF+h+U/movHXilyi3PPpYec4zVcwgH0rRbh9uOlRSRFjkUCM14jkkVAEYNkCtJo9gORVd0YkFaALdqMxc1ZaEFRgUywBIKPWg0KgdKtHRGRmSRMp+WowWBrRaI49RVd4SKbRvGQ1JNvNTKQw3GqhQ5yelKrtnHaoaNVIuBqeGqqGqQNSGmT7qKjDUUFXGdVpUyB1pPmBxTec4oJJd+DTSxwTTaQk8CgAYHGaRSaRvSkAA70DJMjrQG9qapyKCeaBjwelISMGgGkNAgJNNpaaxwKAGnj6UzrS9Tz0pGII4oACwHWoSR17UpYdOtMJB6GgAJphNKTTCaAEJphNOJqM9KAEJqMkmlJyaeiZNBDY1UJqZIc9qmii9qtJF7UENkccPQYrd0oEPiqEUffFa2noA2agRtR9qlFRx/dqQdKoBy0ZAPFA4puPmJqWBKwGBikKhkxTJCxKhelSfwcUgGKP4TTlARulMtz8x3fhT5T/FTEEyGRAKliUKoFIjZTpzTS/zYFADLkFpEx0q5FgYpnlh0BNAJV8dhTERXZf7RGF6d6vQkAj1qJgDg00MVfimiS/ezRpCPeo0QNEretN2JMmH7dKlUYQD+70pkkkYwDxkVVhdZp22jlTVmKUAFfao4YxBIzKPvUAW1DJ2qrcTpHMgfgtVkTE4z0qrf2guXSX+7QJl9RmPPtxSLxg1GkvyKPbFKrZJHrTEOAV5CM8inheMHpVa2jMUrljnNWg/y0hDnKKFBIFJt+bIqnqEbuYWQ4APNXElXYoPWmMMAGonl/fhatKImPUZrHTzf7bbzB+6HSgDTI3cVXkVlHSrzFAgamNsa3f17UAZ6FiSc07YfMzj8adp6B0fd61aKr5gGKAKUrbFY02FioJJ60muB4rAyRjnNGn/vbSMydSKALGdsROMGoWkbeoDEA1PhT8meKyr6WSHVIYlH7s96BmmHYoQ3P1pRIwAqQbNlNxx8nNAAk5LtUw2yEMfvVi6fdPNfzRMuMd62EK8fN+NADpCoXI7VFDI2TjnNQ37SRWUjpy3am6Y7SWqO/DUwLoRfvHhqaxcDg8U5vmeqOoXTWkka9jQIvpMAMZ60kY6+lEcQkgV+MkUsXBK5oAikfL7KcMvGUk5Has/UZ2g1CNMZyetaiFTHk9cUCIAhA46UsTfPgnmpYyrZU1mM0g1QJztoA1sUh+QcUqsKdlW4oAr7mMhA5qVXZRgjiqEEM0OoMzvlD0rQkkU4xzQBKCNlLGM1FvDRMvRscVUsJJYpnEpyueKYjV6NgmldxHFu7VGZFbkU12EsJSgCxbyrJwDmrUcu3g1i6futuH5q79pDOeKEKxoT3CxpvzwKktbuOaPcpBrMlIntWjHU1Dp6vaKUJzmmpCsdErg0O4Xk1QW4xgZp0rGRMA1VyTQUhsU4DPFVLeQKoBNWRKuODTEIUBO00uwYxgUnVs07dQIryR4IxThGMVKQCacqYoGQGP5DTIQC+Kt44xioliCvmnYdx2wE1VmbY/SrmfameWr9RRYAVPlHFMkT2qcDjFBpWJuQJGNvSkeLjipV607FFguV0iOeac9uGWpTgGnZ4osFyrHbgNzT5LRWWpP4qduosFygLLaTStbDYcVfxxmmHGMUirmOtq6OacSVODWo0QIqjPF81AEasRzUyze9QHKrUIlIakBoiSpFcEVSEmRTlkwetO4i75gpjODUG/3ozmqYD2pAM02lBxQguKQRXOeJomktWKjPFdIWwKztQ2tA4Zc8VLQ7nht4wW4ZWjMZJ71AATjngV0niHTo5JmZQd+a5WOSS3l8uVePWs2gZJKu/vUCxsrHnitLapQ8dageMdMdKkQlmSJMP07VshAYx61jWqkSBcZreiAZB61cDSBWKjPIpjQgjpVxo/aomT3rSxtcoPbjBHbtVGSExtzithhzj8qoXo+XHGaTRfPYqg8YH4mgEg56ioPNCnaz4qZCOu7jtWbRpGdyZTRTN3tRSNSbk9+lJggdaQjk80mRtpABPFNIz3oPSmZxn3oAduBOMUZ4PNNz70uOKYAG2jrSluaYetAye9ADs0pbIpvWm5HSgB+7imlqCR0ph45oAQkjrTTzSls0xmxQFxh603OKU8000BcazU1eTQx5pM7eaCRW60ymNKPWkUkkVLMnUHqoNWYo89qZFHWhBGAOlTcnmFgiq4sYxQigYFTqoJpXGMVcdBWpZJgdKpomWrUtkwBTGXFHGBTuc4zQvSnH1pgG7nFBOOtNxhs9qHyaTAmAzjikx1FEZIWkXdk5pAKnytUjDetQTsVdQO9WExsFADkHy8daiMR+27+2KfDIC7Cp2Zd5PtVISJxgx81VHzTFKmEgKZxTF2mTcOtMkeqZk2mq7bvtmwA4q0Gy+amCLneBzQIaF24pt1MIId5FPZwTikuVjuLYRt1FMQtqoljWQ/xVYaHGDUMEgSMIBwKsxzKwwaBEMWGlKA8irKoTxVaKBob15iflNWGmwwIoJI5x5Ksx4pkLeZhgakvT9otiq9ar22UiVSORQBe27hnFRLIqvszzUkUw+7VDyG/tQuX+SgC+2SOBSEY59KnYrsCr+NQ3SEWUhjPz44oASI5JanPhpFPcVX00SLbDzetWiuPm70wEdSUznioVLr6lai1K4a3iULnJNWbd90CM3UigB8K4cHGAaGcibFSxlS1Zd7fyR6pHAI+D3oAuTMzpsYZBPeqTK6n5Og7Vr7F6moxErZ45NAGUHfdg1J5Yk4YfjUMKyyagysMKK0SiqMUgKx3pHt7UkM5IPtVieM/ZXYDkCsfS3ebzAwIwaALYVftJdBgnrUvnGM9aUx7eR1rP1CQ2savgkE0AapuI3i2tyaRGVYyF6VDGqvbo/qKei5G2gBxnYMBmlmCXUY83qOlUZZhDfJCeprTEIPU8UxjVkaOML1ApFnJcZqVk+TaKzjcqLwQfxUAX5og6ZYZIpsbEDBq1GN6YNR7AQxFAiNG/eU+WMMQ461TtXL3Lg/w1oMAU5PNAEGyRXzninK7d6d8wgcry3aqWmyzGRxOOM0gLshVsVDITHuParTbCc1XvE32r+SctigB0Th48g044DDiqmkhxARN1q8w2uMHimmBG8zRj0FOhlB565qLUYjJYnyj89M00FbQLN96i4GgQCM00/LTGnRQBSOwkUAGi4FtSQKUPzzTBOoQIabvXr2p3JJPMCsATgVbV9yjBrHugZSChxip4rhkQKe1FxNGorYPWpDMoI55rLW4JPWnvIHwQelO4rG1HLkdal3fnWOtwRirCThh1quYLEyXyNOY881cWTsKyVjiEu/vU5nweDTuKxeeTYuaIn3iqRk3d81JHJtouKxd6VCzkPjtUfnZ70oOaLisThhjk01m9DULttGaaswbtTuFiwjUu7Heod/pUbTc4pXCw9ZH38mp9429eapb+aaZeetFw5SyZCGp4mXvVLzaaXGetFw5S/wCZ70hk96pbz60bz60uYfKXfM96YzAjrVXzPekMvvRzBYJCKrPjNPd6rs3NTzF2Jg1LuqvvpQ9HMFi0HpwY1WV6kU1VxWLCsakB4qBakB4q7iH9Oay9SlCwPz1q68mAa5zXLtYkI3YBFDJOVv8A95M7dawdRsBcIWC4YdMVueYJckHNQtxmhgcrYXAyYZuGXjmrT85z0qPWLPyZxPGMbqbC+9A27KisGrCJYgBIMjFbtuq7AawN5DgZrcsmBQDGKqG5cWStHULR5q6VqJlrZGtyg0fODWTqmYVJ61vSJ1PtXL69c4yvTAoCT0OYu7yTzTziprDUpEcBuRWXcSFpS1aGl2rTYOM54qWjOEmpHRRTrIA3rzRVqKwCwYwAaKnkO1VE0IR8uaaelOLDGB0pjHK8VkbDWbFNLHcOOKVh2NJznmgBScnOKM+9IWO3GaZuwaYDye2aQ4x1pgfkmkZs0AKGwKTPOc03tTMkHrQBKT3oLZFR/jSE470AOLYpM5phbFML570EvQex9KjJxyaaz7e9QvLkHmglzSCaYKc1TnvM8Co53LVFFCZGGaDldQsw5YZq/GvSo4YdqgVdjjBAqWTe5LCh4rQiUDFV4k5Aq6i5FZ3LRIiipACKaOOalC5xSNEWLePcwNakS4FVreMbQauj5QBWhQopx+7TRycU/wBqQAMiP3pFy1KTzijOBxQwHK3NOYjFQoxGc96SRyHAFICYqMBjT1YKMetRlgIxxTY23DNAE0KhC7HvUrEFGA64qAvtBzU0XzN7YqkSSWoYR/NUnl/u2ZetNZgmCOlOilwSexpiG2mZEbeCDVsAkAVGjKCTgChZ/nz2oEMLqbkR9xU7RAc1BNEPtAmU1Y80MgzTENk2wxFz0pYSrorDoaJgJ4inpRAqxwhfSgRfCh0xVKchZ1TNSpNtOKgkgeW6WXPFBJMgdTnHFSyhfKyBg0pcBMEdKC6S27KDzigCpEc5x1qT5jg4pdPt9gYSnmr22NQBikBT37KmjbcMdjVK/D/a4hEflPWrcYVU5NMCRiEGE6VX84h8danXDdKzImdtUaM/doA05YkuIMOBUWwIgCngVM3ynBpky4hZl6gdKYFeKVyTg9KmYLNKjMnzjoazdIlkuJ5i4woPArYJUEZHPrQAOxXqaZG537gaTUJPKsnlQZIFVtKmNzb7mGKAJ5k3Pu6VH5uOpq4+0gA1malut9pUEgmkBdV98dVWiaOTIGBVm1GUUmpZIg1AFAuQwHamXMIuUCuPlHSmSzKL37P39a0o418vaRQBnxfIgTPTpUiSEnC9qmlhCgsB0rPtruOaZ0X7woAlubQTzi46MKsrLIoBNJntU+zdCWI6UxjVmLScdqiNpHJcef8Ax0toyThtnUVaERBBFADPNZKZHKRITninXS7IGkxwKrae32lCy0CLXlKsu9B97rSs+QwNP+6wWmX0bRQ7060AIhIFLyzZAxT7H9/bh3GDU20cjtSApOrDJPSo1cg8dKnvkkSEbORSwojQjdwaAGKSOVpZyQFPenKmOh4qG+3gLtNAiSNnHbg1KUwQaSHm3XP3qlTj7/NMClcEKwwafFljkVXvrSWSZZIj8ueRVpP3aD1oGOIJbmlWVd3l55pqyE5J61A1s5uVmB49KkC0FYE+lO5K0glHQ8U6ORT8tMZXSYGUoG5q6gA61nGyCXRmVjVoSstAF7eAhJ6VHBcB2IU9KhEqshDd6jhjSNiVPWqJNTO4daZNJ5SZqBZSoqfCSphulMVh0EvmJuBqzHJk4JqmqCFcL0pnmlXzTuKxLcXbRzBQODVxJ/3YqmSkoBI5pMlRz0pCsXJLj92ccmq0Ny2SGFRq2TSPgfWgLF5JwQeag8xjIfSqm9s8U4yED3oHYt7s96jbJNQJISakMlAWH7vek3c1EXBNNLYoCxa3U0vVUzGmmU+tBVi0ZKaZaqmQ+tNL+9AWLDS5qMvk1Dvo3VJVibdSg1CDUgPFAWJVbmp0NVFPNWEaquZssrUgNQq1PzxVIlkU74RjXmvjSe5H72E5Udq7+/YJCfmxXB60v2hJUzkVZJk6LdrLbAucGr7SIWwK5O3ufss80XRRVqz1HzLoIWzmgnmubWoQJc2LBgTj7tc1aqIZHRnB64WuwTDRhW6YxXNX9ssN8zRj5SeRWctgFaIjJxkVq6b0DHp0rOC7kGwY9q2NMzsCscEVENy4l0j2phX2qyQDTCnPWuhGhUmTjOM1wXiPO+TgjnpXoUkZKnn8K4HxIo8yRT60ClsctFGZnC46mux0fTwoXjhawdJtfMu1+XgV3tnbCO3A70MmKuxFj/Kip9m2ika2Oe3jOAKYSPpSEHNNI/Guc7xd340hfNG38KacA8UAOppozTSaCQNNoJpM0AGefpTQ3ekPemk9KYxS+cmkBwc0wnGRUbSUEykTOy1Czr61A0hNN6mkc8qvYVyx6GmYZgcnipkyDjHFPKjbjFBhKRQdCRVi1iywxQ4AGDVuxiBOaGyEyYRYNSxr/DU6xVMsIGDis7mkWEKkc1ciBpqRdDVhV4GKk0QAZ4xmpUHQCkRD2qZAAcGqsaIvwA7AasrkioIfuCrH3VquhQnR/wAKkGMVHnNKppASdRSE5IHpSrTQPnzSAGxSFM4okHzrTz3oARemD0NSxqEqFG3CpHOwgk8UCEnj3xHnmprcEQqO4pqqGIPapCNvSgRHdzPHFlBnPFTwoTCvqRShFkjw3QUobaQF7CqEOK4QnsBUVi/nFh2U1OrZRlbv1ptsgg3bOhoJLIX2qC4dYpVTPJqzHKjd6hubdZbhJOwpgPjRuualWNsEmmeYEwKtF90Py9aYFdY9wJzU0cZX5qgt22Eq9XI5VIxQQNlIMXvUap5Y4HWoNS8wNGYumeavqqtbq3fFADH+4KiEpDdelXEXepXHPasazWb+0J1mPAPFAFtjnBI5zUjqQoYGpXQbDUVxJiydlHIFMAjDHmmlF84PjmotOlkkjJergClucUARySFfxpysxjzVXXJGtbNZU9al06Uz2iO3GRQA0RbHZ04zTt+cc/NUxTdJhelZWo3ElldRJs4Y9aQGoDldkgyDTY0WBCiHAPSpVw0at6ikWJZTjPSgCJpCzgUsn76PDDp3qCKbzLx0x0q3LlYulAEcRIG0GpDKQetQu3loZsfKBUOmXC30bvg8GgCQ28U0wmP3qkEu18YqQQgMagucWyGVzxQMsK5ZWHY1Th06OCZpVHLVNbyrcRCROlWk/OgCk8YGKnibKMh6EVFflYVDlsZqaAB4kIGc96YgtIEtt2O9WFlU8elAjKPyOKiuQsXzngUASXBEsBjxwahs7dbaMhBVhFEsasvSphHhqYii5Oc96nU+ZEEfmob11t1G4ck1PbJ5iLJ2oAjRjGWRelIWAx6mrbW4Ykr3rM1BxaXMSY60CLZDuuGGRUTwnZlavxKGUHHBFO2DOO1AzOjB+Vakkt2boKrX0k1rexhFyjVrKuVXB5IyaQGeImEXvTVOXC960YgvmFHFZTxSpq//AEzoAshWzjtQ1uW5FXdinOKAg2nNMZkjmTbUo3jimW9nIL1nY5jzWmI1PSgRmSRkjfTYsnmtV4gYmXHJqtb2/lKQw60guRhSRUNy3lED1q8w2jpUFxEJdoxQFxsC74+KXy2FPiHlrjFLuyaAK/2vbJ5RXmrBc4GDR5COd+PmpGGBTAkErbD3qBC+STmnKzAdKeX2oeKQhysSBih5G3AGo433nC1I8bYzRYCSN1xQ+x+9VIyzOVwakETc4NMCVQAaVtueagh3iQg9KnZN3GKAGLIAabLKT0pwg55qT7OD2p2EVgx707kipjb89KnS2G3pRYLlLynJ5NKIT3q+IKd9nFFguZ/l4pNg9KvmCozDinyhzGewwMimq3qKsOu0niocYNZtFoM05W9aaTQCKRSdiRcE9amVgB1quCPWjNMkuo49al3cVSizmra5xWsCJGJr935NuTgVyCSpcljnk+9b/jLzI7FmAIxzXDaVemRmUv3zjFUZMx9cQWty7I3UVmabOz3q/MR68VteJ0YxmQKSMema5fTXIvFI/LOKDNnqFn+8hBzniqmswqkYf+9xUuksRGuemOan1eNZLJuOV5FLoUjAtpsLit3TVLkVzVofnwVxXW6agEQOcGpgtTRFwoBTSuKlxSHpWxSICoKHj8a43xTaneCBuzXalSUxWVrVl9ot+ByKQ2croVieDiutS3/dis7S7bypNp7Vt8DAoCOhTKHPSirQ6/d4opWNLnDgjPFJnmgfSkbGK5zuAuaaSDTSMmjFAC5ppNBNITQSITTc0E0maADNMdwOKazjBqCViSCKZEpiySDpmoc7jjJpQrEg4p+0qAdvWg55yYwJk9acIvelweoWmMzjjFSY7FhWAGKUtuIqoJwDg9alEoI4pkMSQAnpWnYRqB0rKaQhgDWzYEFRxWbCJdVMtirCxcYxSRqOtWY1yc1mboVIyCPSpSuAMU8cLT1TvVI1RHjA96VVO6nnGaQkcDoatIZehPCirJIKGqsBzirIGDVFAVpoU8U89KM9qkBQcPSudtJtwaGXcQKQCj5gCaF5NGMJTY+TQBIEAFMugXjG3tTnfaVX1p65PGKBDrc4iAakupCoBWnjAGKVlDjHpQIliIMfy0so8tN4FMQeXF15qTPmRkZqhBCwdQcdRUiIcdOKiUY78CrMTFVx60Ela3cPPIPSryxARjmoIoVjkdgOtTiRflHvTArTLg8mrUIKoD61UvomeeMqflzk1oxMnlbe/amAPFvGcYNRIhV8Zq0simNl/ixxVOw3eZJ5p78UEssEbhg80pwE68U5iq8mq+oMYbTenQ0CJ4t/UE/nTXjJk3kc020kzao3tVhmzx60ARliUxnmmKHxtK/Kao3909veRRqOvWtFXbYrGgBFi8kkjgU0A+bnPFWGJkQADmss32NSW3NMDQk2ypskGR71CF8vCrwvtVmVfk3Co0wRQBH5+1gBTLlFuypfkr0qqlyG1J4SOBWiuzdjFICAuUXA6dKZDcMrcHmpbjARj2FZ9pL55bYOQaANCJNkvmY5NSGUMGHrUO5l61UvLoWoVnOMmgZoRsGjaJ+h4qG1RbIsiDgnNJCRKgdTwRTjnd60AT/aBmmXQS8tjG3Ss6aYRXIQnk1eQZTFAC2gW2gES9KmEwR89qhChe9IWDNs70ALqMC3sSrnHNTW0v2eFYwPu01AzZyOlDL04piLguA2Kh1CP7XCFBxiq8Uqef5efmq26bEOTQBJajZBtHanCU76SEArwai8xTcbAeaYiW6t0ugpYdKlj+SEIBwKFOOop4+Y9OKAGCTa1NmgjupAzAEj1qEzxfaPLzyKvxqOooEMVdkf0pAcnip8cVTWYG6MeKBg8G45YZ9KkRWQVaVQRTJBgHNBJCYyx3Ch4dwB71Xtr4G7eFhwK0mK0AVTGUGc01WD8CrDqDC3rVOwVvMZW9aBkypmg/Lx2qVgATtqO5XfbEL96mAL8w4pNpNNtEZITu61OCMe9IVyGQBMbu9KIPMANLdR+dGMHkVYhwsag0Bcg+zjGKhgCNOY+9X2I6iqywATmQdaYD/ICmoLldgBC1aJbOTQQr9RQMijVGTOKQxIQRipBGB04pVTJosTcghtQhJFS7c8EVZSPbTPMQTbcUWAhFsOw5pvlENitIAEVWZW87pTsFxkVsM8inrCN+MVaHTpTAhL5osFxGgUL0qNUA7VaxkYNNKAVdiSIIp7UuB2FSqooKc0WAjCE0vlU8E04U7EkRiphiFWMCkK8dKLAZssAGaouoBIrZeLIINZ88BBrOSNFIzmGDTc4qWRMdagbrWbNL3HqRUi9agBFL5mKQF5BVlO1UYZM1eiOSK1gQylr9mLvTpBs3HbXg09xJpmryLuIAY5FfRs677Zh7V4B4/thb6rI+AMmrMWT6hKt5poYDnbXKWMeNRwVyN1W9P1RZLZom4wuOTVzTIInuA20EsfWghnXaYD5IxV2+y1sw7bajtFVFI7VPcMohb020hnKQJtmGcqc9O1djYLuiHFcXE+dR2gAjPrXbWClYR2pRjqaIt4xSEUtFalkZqJ494wasFO4phOKBmeliInLr09KskDAwKl28j+VIxHIxzQNERRcfWinuflHFFAzzrdz7U0ktxSdTRnvXKegGf0oJpp9KXJxzQAhOc+1NBpCcE00nHFBI4kZqN2wCaRnAJqNyWGKRg5jN5OSBU0MO8gkHmn28OUztrShgOwcAVLkRdshSzAcHGRVlLIdSOPSrcMBCgVbEQABHPtU3Eo9zPXT4i7fLwaX+zIWT7grR24I9KcBgGkHKjnp9CTeWiHPtWTd2ctvk7CMV2+3njio5rVZkxIoammyHTTOA3hnGflxW/phyoA5FGpaJtbdEufaptNgeNQpXaaTZkoWNLGBxU8faoenFTxjikbIsK3NSL0BqNOcVYXG0AihGiK88qx/NVdbtZmwKsXSK3BqrDAqvkCt1HQ1Nq3/wBWtWgOarwYCAVMG5xQApGWpccUlOA4pMQxm24pwOabIm7BpcYjqAFXnNOAxUMIJbmpZjsIAoAJI95DDtUikALimxEmLnvSF1Dhc80Eg+43Q9CKuIo4qLAOGpQ2DVIBszbZlHY1cSPGGqMKsu045FSeaQcEcUwYTqI030+DLqppGHnIBT0zEoUUENk4j5JqJNryn1FTRyBuKbDbhJmfPBoAYwLP7U77q9ak+U/nVa7Db129KZBKobGaVcr81TKV2iplQNxxQBW3b+vWkRRJlHP4VRleSLU/L/hrTSP+KgBhAgQJ2pS25cjtSSoSjN1wKpaZdG4neNhwDQBZliW42lwCR61KeAFB4pSmGxTHUqjN1xQA1ZnjkyRUctrHJcC4/jpthIbhTvq5sC8UwGGRiu3NQqzI3PNFzJ9ngeRhgCo7CcXsO9egoADbq10Zl4Y9aezlTzVlVA7VR1GVLZQz8A0gLIk3qVP3TUUNvHbK2zq1La/vY1bsatNErdOTQBWBGcmql9ELxQGHSrUjKHEfQ0NEVWgEQ28vkwiMcAcVMsyLyTUTIMcVVSQM7LnOKCkPvIFnuEnX+GrSXAH5VEjADbUc0ZRS/akMurKrKSaS2jzdeYT8tUreTdH6irsTHcF7UAXnkAPFCOCarv0zmlj+tMkpNbSw6v8AaHPyHpWw1xGY8EdajdRIoB7VHJgduKYizCw6A8VnGCWPVPN3/u/SrEMinIBqZl3daALXmo4GBTlm2mqQynOadHJuPrQBUlsWGoi5U/LWykwCKKqMQeM0FsIW9KYi8svPtUBjCz+YvWoIJ/MXIOamD5oAm8/aee9SCTd0NVZ/lhL9KitHLjOaYidrdBMJMcmpz060gB2881FeP5Nv5hoAnjGV603ywj5AqGyl8+HcpqwSTxTEDDPNIAKiuZTEOlPgXzIt+aAJB1HFMc4k2gVNGQcA1WvN6zpsHFICUIc0/GBQp+UZp4KnjNADAfSnY6EVXIdbgkfdqYvxQIS4by1BbpSwkPHntTGP2hdjURgxfL2pjJmHHFRQyMsmG6VJzjihQOpoRJKz0wxqXDDrSgqxxUipVIBQxxipAOMmonYRinxyBk5pgOp4FQyHC5WnJJmPnrQSOdhTlbK1GRupV4NAwyQaceRSNSKaAFp1NPWlFMQ6igUCgBCgNQyQbu1WgtOC0AYN1bkE8Vmyx1088IZTxWLdQFM8VEolxkZgUAUrSBO1MKuHOfWnHBHI4rKxoWLeQGtKIjIIrKi2AjFX426VcSWaIQOhBryD4laWPMacDIFeuq3y/hXB+LoBcxvG3OasyZ4Kx2t8o5rofD0jFsEnOapavbNaXLI0eBmjRrtYbxevNBken2oGxSy44qO+cLC3pikt5A9spLc1iazeiNXTf2qLjKdhtfUzuIGG6YrvrZf3K459q4Lw4iXFwSWJOe9d/Eu1FUdBWsTSI+g9KOaKosRWxwaTjNIcCqN7qcVqCG5IoGW93vilYr1Nchda8ZmIRyBV7Tbv7QBl2/75qZzsEWXdSvzaDPl7l+tFWHgSRcOu4dMOKKzuwPPzxx6dKPWg44z+FMJIBPesz0wJzg0m40E5xjoajdsZ9qCGOcqOc1WlmHQdaHYMOKYkRkfNM55TuKgZlq1FAWqa2tT17VpxWXAI71mzOxBa2/GK0I4DvpyQiJAc1biQE1kWtBixALzzUkY5wvFMu8xws69jWfHqX7whuwp3Fc0ZGEY7cUkcm/mqH2sTSdsGtCCMe2KVxonRdwp6rjg0qLgU7b81MCF4/aq8kQU521oMOi1HMg24IqBWM4gZyBUkeOtKUGSKaFIqhFyMAEelTEACoISMgVPgHOKcSitOM0Qx9DSygcipYQCtdSehqizGMYqUdaYg4p1QIcWp+SFpmOM08HK4qQF+8lRg84zTgeq01U+bJqQJQoDcUrpvGaikfaRUqN8n1oAVDjC1XaMm63dqnHEnNSlR1qiR8a/JUSk+fjHFPjPGKlWLGWpoCWJDio2OboJ2qQSldtJ/HvI5oEydDtHSid1RATT1ZSAar30TSou3pQZsmQZwfWrSDjk8VUVgoX6VaRgyYoEQ5xMR1FS4yMEVBbLid9xyKtsVIOKYEJyiEjtToJGdDiorxmSyd1GcVX0aaSRCWXigC86eZhsfMO+KZ5rICDVgOtVr1lihZzQA+G5JJHbvURQRTF4xgHrilhUSQq69Kft4x60ANWRjnNOWTgqR1qpqExs41OM54qxaq08aPjHFAAqeW52jA9qk84457U/yziqV3MLeVVPU0CL8qJc2rROBtcY+lUbW1OnDy0+7mrsJxj+7VjyRMtMZVWbk5FRahaR3sCq3ahJozcmHuKs8cLSAqwxeTCFHQU6ORlkyKutF8uccYqnEoldiv8JoAbJAJJ1kzzUs2B8vU1IsZDgY4ptynlndQCK/lgxtmsq3s5IrySRzlT0rajQtGxqHBAYsKCkQqFbjHSkuE82BkQ807Zt+YGnGNh8wHWkMqaUjRRssoq8Cm+mhG2FsVEzgGgC3ON9udnWmWDFVKzURvxUjJTJLLMuMqeKZPEJrVghw+KgJ27VH41YUYTcpyaAMjRI5oJHWbpW3G6GQ56VVDYlPHWkZvLyx6UwZelRZoXEZw2KpaarwlxNzzUkLs5z0GKnGAOnNAhTt7Us8YktXUHkioZAQM0qOQeaBFPRYJLPckpJya1HwJMjpUSAPLgUThlIzQBM48+ApmktovITHWoY3YEiphITxVCJvPIpJ8XMBjboaryyhSFPU1YijyOtADLWL7JFtU1P5ppfKbFVvNAm8vvTESuwk4enhtseFNI0QJoWFgT6UANEjY61KGLY3VlteKt95PetZSoQUgELYpgyxyCamlRvJZl7Cs+wumeZkagDQ5JxTJBs696fnByKjukM0Y2/eFAh6jkEVPt3JnvUUAxEA33qk3YpgNicbiKsrGD1qAIPvCnq/zYoQiKWJhLlelWlb5RxzRTJG2LmqARxvpqqUFSR/MMmpHjyh20wZCCX4pW+RaWFeoapmjDLgUEkcT5FDE5qVIsCneWDQMYo3CjaQalVMU7bQBEBS4p+KMUxDcU4DmnYpQKAFxS0UUySNxxWZepkZrUbmqdwm5SKHsUjmpziQjFQONyda0biDDMfSqMo2qcVg0brYSIbR15q/ATxkVnRbmxV+AsOnWnETNFwVgLDrXGeICRIWZgR1Irevr97WA7+leXeKtUuzIZYmOw9qoykN1ixi1OA7EAcdDXECJ9PvQHTgH6Vu2WvjbhgQehP3qqazPFdIWwue1BizYj1OMWQAkOcdM5rmdRu2lkKqflNV1lmaMhUY9qrBJ2kVTG3X0ppopI7bwnEygMQDzkV3kUh2D5Rx1rktB/0eBeDnoOK2Pt/7s0SmkjRGs0qjnNQtcrnrWSblnGKblicbsGsfbMq5cvNQWGFmzzjg1wOqam8krAMcVuaxKyx4c8Cud+yC7mAQ8dTVqroQwsYHuZF4OO9d1pVgI4lJ59s1U0ywjSMNgAjtW/brtPGB+FZxnzyuaqNhxj46EUVP14zRW/KM/9k=;rotation=15;" parent="1" vertex="1">
                    <mxGeometry x="1050" y="30" width="150" height="200" as="geometry"/>
                </mxCell>
            </root>
        </mxGraphModel>
    </diagram>
</mxfile>